<svg xmlns="http://www.w3.org/2000/svg" viewBox="0 0 130 95" width="130" height="95">
  <defs>
    <filter id="sh-adxl345" x="-8%" y="-8%" width="116%" height="116%"><feDropShadow dx="1" dy="2" stdDeviation="2.5" flood-opacity="0.28"/></filter>
  </defs>
  <rect x="5" y="15" width="120" height="75" rx="4" fill="#0097a7" stroke="#006064" stroke-width="1.5" filter="url(#sh-adxl345)"/>
  
  <!-- PIN HEADER BLACK BASE -->
  <rect x="19.0" y="6" width="88" height="14" rx="2" fill="#1a1a1a" stroke="#333"/>
  
        <rect x="23.0" y="7" width="8" height="10" fill="#bdbdbd" rx="1"/>
        <text x="27.0" y="5" text-anchor="middle" fill="#fff" font-size="5" font-weight="bold" font-family="Arial,sans-serif">VCC</text>
        
        <rect x="37.0" y="7" width="8" height="10" fill="#bdbdbd" rx="1"/>
        <text x="41.0" y="5" text-anchor="middle" fill="#fff" font-size="5" font-weight="bold" font-family="Arial,sans-serif">GND</text>
        
        <rect x="51.0" y="7" width="8" height="10" fill="#bdbdbd" rx="1"/>
        <text x="55.0" y="5" text-anchor="middle" fill="#fff" font-size="5" font-weight="bold" font-family="Arial,sans-serif">SCL</text>
        
        <rect x="65.0" y="7" width="8" height="10" fill="#bdbdbd" rx="1"/>
        <text x="69.0" y="5" text-anchor="middle" fill="#fff" font-size="5" font-weight="bold" font-family="Arial,sans-serif">SDA</text>
        
        <rect x="79.0" y="7" width="8" height="10" fill="#bdbdbd" rx="1"/>
        <text x="83.0" y="5" text-anchor="middle" fill="#fff" font-size="5" font-weight="bold" font-family="Arial,sans-serif">SDO</text>
        
        <rect x="93.0" y="7" width="8" height="10" fill="#bdbdbd" rx="1"/>
        <text x="97.0" y="5" text-anchor="middle" fill="#fff" font-size="5" font-weight="bold" font-family="Arial,sans-serif">CS</text>
        
  
  <!-- CUSTOM GRAPHICS -->
  <rect x="55" y="35" width="20" height="20" fill="#222"/><text x="65" y="45" text-anchor="middle" fill="#999" font-size="5">ADXL</text>
  
  <!-- COMPONENT NAME -->
  <text x="65" y="85" text-anchor="middle" fill="#fff" font-size="8" font-weight="bold" font-family="Arial,sans-serif" opacity="0.9">ADXL345</text>
</svg>