<svg xmlns="http://www.w3.org/2000/svg" viewBox="0 0 360 220" width="360" height="220">
  <defs>
    <linearGradient id="pcb-mega" x1="0" y1="0" x2="0" y2="1"><stop offset="0%" stop-color="#1E88E5"/><stop offset="100%" stop-color="#0D47A1"/></linearGradient>
    <linearGradient id="pcbTeal-mega" x1="0" y1="0" x2="0" y2="1"><stop offset="0%" stop-color="#00939d"/><stop offset="100%" stop-color="#007982"/></linearGradient>
    <linearGradient id="metal-mega" x1="0" y1="0" x2="0" y2="1"><stop offset="0%" stop-color="#eee"/><stop offset="50%" stop-color="#fff"/><stop offset="100%" stop-color="#999"/></linearGradient>
    <linearGradient id="pin-mega" x1="0" y1="0" x2="0" y2="1"><stop offset="0%" stop-color="#f5f5f5"/><stop offset="100%" stop-color="#bdbdbd"/></linearGradient>
    <filter id="sh-mega" x="-8%" y="-8%" width="116%" height="116%"><feDropShadow dx="1" dy="2" stdDeviation="2.5" flood-opacity="0.28"/></filter>
    <filter id="glow-mega"><feGaussianBlur stdDeviation="1.5" result="b"/><feMerge><feMergeNode in="b"/><feMergeNode in="SourceGraphic"/></feMerge></filter>
  </defs><path d="M 10 10 L 330 10 A 15 15 0 0 1 345 25 L 345 200 A 15 15 0 0 1 330 215 L 25 215 A 15 15 0 0 1 10 200 L 10 25 A 15 15 0 0 1 10 10 Z" fill="url(#pcbTeal-mega)" stroke="#00a8b0" stroke-width="2" filter="url(#sh-mega)"/><text x="180" y="100" text-anchor="middle" fill="#fff" font-size="22" font-weight="bold">ARDUINO MEGA</text><rect x="60" y="8" width="280" height="12" fill="#111"/><rect x="60" y="200" width="280" height="12" fill="#111"/><rect x="68" y="9" width="5" height="10" fill="url(#pin-mega)"/><rect x="77.5" y="9" width="5" height="10" fill="url(#pin-mega)"/><rect x="87" y="9" width="5" height="10" fill="url(#pin-mega)"/><rect x="96.5" y="9" width="5" height="10" fill="url(#pin-mega)"/><rect x="106" y="9" width="5" height="10" fill="url(#pin-mega)"/><rect x="115.5" y="9" width="5" height="10" fill="url(#pin-mega)"/><rect x="125" y="9" width="5" height="10" fill="url(#pin-mega)"/><rect x="134.5" y="9" width="5" height="10" fill="url(#pin-mega)"/><rect x="144" y="9" width="5" height="10" fill="url(#pin-mega)"/><rect x="153.5" y="9" width="5" height="10" fill="url(#pin-mega)"/><rect x="163" y="9" width="5" height="10" fill="url(#pin-mega)"/><rect x="172.5" y="9" width="5" height="10" fill="url(#pin-mega)"/><rect x="182" y="9" width="5" height="10" fill="url(#pin-mega)"/><rect x="191.5" y="9" width="5" height="10" fill="url(#pin-mega)"/><rect x="201" y="9" width="5" height="10" fill="url(#pin-mega)"/><rect x="210.5" y="9" width="5" height="10" fill="url(#pin-mega)"/><rect x="220" y="9" width="5" height="10" fill="url(#pin-mega)"/><rect x="229.5" y="9" width="5" height="10" fill="url(#pin-mega)"/><rect x="239" y="9" width="5" height="10" fill="url(#pin-mega)"/><rect x="248.5" y="9" width="5" height="10" fill="url(#pin-mega)"/><rect x="258" y="9" width="5" height="10" fill="url(#pin-mega)"/><rect x="267.5" y="9" width="5" height="10" fill="url(#pin-mega)"/><rect x="277" y="9" width="5" height="10" fill="url(#pin-mega)"/><rect x="286.5" y="9" width="5" height="10" fill="url(#pin-mega)"/><rect x="296" y="9" width="5" height="10" fill="url(#pin-mega)"/><rect x="305.5" y="9" width="5" height="10" fill="url(#pin-mega)"/><rect x="315" y="9" width="5" height="10" fill="url(#pin-mega)"/><rect x="324.5" y="9" width="5" height="10" fill="url(#pin-mega)"/><rect x="68" y="201" width="5" height="10" fill="url(#pin-mega)"/><rect x="77.5" y="201" width="5" height="10" fill="url(#pin-mega)"/><rect x="87" y="201" width="5" height="10" fill="url(#pin-mega)"/><rect x="96.5" y="201" width="5" height="10" fill="url(#pin-mega)"/><rect x="106" y="201" width="5" height="10" fill="url(#pin-mega)"/><rect x="115.5" y="201" width="5" height="10" fill="url(#pin-mega)"/><rect x="125" y="201" width="5" height="10" fill="url(#pin-mega)"/><rect x="134.5" y="201" width="5" height="10" fill="url(#pin-mega)"/><rect x="144" y="201" width="5" height="10" fill="url(#pin-mega)"/><rect x="153.5" y="201" width="5" height="10" fill="url(#pin-mega)"/><rect x="163" y="201" width="5" height="10" fill="url(#pin-mega)"/><rect x="172.5" y="201" width="5" height="10" fill="url(#pin-mega)"/><rect x="182" y="201" width="5" height="10" fill="url(#pin-mega)"/><rect x="191.5" y="201" width="5" height="10" fill="url(#pin-mega)"/><rect x="201" y="201" width="5" height="10" fill="url(#pin-mega)"/><rect x="210.5" y="201" width="5" height="10" fill="url(#pin-mega)"/><rect x="0" y="28" width="48" height="40" fill="url(#metal-mega)" rx="2"/></svg>
