<svg xmlns="http://www.w3.org/2000/svg" viewBox="0 0 130 90" width="130" height="90">
  <defs><filter id="sh"><feDropShadow dx="1" dy="2" stdDeviation="2.5" flood-opacity="0.3"/></filter>
  <linearGradient id="bg" x1="0" y1="0" x2="0" y2="1">
    <stop offset="0%" stop-color="#c62828"/><stop offset="100%" stop-color="#7f0000"/>
  </linearGradient></defs>
  <rect x="3" y="18" width="124" height="68" rx="4" fill="url(#bg)" stroke="#7f0000" stroke-width="1.5" filter="url(#sh)"/>
  <!-- Compass needle icon -->
  <circle cx="35" cy="55" r="22" fill="none" stroke="#ff8a80" stroke-width="1.5"/>
  <polygon points="35,34 30,55 35,50 40,55" fill="#ff5252"/>
  <polygon points="35,76 30,55 35,60 40,55" fill="#fff"/>
  <circle cx="35" cy="55" r="4" fill="#fff"/>
  <!-- HMC5883L chip (LCC-16) -->
  <rect x="66" y="34" width="54" height="34" rx="2" fill="#111" stroke="#333" stroke-width="1.5"/>
  <circle cx="69" cy="37" r="2" fill="#555"/>
  <text x="93" y="51" text-anchor="middle" font-size="6" fill="#888" font-family="monospace">HMC5883L</text>
  <text x="93" y="61" text-anchor="middle" font-size="5.5" fill="#666" font-family="monospace">3-Axis Compass</text>
  <!-- 5-pin header: VCC SCL SDA DRDY GND -->
  <rect x="12" y="6" width="106" height="14" rx="2" fill="#1a1a1a" stroke="#333"/>
  <rect x="16" y="8" width="10" height="10" rx="1" fill="#c8b400"/>
  <rect x="32" y="8" width="10" height="10" rx="1" fill="#c8b400"/>
  <rect x="48" y="8" width="10" height="10" rx="1" fill="#c8b400"/>
  <rect x="64" y="8" width="10" height="10" rx="1" fill="#c8b400"/>
  <rect x="80" y="8" width="10" height="10" rx="1" fill="#c8b400"/>
  <text x="21" y="3" text-anchor="middle" font-size="5" fill="#ddd" font-family="Arial" font-weight="bold">VCC</text>
  <text x="37" y="3" text-anchor="middle" font-size="5" fill="#ddd" font-family="Arial" font-weight="bold">SCL</text>
  <text x="53" y="3" text-anchor="middle" font-size="5" fill="#ddd" font-family="Arial" font-weight="bold">SDA</text>
  <text x="69" y="3" text-anchor="middle" font-size="5" fill="#ddd" font-family="Arial" font-weight="bold">DRY</text>
  <text x="85" y="3" text-anchor="middle" font-size="5" fill="#ddd" font-family="Arial" font-weight="bold">GND</text>
  <text x="65" y="80" text-anchor="middle" font-size="9" font-weight="bold" fill="white" font-family="Arial">HMC5883L Compass</text>
</svg>