<svg xmlns="http://www.w3.org/2000/svg" viewBox="0 0 130 95" width="130" height="95">
  <defs>
    <filter id="sh-hx711" x="-8%" y="-8%" width="116%" height="116%"><feDropShadow dx="1" dy="2" stdDeviation="2.5" flood-opacity="0.28"/></filter>
  </defs>
  <rect x="5" y="15" width="120" height="75" rx="4" fill="#4caf50" stroke="#1b5e20" stroke-width="1.5" filter="url(#sh-hx711)"/>
  
  <!-- PIN HEADER BLACK BASE -->
  <rect x="33.0" y="6" width="60" height="14" rx="2" fill="#1a1a1a" stroke="#333"/>
  
        <rect x="37.0" y="7" width="8" height="10" fill="#bdbdbd" rx="1"/>
        <text x="41.0" y="5" text-anchor="middle" fill="#fff" font-size="5" font-weight="bold" font-family="Arial,sans-serif">VCC</text>
        
        <rect x="51.0" y="7" width="8" height="10" fill="#bdbdbd" rx="1"/>
        <text x="55.0" y="5" text-anchor="middle" fill="#fff" font-size="5" font-weight="bold" font-family="Arial,sans-serif">DT</text>
        
        <rect x="65.0" y="7" width="8" height="10" fill="#bdbdbd" rx="1"/>
        <text x="69.0" y="5" text-anchor="middle" fill="#fff" font-size="5" font-weight="bold" font-family="Arial,sans-serif">SCK</text>
        
        <rect x="79.0" y="7" width="8" height="10" fill="#bdbdbd" rx="1"/>
        <text x="83.0" y="5" text-anchor="middle" fill="#fff" font-size="5" font-weight="bold" font-family="Arial,sans-serif">GND</text>
        
  
  <!-- CUSTOM GRAPHICS -->
  <rect x="45" y="30" width="40" height="30" fill="#222"/><text x="65" y="45" text-anchor="middle" fill="#999" font-size="6">HX711</text><rect x="10" y="10" width="10" height="70" fill="#333"/><circle cx="15" cy="15" r="2" fill="#d4af37"/><circle cx="15" cy="25" r="2" fill="#d4af37"/><circle cx="15" cy="65" r="2" fill="#d4af37"/><circle cx="15" cy="75" r="2" fill="#d4af37"/>
  
  <!-- COMPONENT NAME -->
  <text x="65" y="85" text-anchor="middle" fill="#fff" font-size="8" font-weight="bold" font-family="Arial,sans-serif" opacity="0.9">HX711</text>
</svg>