<svg xmlns="http://www.w3.org/2000/svg" viewBox="0 0 100 52" width="100" height="52">
  <defs>
    <linearGradient id="pcb-dip" x1="0" y1="0" x2="0" y2="1"><stop offset="0%" stop-color="#1E88E5"/><stop offset="100%" stop-color="#0D47A1"/></linearGradient>
    <linearGradient id="pcbTeal-dip" x1="0" y1="0" x2="0" y2="1"><stop offset="0%" stop-color="#00939d"/><stop offset="100%" stop-color="#007982"/></linearGradient>
    <linearGradient id="metal-dip" x1="0" y1="0" x2="0" y2="1"><stop offset="0%" stop-color="#eee"/><stop offset="50%" stop-color="#fff"/><stop offset="100%" stop-color="#999"/></linearGradient>
    <linearGradient id="pin-dip" x1="0" y1="0" x2="0" y2="1"><stop offset="0%" stop-color="#f5f5f5"/><stop offset="100%" stop-color="#bdbdbd"/></linearGradient>
    <filter id="sh-dip" x="-8%" y="-8%" width="116%" height="116%"><feDropShadow dx="1" dy="2" stdDeviation="2.5" flood-opacity="0.28"/></filter>
    <filter id="glow-dip"><feGaussianBlur stdDeviation="1.5" result="b"/><feMerge><feMergeNode in="b"/><feMergeNode in="SourceGraphic"/></feMerge></filter>
  </defs><rect x="20" y="10" width="60" height="32" rx="2" fill="#1a1a1a" stroke="#000"/><path d="M40 10 a10 10 0 0 0 20 0" fill="#1a1a1a" stroke="#000"/><rect x="24" y="12" width="4" height="6" fill="#bbb"/><rect x="72" y="12" width="4" height="6" fill="#bbb"/><circle cx="20" cy="15" r="2" fill="none" opacity="0"/><circle cx="80" cy="15" r="2" fill="none" opacity="0"/><rect x="24" y="20" width="4" height="6" fill="#bbb"/><rect x="72" y="20" width="4" height="6" fill="#bbb"/><circle cx="20" cy="23" r="2" fill="none" opacity="0"/><circle cx="80" cy="23" r="2" fill="none" opacity="0"/><rect x="24" y="28" width="4" height="6" fill="#bbb"/><rect x="72" y="28" width="4" height="6" fill="#bbb"/><circle cx="20" cy="31" r="2" fill="none" opacity="0"/><circle cx="80" cy="31" r="2" fill="none" opacity="0"/><rect x="24" y="36" width="4" height="6" fill="#bbb"/><rect x="72" y="36" width="4" height="6" fill="#bbb"/><circle cx="20" cy="39" r="2" fill="none" opacity="0"/><circle cx="80" cy="39" r="2" fill="none" opacity="0"/><text x="50" y="26" text-anchor="middle" fill="#ccc" font-size="8" font-family="monospace" transform="rotate(90, 50, 26)">IC</text></svg>
