<svg xmlns="http://www.w3.org/2000/svg" viewBox="0 0 100 90" width="100" height="90">
  <defs><filter id="sh"><feDropShadow dx="1" dy="2" stdDeviation="2.5" flood-opacity="0.3"/></filter>
  <linearGradient id="bg" x1="0" y1="0" x2="0" y2="1">
    <stop offset="0%" stop-color="#388e3c"/><stop offset="100%" stop-color="#1b5e20"/>
  </linearGradient></defs>
  <rect x="3" y="18" width="94" height="68" rx="4" fill="url(#bg)" stroke="#1b5e20" stroke-width="1.5" filter="url(#sh)"/>
  <!-- Electret microphone (gold cylinder) -->
  <ellipse cx="28" cy="52" rx="17" ry="21" fill="#c8a800" stroke="#a08000" stroke-width="2"/>
  <ellipse cx="28" cy="36" rx="17" ry="9" fill="#d4b000" stroke="#a08000"/>
  <circle cx="28" cy="50" r="8" fill="#888"/>
  <!-- LM393 chip -->
  <rect x="52" y="38" width="34" height="22" rx="1" fill="#111" stroke="#333"/>
  <text x="69" y="51" text-anchor="middle" font-size="5.5" fill="#666" font-family="monospace">LM393</text>
  <!-- Power + signal LEDs -->
  <circle cx="89" cy="34" r="4" fill="#f44336"/>
  <circle cx="89" cy="56" r="4" fill="#2196f3"/>
  <!-- Trim pot -->
  <circle cx="69" cy="68" r="7" fill="#e0e0e0" stroke="#aaa" stroke-width="1.5"/>
  <line x1="69" y1="61" x2="69" y2="67" stroke="#555" stroke-width="2.5"/>
  <!-- 4-pin header: AO GND VCC DO -->
  <rect x="10" y="6" width="80" height="14" rx="2" fill="#1a1a1a" stroke="#333"/>
  <rect x="14" y="8" width="10" height="10" rx="1" fill="#c8b400"/>
  <rect x="30" y="8" width="10" height="10" rx="1" fill="#c8b400"/>
  <rect x="46" y="8" width="10" height="10" rx="1" fill="#c8b400"/>
  <rect x="62" y="8" width="10" height="10" rx="1" fill="#c8b400"/>
  <text x="19" y="3" text-anchor="middle" font-size="5.5" fill="#ddd" font-family="Arial" font-weight="bold">AO</text>
  <text x="35" y="3" text-anchor="middle" font-size="5.5" fill="#ddd" font-family="Arial" font-weight="bold">GND</text>
  <text x="51" y="3" text-anchor="middle" font-size="5.5" fill="#ddd" font-family="Arial" font-weight="bold">VCC</text>
  <text x="67" y="3" text-anchor="middle" font-size="5.5" fill="#ddd" font-family="Arial" font-weight="bold">DO</text>
  <text x="50" y="80" text-anchor="middle" font-size="9" font-weight="bold" fill="white" font-family="Arial">KY-038 Mic</text>
</svg>