<svg xmlns="http://www.w3.org/2000/svg" viewBox="0 0 160 85" width="160" height="85">
  <defs>
    <linearGradient id="pcb-l298m" x1="0" y1="0" x2="0" y2="1"><stop offset="0%" stop-color="#1E88E5"/><stop offset="100%" stop-color="#0D47A1"/></linearGradient>
    <linearGradient id="pcbTeal-l298m" x1="0" y1="0" x2="0" y2="1"><stop offset="0%" stop-color="#00939d"/><stop offset="100%" stop-color="#007982"/></linearGradient>
    <linearGradient id="metal-l298m" x1="0" y1="0" x2="0" y2="1"><stop offset="0%" stop-color="#eee"/><stop offset="50%" stop-color="#fff"/><stop offset="100%" stop-color="#999"/></linearGradient>
    <linearGradient id="pin-l298m" x1="0" y1="0" x2="0" y2="1"><stop offset="0%" stop-color="#f5f5f5"/><stop offset="100%" stop-color="#bdbdbd"/></linearGradient>
    <filter id="sh-l298m" x="-8%" y="-8%" width="116%" height="116%"><feDropShadow dx="1" dy="2" stdDeviation="2.5" flood-opacity="0.28"/></filter>
    <filter id="glow-l298m"><feGaussianBlur stdDeviation="1.5" result="b"/><feMerge><feMergeNode in="b"/><feMergeNode in="SourceGraphic"/></feMerge></filter>
  </defs><rect x="3" y="3" width="154" height="79" rx="4" fill="url(#pcb-l298m)" stroke="#0a3d7a" stroke-width="1.5" filter="url(#sh-l298m)"/><circle cx="24" cy="10" r="4" fill="url(#pin-l298m)"/><circle cx="24" cy="10" r="2.5" fill="#111"/><text x="24" y="20" text-anchor="middle" fill="#fff" font-size="5" font-weight="bold" font-family="Arial,sans-serif">VCC</text><circle cx="40" cy="10" r="4" fill="url(#pin-l298m)"/><circle cx="40" cy="10" r="2.5" fill="#111"/><text x="40" y="20" text-anchor="middle" fill="#fff" font-size="5" font-weight="bold" font-family="Arial,sans-serif">GND</text><circle cx="56" cy="10" r="4" fill="url(#pin-l298m)"/><circle cx="56" cy="10" r="2.5" fill="#111"/><text x="56" y="20" text-anchor="middle" fill="#fff" font-size="5" font-weight="bold" font-family="Arial,sans-serif">IN1</text><circle cx="72" cy="10" r="4" fill="url(#pin-l298m)"/><circle cx="72" cy="10" r="2.5" fill="#111"/><text x="72" y="20" text-anchor="middle" fill="#fff" font-size="5" font-weight="bold" font-family="Arial,sans-serif">IN2</text><circle cx="88" cy="10" r="4" fill="url(#pin-l298m)"/><circle cx="88" cy="10" r="2.5" fill="#111"/><text x="88" y="20" text-anchor="middle" fill="#fff" font-size="5" font-weight="bold" font-family="Arial,sans-serif">IN3</text><circle cx="104" cy="10" r="4" fill="url(#pin-l298m)"/><circle cx="104" cy="10" r="2.5" fill="#111"/><text x="104" y="20" text-anchor="middle" fill="#fff" font-size="5" font-weight="bold" font-family="Arial,sans-serif">IN4</text><circle cx="120" cy="10" r="4" fill="url(#pin-l298m)"/><circle cx="120" cy="10" r="2.5" fill="#111"/><text x="120" y="20" text-anchor="middle" fill="#fff" font-size="5" font-weight="bold" font-family="Arial,sans-serif">MOTA</text><circle cx="136" cy="10" r="4" fill="url(#pin-l298m)"/><circle cx="136" cy="10" r="2.5" fill="#111"/><text x="136" y="20" text-anchor="middle" fill="#fff" font-size="5" font-weight="bold" font-family="Arial,sans-serif">MOTB</text><text x="80" y="81" text-anchor="middle" fill="#fff" font-size="8" font-weight="bold" font-family="Arial,sans-serif" opacity="0.9">MINI L298N</text></svg>
