<svg xmlns="http://www.w3.org/2000/svg" viewBox="0 0 150 100" width="150" height="100">
  <defs>
    <linearGradient id="pcb-l298" x1="0" y1="0" x2="0" y2="1"><stop offset="0%" stop-color="#1E88E5"/><stop offset="100%" stop-color="#0D47A1"/></linearGradient>
    <linearGradient id="pcbTeal-l298" x1="0" y1="0" x2="0" y2="1"><stop offset="0%" stop-color="#00939d"/><stop offset="100%" stop-color="#007982"/></linearGradient>
    <linearGradient id="metal-l298" x1="0" y1="0" x2="0" y2="1"><stop offset="0%" stop-color="#eee"/><stop offset="50%" stop-color="#fff"/><stop offset="100%" stop-color="#999"/></linearGradient>
    <linearGradient id="pin-l298" x1="0" y1="0" x2="0" y2="1"><stop offset="0%" stop-color="#f5f5f5"/><stop offset="100%" stop-color="#bdbdbd"/></linearGradient>
    <filter id="sh-l298" x="-8%" y="-8%" width="116%" height="116%"><feDropShadow dx="1" dy="2" stdDeviation="2.5" flood-opacity="0.28"/></filter>
    <filter id="glow-l298"><feGaussianBlur stdDeviation="1.5" result="b"/><feMerge><feMergeNode in="b"/><feMergeNode in="SourceGraphic"/></feMerge></filter>
  </defs><rect x="4" y="10" width="142" height="82" rx="4" fill="#1565C0" stroke="#0D47A1" filter="url(#sh-l298)"/><rect x="12" y="18" width="52" height="48" fill="#111" rx="2"/><rect x="72" y="18" width="62" height="22" fill="#B71C1C" opacity="0.85" rx="1" stroke="#7f0000"/><rect x="72" y="44" width="62" height="22" fill="#B71C1C" opacity="0.85" rx="1" stroke="#7f0000"/><rect x="74" y="20" width="8" height="2" fill="#5D4037" opacity="0.5"/><rect x="85" y="20" width="8" height="2" fill="#5D4037" opacity="0.5"/><rect x="96" y="20" width="8" height="2" fill="#5D4037" opacity="0.5"/><rect x="107" y="20" width="8" height="2" fill="#5D4037" opacity="0.5"/><rect x="118" y="20" width="8" height="2" fill="#5D4037" opacity="0.5"/><rect x="74" y="24" width="8" height="2" fill="#5D4037" opacity="0.5"/><rect x="85" y="24" width="8" height="2" fill="#5D4037" opacity="0.5"/><rect x="96" y="24" width="8" height="2" fill="#5D4037" opacity="0.5"/><rect x="107" y="24" width="8" height="2" fill="#5D4037" opacity="0.5"/><rect x="118" y="24" width="8" height="2" fill="#5D4037" opacity="0.5"/><rect x="74" y="28" width="8" height="2" fill="#5D4037" opacity="0.5"/><rect x="85" y="28" width="8" height="2" fill="#5D4037" opacity="0.5"/><rect x="96" y="28" width="8" height="2" fill="#5D4037" opacity="0.5"/><rect x="107" y="28" width="8" height="2" fill="#5D4037" opacity="0.5"/><rect x="118" y="28" width="8" height="2" fill="#5D4037" opacity="0.5"/><rect x="74" y="32" width="8" height="2" fill="#5D4037" opacity="0.5"/><rect x="85" y="32" width="8" height="2" fill="#5D4037" opacity="0.5"/><rect x="96" y="32" width="8" height="2" fill="#5D4037" opacity="0.5"/><rect x="107" y="32" width="8" height="2" fill="#5D4037" opacity="0.5"/><rect x="118" y="32" width="8" height="2" fill="#5D4037" opacity="0.5"/><rect x="8" y="4" width="134" height="8" fill="#111"/><text x="75" y="92" text-anchor="middle" fill="#fff" font-size="9" font-weight="bold">L298N</text></svg>
