<svg xmlns="http://www.w3.org/2000/svg" viewBox="0 0 300 300" width="300" height="300">
  <!-- PCB -->
  <rect x="10" y="10" width="280" height="280" rx="10" fill="#D32F2F" stroke="#B71C1C" stroke-width="4"/>
  <!-- Heat Sink -->
  <rect x="30" y="20" width="240" height="80" fill="#212121" stroke="#000" stroke-width="2"/>
  <path d="M50 20 v80 M90 20 v80 M130 20 v80 M170 20 v80 M210 20 v80 M250 20 v80" stroke="#424242" stroke-width="6"/>
  <!-- L298N Chip -->
  <rect x="110" y="90" width="80" height="50" fill="#111" rx="4"/>
  <text x="150" y="120" fill="#ddd" font-size="12" text-anchor="middle" font-family="monospace">L298N</text>
  <!-- Output A Terminal Block (Left) -->
  <rect x="20" y="120" width="40" height="80" fill="#1565C0" stroke="#0D47A1"/>
  <circle cx="40" cy="140" r="8" fill="#90CAF9"/> <!-- OUT1 -->
  <circle cx="40" cy="180" r="8" fill="#90CAF9"/> <!-- OUT2 -->
  <!-- Output B Terminal Block (Right) -->
  <rect x="240" y="120" width="40" height="80" fill="#1565C0" stroke="#0D47A1"/>
  <circle cx="260" cy="140" r="8" fill="#90CAF9"/> <!-- OUT3 -->
  <circle cx="260" cy="180" r="8" fill="#90CAF9"/> <!-- OUT4 -->
  <!-- Power Terminal Block (Bottom) -->
  <rect x="90" y="240" width="120" height="40" fill="#1565C0" stroke="#0D47A1"/>
  <circle cx="110" cy="260" r="8" fill="#90CAF9"/> <!-- 12V -->
  <circle cx="150" cy="260" r="8" fill="#90CAF9"/> <!-- GND -->
  <circle cx="190" cy="260" r="8" fill="#90CAF9"/> <!-- 5V -->
  <text x="110" y="230" fill="#fff" font-size="12" text-anchor="middle">12V</text>
  <text x="150" y="230" fill="#fff" font-size="12" text-anchor="middle">GND</text>
  <text x="190" y="230" fill="#fff" font-size="12" text-anchor="middle">5V</text>
  <!-- Logic Pins (Center Bottom) -->
  <rect x="100" y="170" width="100" height="30" fill="#111"/>
  <!-- ENA IN1 IN2 IN3 IN4 ENB -->
  <g fill="#ddd">
    <rect x="108" y="180" width="8" height="8"/>
    <rect x="124" y="180" width="8" height="8"/>
    <rect x="140" y="180" width="8" height="8"/>
    <rect x="156" y="180" width="8" height="8"/>
    <rect x="172" y="180" width="8" height="8"/>
    <rect x="188" y="180" width="8" height="8"/>
  </g>
    <text x="112" y="165" fill="#fff" font-size="8" text-anchor="start" transform="rotate(-90 112 165)">ENA</text>
    <text x="128" y="165" fill="#fff" font-size="8" text-anchor="start" transform="rotate(-90 128 165)">IN1</text>
    <text x="144" y="165" fill="#fff" font-size="8" text-anchor="start" transform="rotate(-90 144 165)">IN2</text>
    <text x="160" y="165" fill="#fff" font-size="8" text-anchor="start" transform="rotate(-90 160 165)">IN3</text>
    <text x="176" y="165" fill="#fff" font-size="8" text-anchor="start" transform="rotate(-90 176 165)">IN4</text>
    <text x="192" y="165" fill="#fff" font-size="8" text-anchor="start" transform="rotate(-90 192 165)">ENB</text>
  <!-- Capacitors -->
  <circle cx="70" cy="260" r="12" fill="#111"/>
  <circle cx="230" cy="260" r="12" fill="#111"/>
  </svg>
