<svg xmlns="http://www.w3.org/2000/svg" viewBox="0 0 200 90" width="200" height="90">
  <defs>
    <linearGradient id="pcb-lcd" x1="0" y1="0" x2="0" y2="1"><stop offset="0%" stop-color="#1E88E5"/><stop offset="100%" stop-color="#0D47A1"/></linearGradient>
    <linearGradient id="pcbTeal-lcd" x1="0" y1="0" x2="0" y2="1"><stop offset="0%" stop-color="#00939d"/><stop offset="100%" stop-color="#007982"/></linearGradient>
    <linearGradient id="metal-lcd" x1="0" y1="0" x2="0" y2="1"><stop offset="0%" stop-color="#eee"/><stop offset="50%" stop-color="#fff"/><stop offset="100%" stop-color="#999"/></linearGradient>
    <linearGradient id="pin-lcd" x1="0" y1="0" x2="0" y2="1"><stop offset="0%" stop-color="#f5f5f5"/><stop offset="100%" stop-color="#bdbdbd"/></linearGradient>
    <filter id="sh-lcd" x="-8%" y="-8%" width="116%" height="116%"><feDropShadow dx="1" dy="2" stdDeviation="2.5" flood-opacity="0.28"/></filter>
    <filter id="glow-lcd"><feGaussianBlur stdDeviation="1.5" result="b"/><feMerge><feMergeNode in="b"/><feMergeNode in="SourceGraphic"/></feMerge></filter>
  </defs><rect x="4" y="4" width="192" height="80" rx="4" fill="#2E7D32" stroke="#1B5E20" filter="url(#sh-lcd)"/><rect x="14" y="22" width="172" height="44" rx="2" fill="#1B5E20" stroke="#33691E"/><rect x="18" y="26" width="164" height="18" fill="#A5D6A7" opacity="0.95"/><rect x="18" y="46" width="164" height="18" fill="#A5D6A7" opacity="0.95"/><text x="100" y="39" text-anchor="middle" fill="#1B5E20" font-family="monospace" font-size="11">Hello World!</text><text x="100" y="59" text-anchor="middle" fill="#1B5E20" font-family="monospace" font-size="11">TinkerAI</text><circle cx="16" cy="10" r="3" fill="#ddd"/><circle cx="16" cy="10" r="1.5" fill="#111"/><text x="16" y="18" text-anchor="middle" fill="#fff" font-size="5" font-weight="bold">1</text><circle cx="27" cy="10" r="3" fill="#ddd"/><circle cx="27" cy="10" r="1.5" fill="#111"/><text x="27" y="18" text-anchor="middle" fill="#fff" font-size="5" font-weight="bold">2</text><circle cx="38" cy="10" r="3" fill="#ddd"/><circle cx="38" cy="10" r="1.5" fill="#111"/><text x="38" y="18" text-anchor="middle" fill="#fff" font-size="5" font-weight="bold">3</text><circle cx="49" cy="10" r="3" fill="#ddd"/><circle cx="49" cy="10" r="1.5" fill="#111"/><text x="49" y="18" text-anchor="middle" fill="#fff" font-size="5" font-weight="bold">4</text><circle cx="60" cy="10" r="3" fill="#ddd"/><circle cx="60" cy="10" r="1.5" fill="#111"/><text x="60" y="18" text-anchor="middle" fill="#fff" font-size="5" font-weight="bold">5</text><circle cx="71" cy="10" r="3" fill="#ddd"/><circle cx="71" cy="10" r="1.5" fill="#111"/><text x="71" y="18" text-anchor="middle" fill="#fff" font-size="5" font-weight="bold">6</text><circle cx="82" cy="10" r="3" fill="#ddd"/><circle cx="82" cy="10" r="1.5" fill="#111"/><text x="82" y="18" text-anchor="middle" fill="#fff" font-size="5" font-weight="bold">7</text><circle cx="93" cy="10" r="3" fill="#ddd"/><circle cx="93" cy="10" r="1.5" fill="#111"/><text x="93" y="18" text-anchor="middle" fill="#fff" font-size="5" font-weight="bold">8</text><circle cx="104" cy="10" r="3" fill="#ddd"/><circle cx="104" cy="10" r="1.5" fill="#111"/><text x="104" y="18" text-anchor="middle" fill="#fff" font-size="5" font-weight="bold">9</text><circle cx="115" cy="10" r="3" fill="#ddd"/><circle cx="115" cy="10" r="1.5" fill="#111"/><text x="115" y="18" text-anchor="middle" fill="#fff" font-size="5" font-weight="bold">10</text><circle cx="126" cy="10" r="3" fill="#ddd"/><circle cx="126" cy="10" r="1.5" fill="#111"/><text x="126" y="18" text-anchor="middle" fill="#fff" font-size="5" font-weight="bold">11</text><circle cx="137" cy="10" r="3" fill="#ddd"/><circle cx="137" cy="10" r="1.5" fill="#111"/><text x="137" y="18" text-anchor="middle" fill="#fff" font-size="5" font-weight="bold">12</text><circle cx="148" cy="10" r="3" fill="#ddd"/><circle cx="148" cy="10" r="1.5" fill="#111"/><text x="148" y="18" text-anchor="middle" fill="#fff" font-size="5" font-weight="bold">13</text><circle cx="159" cy="10" r="3" fill="#ddd"/><circle cx="159" cy="10" r="1.5" fill="#111"/><text x="159" y="18" text-anchor="middle" fill="#fff" font-size="5" font-weight="bold">14</text><circle cx="170" cy="10" r="3" fill="#ddd"/><circle cx="170" cy="10" r="1.5" fill="#111"/><text x="170" y="18" text-anchor="middle" fill="#fff" font-size="5" font-weight="bold">15</text><circle cx="181" cy="10" r="3" fill="#ddd"/><circle cx="181" cy="10" r="1.5" fill="#111"/><text x="181" y="18" text-anchor="middle" fill="#fff" font-size="5" font-weight="bold">16</text><text x="100" y="86" text-anchor="middle" fill="#fff" font-size="8">LCD 16x2</text></svg>
