<svg xmlns="http://www.w3.org/2000/svg" viewBox="0 0 200 90" width="200" height="90">
  <defs>
    <linearGradient id="pcb-lcd" x1="0" y1="0" x2="0" y2="1"><stop offset="0%" stop-color="#1E88E5"/><stop offset="100%" stop-color="#0D47A1"/></linearGradient>
    <linearGradient id="pcbTeal-lcd" x1="0" y1="0" x2="0" y2="1"><stop offset="0%" stop-color="#00939d"/><stop offset="100%" stop-color="#007982"/></linearGradient>
    <linearGradient id="metal-lcd" x1="0" y1="0" x2="0" y2="1"><stop offset="0%" stop-color="#eee"/><stop offset="50%" stop-color="#fff"/><stop offset="100%" stop-color="#999"/></linearGradient>
    <linearGradient id="pin-lcd" x1="0" y1="0" x2="0" y2="1"><stop offset="0%" stop-color="#f5f5f5"/><stop offset="100%" stop-color="#bdbdbd"/></linearGradient>
    <filter id="sh-lcd" x="-8%" y="-8%" width="116%" height="116%"><feDropShadow dx="1" dy="2" stdDeviation="2.5" flood-opacity="0.28"/></filter>
    <filter id="glow-lcd"><feGaussianBlur stdDeviation="1.5" result="b"/><feMerge><feMergeNode in="b"/><feMergeNode in="SourceGraphic"/></feMerge></filter>
  </defs><rect x="4" y="12" width="192" height="72" rx="4" fill="#2E7D32" stroke="#1B5E20" filter="url(#sh-lcd)"/><rect x="14" y="22" width="172" height="44" rx="2" fill="#1B5E20" stroke="#33691E"/><rect x="18" y="26" width="164" height="18" fill="#A5D6A7" opacity="0.95"/><rect x="18" y="46" width="164" height="18" fill="#A5D6A7" opacity="0.95"/><text x="100" y="39" text-anchor="middle" fill="#1B5E20" font-family="monospace" font-size="11">Hello World!</text><text x="100" y="59" text-anchor="middle" fill="#1B5E20" font-family="monospace" font-size="11">TinkerAI</text><rect x="10" y="6" width="180" height="8" fill="#111"/><rect x="14" y="7" width="4" height="6" fill="#ddd"/><rect x="25" y="7" width="4" height="6" fill="#ddd"/><rect x="36" y="7" width="4" height="6" fill="#ddd"/><rect x="47" y="7" width="4" height="6" fill="#ddd"/><rect x="58" y="7" width="4" height="6" fill="#ddd"/><rect x="69" y="7" width="4" height="6" fill="#ddd"/><rect x="80" y="7" width="4" height="6" fill="#ddd"/><rect x="91" y="7" width="4" height="6" fill="#ddd"/><rect x="102" y="7" width="4" height="6" fill="#ddd"/><rect x="113" y="7" width="4" height="6" fill="#ddd"/><rect x="124" y="7" width="4" height="6" fill="#ddd"/><rect x="135" y="7" width="4" height="6" fill="#ddd"/><rect x="146" y="7" width="4" height="6" fill="#ddd"/><rect x="157" y="7" width="4" height="6" fill="#ddd"/><rect x="168" y="7" width="4" height="6" fill="#ddd"/><rect x="179" y="7" width="4" height="6" fill="#ddd"/><text x="100" y="86" text-anchor="middle" fill="#fff" font-size="8">LCD 16x2</text></svg>
