<svg xmlns="http://www.w3.org/2000/svg" viewBox="0 0 150 100" width="150" height="100">
  <defs><filter id="sh"><feDropShadow dx="1" dy="2" stdDeviation="2.5" flood-opacity="0.3"/></filter>
  <linearGradient id="bg" x1="0" y1="0" x2="0" y2="1">
    <stop offset="0%" stop-color="#212121"/><stop offset="100%" stop-color="#111111"/>
  </linearGradient></defs>
  <rect x="2" y="2" width="146" height="96" rx="4" fill="url(#bg)" stroke="#111" stroke-width="2" filter="url(#sh)"/>
  <!-- LM2596 SOT-263-5 chip with heatsink fins -->
  <rect x="46" y="18" width="58" height="42" rx="2" fill="#333" stroke="#555"/>
  <rect x="52" y="10" width="46" height="14" rx="1" fill="#888" stroke="#666"/>
  <line x1="60" y1="10" x2="60" y2="24" stroke="#666" stroke-width="2.5"/>
  <line x1="70" y1="10" x2="70" y2="24" stroke="#666" stroke-width="2.5"/>
  <line x1="80" y1="10" x2="80" y2="24" stroke="#666" stroke-width="2.5"/>
  <line x1="90" y1="10" x2="90" y2="24" stroke="#666" stroke-width="2.5"/>
  <text x="75" y="38" text-anchor="middle" font-size="7.5" fill="#888" font-family="monospace">LM2596</text>
  <text x="75" y="50" text-anchor="middle" font-size="5.5" fill="#666" font-family="monospace">Buck 3A</text>
  <!-- SS34 Schottky diode -->
  <rect x="10" y="30" width="28" height="14" rx="2" fill="#1a1a1a" stroke="#333"/>
  <text x="24" y="40" text-anchor="middle" font-size="5" fill="#888" font-family="monospace">SS34</text>
  <!-- 100µH inductor -->
  <rect x="108" y="28" width="32" height="18" rx="2" fill="#444" stroke="#333"/>
  <path d="M112,37 a5,4 0 0,1 10,0 a5,4 0 0,1 10,0 a5,4 0 0,1 8,0" stroke="#c8a800" stroke-width="2" fill="none"/>
  <!-- Electrolytics -->
  <rect x="10" y="52" width="14" height="22" rx="3" fill="#111" stroke="#333"/>
  <rect x="28" y="52" width="14" height="22" rx="3" fill="#111" stroke="#333"/>
  <text x="21" y="50" text-anchor="middle" font-size="4.5" fill="#aaa" font-family="Arial">100µF</text>
  <!-- Multi-turn trim pot -->
  <circle cx="120" cy="72" r="11" fill="#e0e0e0" stroke="#aaa" stroke-width="1.5"/>
  <circle cx="120" cy="72" r="7" fill="#ccc"/>
  <line x1="120" y1="61" x2="120" y2="68" stroke="#555" stroke-width="2.5"/>
  <text x="120" y="88" text-anchor="middle" font-size="5" fill="#aaa" font-family="Arial">ADJ VOLT</text>
  <!-- Input screw terminal -->
  <rect x="2" y="62" width="40" height="30" rx="2" fill="#333" stroke="#555"/>
  <circle cx="12" cy="72" r="6" fill="#f44336" stroke="#c62828"/>
  <circle cx="30" cy="72" r="6" fill="#111" stroke="#333"/>
  <text x="12" y="84" text-anchor="middle" font-size="5" fill="#aaa" font-family="Arial">IN+</text>
  <text x="30" y="84" text-anchor="middle" font-size="5" fill="#aaa" font-family="Arial">IN-</text>
  <text x="75" y="96" text-anchor="middle" font-size="8.5" font-weight="bold" fill="white" font-family="Arial">LM2596 Buck Converter</text>
</svg>