<svg xmlns="http://www.w3.org/2000/svg" viewBox="0 0 110 125" width="110" height="125">
<rect x="12" y="10" width="86" height="105" rx="12" fill="#4CAF50" stroke="#388E3C"/>
<rect x="24" y="24" width="62" height="48" rx="3" fill="#111"/>
<g fill="#555"><circle cx="30" cy="32" r="2.5"/><circle cx="42" cy="32" r="2.5"/><circle cx="54" cy="32" r="2.5"/><circle cx="66" cy="32" r="2.5"/><circle cx="78" cy="32" r="2.5"/><circle cx="30" cy="42" r="2.5"/><circle cx="42" cy="42" r="2.5"/><circle cx="54" cy="42" r="2.5"/><circle cx="66" cy="42" r="2.5"/><circle cx="78" cy="42" r="2.5"/><circle cx="30" cy="52" r="2.5"/><circle cx="42" cy="52" r="2.5"/><circle cx="54" cy="52" r="2.5"/><circle cx="66" cy="52" r="2.5"/><circle cx="78" cy="52" r="2.5"/><circle cx="30" cy="62" r="2.5"/><circle cx="42" cy="62" r="2.5"/><circle cx="54" cy="62" r="2.5"/><circle cx="66" cy="62" r="2.5"/><circle cx="78" cy="62" r="2.5"/><circle cx="30" cy="72" r="2.5"/><circle cx="42" cy="72" r="2.5"/><circle cx="54" cy="72" r="2.5"/><circle cx="66" cy="72" r="2.5"/><circle cx="78" cy="72" r="2.5"/></g>
<text x="55" y="95" text-anchor="middle" fill="#fff" font-size="9" font-weight="bold">micro:bit</text>
<circle cx="20" cy="110" r="3" fill="#E0E0E0"/><text x="20" y="120" text-anchor="middle" fill="#111" font-size="6">0</text>
<circle cx="37" cy="110" r="3" fill="#E0E0E0"/><text x="37" y="120" text-anchor="middle" fill="#111" font-size="6">1</text>
<circle cx="55" cy="110" r="3" fill="#E0E0E0"/><text x="55" y="120" text-anchor="middle" fill="#111" font-size="6">2</text>
<circle cx="72" cy="110" r="3" fill="#E0E0E0"/><text x="72" y="120" text-anchor="middle" fill="#111" font-size="6">3V</text>
<circle cx="90" cy="110" r="3" fill="#E0E0E0"/><text x="90" y="120" text-anchor="middle" fill="#111" font-size="6">GND</text>
</svg>
