<svg xmlns="http://www.w3.org/2000/svg" viewBox="0 0 130 78" width="130" height="78">
  <defs>
    <linearGradient id="pcb-mpu" x1="0" y1="0" x2="0" y2="1"><stop offset="0%" stop-color="#1E88E5"/><stop offset="100%" stop-color="#0D47A1"/></linearGradient>
    <linearGradient id="pcbTeal-mpu" x1="0" y1="0" x2="0" y2="1"><stop offset="0%" stop-color="#00939d"/><stop offset="100%" stop-color="#007982"/></linearGradient>
    <linearGradient id="metal-mpu" x1="0" y1="0" x2="0" y2="1"><stop offset="0%" stop-color="#eee"/><stop offset="50%" stop-color="#fff"/><stop offset="100%" stop-color="#999"/></linearGradient>
    <linearGradient id="pin-mpu" x1="0" y1="0" x2="0" y2="1"><stop offset="0%" stop-color="#f5f5f5"/><stop offset="100%" stop-color="#bdbdbd"/></linearGradient>
    <filter id="sh-mpu" x="-8%" y="-8%" width="116%" height="116%"><feDropShadow dx="1" dy="2" stdDeviation="2.5" flood-opacity="0.28"/></filter>
    <filter id="glow-mpu"><feGaussianBlur stdDeviation="1.5" result="b"/><feMerge><feMergeNode in="b"/><feMergeNode in="SourceGraphic"/></feMerge></filter>
  </defs><rect x="3" y="3" width="124" height="72" rx="4" fill="url(#pcb-mpu)" stroke="#0a3d7a" stroke-width="1.5" filter="url(#sh-mpu)"/><circle cx="15.125" cy="10" r="4" fill="url(#pin-mpu)"/><circle cx="15.125" cy="10" r="2.5" fill="#111"/><text x="15.125" y="20" text-anchor="middle" fill="#fff" font-size="5" font-weight="bold" font-family="Arial,sans-serif">VCC</text><circle cx="29.375" cy="10" r="4" fill="url(#pin-mpu)"/><circle cx="29.375" cy="10" r="2.5" fill="#111"/><text x="29.375" y="20" text-anchor="middle" fill="#fff" font-size="5" font-weight="bold" font-family="Arial,sans-serif">GND</text><circle cx="43.625" cy="10" r="4" fill="url(#pin-mpu)"/><circle cx="43.625" cy="10" r="2.5" fill="#111"/><text x="43.625" y="20" text-anchor="middle" fill="#fff" font-size="5" font-weight="bold" font-family="Arial,sans-serif">SCL</text><circle cx="57.875" cy="10" r="4" fill="url(#pin-mpu)"/><circle cx="57.875" cy="10" r="2.5" fill="#111"/><text x="57.875" y="20" text-anchor="middle" fill="#fff" font-size="5" font-weight="bold" font-family="Arial,sans-serif">SDA</text><circle cx="72.125" cy="10" r="4" fill="url(#pin-mpu)"/><circle cx="72.125" cy="10" r="2.5" fill="#111"/><text x="72.125" y="20" text-anchor="middle" fill="#fff" font-size="5" font-weight="bold" font-family="Arial,sans-serif">XDA</text><circle cx="86.375" cy="10" r="4" fill="url(#pin-mpu)"/><circle cx="86.375" cy="10" r="2.5" fill="#111"/><text x="86.375" y="20" text-anchor="middle" fill="#fff" font-size="5" font-weight="bold" font-family="Arial,sans-serif">XCL</text><circle cx="100.625" cy="10" r="4" fill="url(#pin-mpu)"/><circle cx="100.625" cy="10" r="2.5" fill="#111"/><text x="100.625" y="20" text-anchor="middle" fill="#fff" font-size="5" font-weight="bold" font-family="Arial,sans-serif">AD0</text><circle cx="114.875" cy="10" r="4" fill="url(#pin-mpu)"/><circle cx="114.875" cy="10" r="2.5" fill="#111"/><text x="114.875" y="20" text-anchor="middle" fill="#fff" font-size="5" font-weight="bold" font-family="Arial,sans-serif">INT</text><rect x="32.5" y="31.200000000000003" width="65" height="27.299999999999997" rx="2" fill="#111" stroke="#333"/><text x="65" y="45.239999999999995" text-anchor="middle" fill="#666" font-size="7" font-family="monospace">MPU6050</text><text x="65" y="74" text-anchor="middle" fill="#fff" font-size="8" font-weight="bold" font-family="Arial,sans-serif" opacity="0.9">MPU-6050</text></svg>
