<svg xmlns="http://www.w3.org/2000/svg" viewBox="0 0 130 95" width="130" height="95">
  <defs>
    <filter id="sh-mq135-air" x="-8%" y="-8%" width="116%" height="116%"><feDropShadow dx="1" dy="2" stdDeviation="2.5" flood-opacity="0.28"/></filter>
  </defs>
  <rect x="5" y="15" width="120" height="75" rx="4" fill="#1E88E5" stroke="#0a3d7a" stroke-width="1.5" filter="url(#sh-mq135-air)"/>
  
  <!-- PIN HEADER BLACK BASE -->
  <rect x="33.0" y="6" width="60" height="14" rx="2" fill="#1a1a1a" stroke="#333"/>
  
        <rect x="37.0" y="7" width="8" height="10" fill="#bdbdbd" rx="1"/>
        <text x="41.0" y="5" text-anchor="middle" fill="#fff" font-size="5" font-weight="bold" font-family="Arial,sans-serif">VCC</text>
        
        <rect x="51.0" y="7" width="8" height="10" fill="#bdbdbd" rx="1"/>
        <text x="55.0" y="5" text-anchor="middle" fill="#fff" font-size="5" font-weight="bold" font-family="Arial,sans-serif">GND</text>
        
        <rect x="65.0" y="7" width="8" height="10" fill="#bdbdbd" rx="1"/>
        <text x="69.0" y="5" text-anchor="middle" fill="#fff" font-size="5" font-weight="bold" font-family="Arial,sans-serif">AO</text>
        
        <rect x="79.0" y="7" width="8" height="10" fill="#bdbdbd" rx="1"/>
        <text x="83.0" y="5" text-anchor="middle" fill="#fff" font-size="5" font-weight="bold" font-family="Arial,sans-serif">DO</text>
        
  
  <!-- CUSTOM GRAPHICS -->
  <circle cx="65" cy="50" r="20" fill="#c0c0c0" stroke="#909090" stroke-width="2"/><circle cx="65" cy="50" r="14" fill="#333" opacity="0.2"/><path d="M55,50 h20 M65,40 v20 M58,43 l14,14 M58,57 l14,-14" stroke="#a0a0a0" stroke-width="1"/>
  
  <!-- COMPONENT NAME -->
  <text x="65" y="85" text-anchor="middle" fill="#fff" font-size="8" font-weight="bold" font-family="Arial,sans-serif" opacity="0.9">MQ-135</text>
</svg>