<svg xmlns="http://www.w3.org/2000/svg" viewBox="0 0 130 110" width="130" height="110">
  <defs><filter id="sh"><feDropShadow dx="1" dy="2" stdDeviation="2.5" flood-opacity="0.3"/></filter>
  <linearGradient id="bg" x1="0" y1="0" x2="0" y2="1">
    <stop offset="0%" stop-color="#1565C0"/><stop offset="100%" stop-color="#0a3d7a"/>
  </linearGradient></defs>
  <rect x="3" y="22" width="124" height="84" rx="4" fill="url(#bg)" stroke="#0a3d7a" stroke-width="1.5" filter="url(#sh)"/>
  <!-- Metal dome sensor (cylindrical) -->
  <circle cx="45" cy="65" r="30" fill="#c8a800" stroke="#a08800" stroke-width="2"/>
  <circle cx="45" cy="65" r="23" fill="#b89000" stroke="#907000" stroke-width="1.5"/>
  <circle cx="45" cy="65" r="15" fill="#a07800" stroke="#806000" stroke-width="1"/>
  <!-- Mesh cross lines on dome -->
  <line x1="22" y1="65" x2="68" y2="65" stroke="#806000" stroke-width="1.5"/>
  <line x1="45" y1="42" x2="45" y2="88" stroke="#806000" stroke-width="1.5"/>
  <line x1="28" y1="48" x2="62" y2="82" stroke="#806000" stroke-width="1" opacity="0.5"/>
  <line x1="28" y1="82" x2="62" y2="48" stroke="#806000" stroke-width="1" opacity="0.5"/>
  <!-- LM393 comparator chip -->
  <rect x="82" y="48" width="36" height="26" rx="2" fill="#111" stroke="#333"/>
  <text x="100" y="62" text-anchor="middle" font-size="6" fill="#666" font-family="monospace">LM393</text>
  <!-- Blue LED indicator -->
  <circle cx="100" cy="83" r="5" fill="#2196f3" opacity="0.9"/>
  <!-- Trim pot -->
  <circle cx="82" cy="83" r="7" fill="#e0e0e0" stroke="#bbb" stroke-width="1.5"/>
  <line x1="82" y1="76" x2="82" y2="82" stroke="#555" stroke-width="2.5"/>
  <!-- 4-pin header: VCC GND AO DO -->
  <rect x="18" y="8" width="94" height="16" rx="2" fill="#1a1a1a" stroke="#333"/>
  <rect x="22" y="10" width="10" height="12" rx="1" fill="#c8b400"/>
  <rect x="38" y="10" width="10" height="12" rx="1" fill="#c8b400"/>
  <rect x="54" y="10" width="10" height="12" rx="1" fill="#c8b400"/>
  <rect x="70" y="10" width="10" height="12" rx="1" fill="#c8b400"/>
  <text x="27" y="5" text-anchor="middle" font-size="6" fill="#ddd" font-family="Arial" font-weight="bold">VCC</text>
  <text x="43" y="5" text-anchor="middle" font-size="6" fill="#ddd" font-family="Arial" font-weight="bold">GND</text>
  <text x="59" y="5" text-anchor="middle" font-size="6" fill="#ddd" font-family="Arial" font-weight="bold">AO</text>
  <text x="75" y="5" text-anchor="middle" font-size="6" fill="#ddd" font-family="Arial" font-weight="bold">DO</text>
  <text x="65" y="100" text-anchor="middle" font-size="10" font-weight="bold" fill="white" font-family="Arial">MQ-3 Sensor</text>
</svg>