<svg xmlns="http://www.w3.org/2000/svg" viewBox="0 0 130 95" width="130" height="95">
  <defs>
    <filter id="sh-rain-sensor" x="-8%" y="-8%" width="116%" height="116%"><feDropShadow dx="1" dy="2" stdDeviation="2.5" flood-opacity="0.28"/></filter>
  </defs>
  <rect x="5" y="15" width="120" height="75" rx="4" fill="#1976d2" stroke="#0d47a1" stroke-width="1.5" filter="url(#sh-rain-sensor)"/>
  
  <!-- PIN HEADER BLACK BASE -->
  <rect x="33.0" y="6" width="60" height="14" rx="2" fill="#1a1a1a" stroke="#333"/>
  
        <rect x="37.0" y="7" width="8" height="10" fill="#bdbdbd" rx="1"/>
        <text x="41.0" y="5" text-anchor="middle" fill="#fff" font-size="5" font-weight="bold" font-family="Arial,sans-serif">VCC</text>
        
        <rect x="51.0" y="7" width="8" height="10" fill="#bdbdbd" rx="1"/>
        <text x="55.0" y="5" text-anchor="middle" fill="#fff" font-size="5" font-weight="bold" font-family="Arial,sans-serif">GND</text>
        
        <rect x="65.0" y="7" width="8" height="10" fill="#bdbdbd" rx="1"/>
        <text x="69.0" y="5" text-anchor="middle" fill="#fff" font-size="5" font-weight="bold" font-family="Arial,sans-serif">AO</text>
        
        <rect x="79.0" y="7" width="8" height="10" fill="#bdbdbd" rx="1"/>
        <text x="83.0" y="5" text-anchor="middle" fill="#fff" font-size="5" font-weight="bold" font-family="Arial,sans-serif">DO</text>
        
  
  <!-- CUSTOM GRAPHICS -->
  <rect x="40" y="30" width="50" height="40" fill="#2196f3"/><path d="M45,40 l40,0 M45,50 l40,0 M45,60 l40,0" stroke="#fff" stroke-width="2"/>
  
  <!-- COMPONENT NAME -->
  <text x="65" y="85" text-anchor="middle" fill="#fff" font-size="8" font-weight="bold" font-family="Arial,sans-serif" opacity="0.9">RAIN SENSOR</text>
</svg>