<svg xmlns="http://www.w3.org/2000/svg" viewBox="0 0 120 95" width="120" height="95">
  <defs>
    <linearGradient id="pcb-srv" x1="0" y1="0" x2="0" y2="1"><stop offset="0%" stop-color="#1E88E5"/><stop offset="100%" stop-color="#0D47A1"/></linearGradient>
    <linearGradient id="pcbTeal-srv" x1="0" y1="0" x2="0" y2="1"><stop offset="0%" stop-color="#00939d"/><stop offset="100%" stop-color="#007982"/></linearGradient>
    <linearGradient id="metal-srv" x1="0" y1="0" x2="0" y2="1"><stop offset="0%" stop-color="#eee"/><stop offset="50%" stop-color="#fff"/><stop offset="100%" stop-color="#999"/></linearGradient>
    <linearGradient id="pin-srv" x1="0" y1="0" x2="0" y2="1"><stop offset="0%" stop-color="#f5f5f5"/><stop offset="100%" stop-color="#bdbdbd"/></linearGradient>
    <filter id="sh-srv" x="-8%" y="-8%" width="116%" height="116%"><feDropShadow dx="1" dy="2" stdDeviation="2.5" flood-opacity="0.28"/></filter>
    <filter id="glow-srv"><feGaussianBlur stdDeviation="1.5" result="b"/><feMerge><feMergeNode in="b"/><feMergeNode in="SourceGraphic"/></feMerge></filter>
  </defs><rect x="8" y="35" width="72" height="48" rx="6" fill="#1565C0" stroke="#0D47A1" filter="url(#sh-srv)"/><text x="44" y="65" text-anchor="middle" fill="#fff" font-size="8" font-weight="bold">SG90</text><circle cx="92" cy="42" r="22" fill="#E0E0E0" stroke="#9E9E9E" stroke-width="2"/><circle cx="92" cy="42" r="8" fill="#757575"/><rect x="88" y="12" width="24" height="14" rx="2" fill="#9E9E9E" stroke="#616161"/><rect x="92" y="8" width="16" height="8" rx="1" fill="#BDBDBD"/><rect x="4" y="38" width="6" height="8" fill="#ddd"/><text x="1" y="44" text-anchor="end" fill="#333" font-size="6" font-weight="bold">SIG</text><rect x="4" y="52" width="6" height="8" fill="#ddd"/><text x="1" y="58" text-anchor="end" fill="#333" font-size="6" font-weight="bold">5V</text><rect x="4" y="66" width="6" height="8" fill="#ddd"/><text x="1" y="72" text-anchor="end" fill="#333" font-size="6" font-weight="bold">GND</text></svg>
