<svg xmlns="http://www.w3.org/2000/svg" viewBox="0 0 120 90" width="120" height="90">
  <defs><filter id="sh"><feDropShadow dx="1" dy="2" stdDeviation="2.5" flood-opacity="0.3"/></filter>
  <linearGradient id="bg" x1="0" y1="0" x2="0" y2="1">
    <stop offset="0%" stop-color="#283593"/><stop offset="100%" stop-color="#1a237e"/>
  </linearGradient></defs>
  <rect x="3" y="18" width="114" height="68" rx="4" fill="url(#bg)" stroke="#1a237e" stroke-width="1.5" filter="url(#sh)"/>
  <!-- VL53L0X chip with two optical windows -->
  <rect x="28" y="34" width="64" height="34" rx="2" fill="#111" stroke="#333" stroke-width="1.5"/>
  <!-- VCSEL emitter window -->
  <circle cx="45" cy="51" r="10" fill="#1a1a1a" stroke="#555"/>
  <circle cx="45" cy="51" r="6" fill="#f44336" opacity="0.7"/>
  <!-- SPAD detector window -->
  <circle cx="75" cy="51" r="10" fill="#1a1a1a" stroke="#555"/>
  <circle cx="75" cy="51" r="6" fill="#9c27b0" opacity="0.7"/>
  <!-- ToF laser lines -->
  <line x1="36" y1="30" x2="20" y2="20" stroke="#f44336" stroke-width="1" stroke-dasharray="2,2"/>
  <line x1="45" y1="28" x2="45" y2="18" stroke="#f44336" stroke-width="1" stroke-dasharray="2,2"/>
  <line x1="54" y1="30" x2="70" y2="20" stroke="#f44336" stroke-width="1" stroke-dasharray="2,2"/>
  <!-- 6-pin header: VIN GND SCL SDA XSHUT GPIO1 -->
  <rect x="4" y="6" width="112" height="14" rx="2" fill="#1a1a1a" stroke="#333"/>
  <rect x="8" y="8" width="10" height="10" rx="1" fill="#c8b400"/>
  <rect x="22" y="8" width="10" height="10" rx="1" fill="#c8b400"/>
  <rect x="36" y="8" width="10" height="10" rx="1" fill="#c8b400"/>
  <rect x="50" y="8" width="10" height="10" rx="1" fill="#c8b400"/>
  <rect x="64" y="8" width="10" height="10" rx="1" fill="#c8b400"/>
  <rect x="78" y="8" width="10" height="10" rx="1" fill="#c8b400"/>
  <text x="13" y="3" text-anchor="middle" font-size="4.5" fill="#ddd" font-family="Arial" font-weight="bold">VIN</text>
  <text x="27" y="3" text-anchor="middle" font-size="4.5" fill="#ddd" font-family="Arial" font-weight="bold">GND</text>
  <text x="41" y="3" text-anchor="middle" font-size="4.5" fill="#ddd" font-family="Arial" font-weight="bold">SCL</text>
  <text x="55" y="3" text-anchor="middle" font-size="4.5" fill="#ddd" font-family="Arial" font-weight="bold">SDA</text>
  <text x="69" y="3" text-anchor="middle" font-size="4.5" fill="#ddd" font-family="Arial" font-weight="bold">XSH</text>
  <text x="83" y="3" text-anchor="middle" font-size="4.5" fill="#ddd" font-family="Arial" font-weight="bold">GP1</text>
  <text x="60" y="80" text-anchor="middle" font-size="9" font-weight="bold" fill="white" font-family="Arial">VL53L0X ToF Sensor</text>
</svg>