<svg xmlns="http://www.w3.org/2000/svg" viewBox="0 0 130 95" width="130" height="95">
  <defs>
    <filter id="sh-water-level" x="-8%" y="-8%" width="116%" height="116%"><feDropShadow dx="1" dy="2" stdDeviation="2.5" flood-opacity="0.28"/></filter>
  </defs>
  <rect x="5" y="15" width="120" height="75" rx="4" fill="#e53935" stroke="#c62828" stroke-width="1.5" filter="url(#sh-water-level)"/>
  
  <!-- PIN HEADER BLACK BASE -->
  <rect x="40.0" y="6" width="46" height="14" rx="2" fill="#1a1a1a" stroke="#333"/>
  
        <rect x="44.0" y="7" width="8" height="10" fill="#bdbdbd" rx="1"/>
        <text x="48.0" y="5" text-anchor="middle" fill="#fff" font-size="5" font-weight="bold" font-family="Arial,sans-serif">SIG</text>
        
        <rect x="58.0" y="7" width="8" height="10" fill="#bdbdbd" rx="1"/>
        <text x="62.0" y="5" text-anchor="middle" fill="#fff" font-size="5" font-weight="bold" font-family="Arial,sans-serif">VCC</text>
        
        <rect x="72.0" y="7" width="8" height="10" fill="#bdbdbd" rx="1"/>
        <text x="76.0" y="5" text-anchor="middle" fill="#fff" font-size="5" font-weight="bold" font-family="Arial,sans-serif">GND</text>
        
  
  <!-- CUSTOM GRAPHICS -->
  <rect x="15" y="30" width="100" height="45" fill="#c62828"/><path d="M25,35 v35 M35,35 v35 M45,35 v35 M55,35 v35 M65,35 v35 M75,35 v35 M85,35 v35 M95,35 v35 M105,35 v35" stroke="#ffd700" stroke-width="2"/>
  
  <!-- COMPONENT NAME -->
  <text x="65" y="85" text-anchor="middle" fill="#fff" font-size="8" font-weight="bold" font-family="Arial,sans-serif" opacity="0.9">WATER LEVEL</text>
</svg>