<svg xmlns="http://www.w3.org/2000/svg" viewBox="0 0 360 220" width="360" height="220">
  <defs>
    <linearGradient id="pcb-mega" x1="0" y1="0" x2="0" y2="1"><stop offset="0%" stop-color="#1E88E5"/><stop offset="100%" stop-color="#0D47A1"/></linearGradient>
    <linearGradient id="pcbTeal-mega" x1="0" y1="0" x2="0" y2="1"><stop offset="0%" stop-color="#00939d"/><stop offset="100%" stop-color="#007982"/></linearGradient>
    <linearGradient id="metal-mega" x1="0" y1="0" x2="0" y2="1"><stop offset="0%" stop-color="#eee"/><stop offset="50%" stop-color="#fff"/><stop offset="100%" stop-color="#999"/></linearGradient>
    <linearGradient id="pin-mega" x1="0" y1="0" x2="0" y2="1"><stop offset="0%" stop-color="#f5f5f5"/><stop offset="100%" stop-color="#bdbdbd"/></linearGradient>
    <filter id="sh-mega" x="-8%" y="-8%" width="116%" height="116%"><feDropShadow dx="1" dy="2" stdDeviation="2.5" flood-opacity="0.28"/></filter>
    <filter id="glow-mega"><feGaussianBlur stdDeviation="1.5" result="b"/><feMerge><feMergeNode in="b"/><feMergeNode in="SourceGraphic"/></feMerge></filter>
  </defs><path d="M 10 2 L 330 2 A 15 15 0 0 1 345 17 L 345 203 A 15 15 0 0 1 330 218 L 25 218 A 15 15 0 0 1 10 203 L 10 17 A 15 15 0 0 1 10 2 Z" fill="url(#pcbTeal-mega)" stroke="#00a8b0" stroke-width="2" filter="url(#sh-mega)"/><text x="180" y="100" text-anchor="middle" fill="#fff" font-size="22" font-weight="bold">ARDUINO MEGA</text><rect x="60" y="8" width="280" height="12" fill="#111"/><rect x="60" y="200" width="280" height="12" fill="#111"/><rect x="68" y="9" width="5" height="10" fill="url(#pin-mega)"/><text x="70.5" y="28" text-anchor="middle" fill="#fff" font-size="5" font-weight="bold" font-family="Arial">AREF</text><rect x="77.5" y="9" width="5" height="10" fill="url(#pin-mega)"/><text x="80" y="28" text-anchor="middle" fill="#fff" font-size="5" font-weight="bold" font-family="Arial">GND</text><rect x="87" y="9" width="5" height="10" fill="url(#pin-mega)"/><text x="89.5" y="28" text-anchor="middle" fill="#fff" font-size="5" font-weight="bold" font-family="Arial">D13</text><rect x="96.5" y="9" width="5" height="10" fill="url(#pin-mega)"/><text x="99" y="28" text-anchor="middle" fill="#fff" font-size="5" font-weight="bold" font-family="Arial">D12</text><rect x="106" y="9" width="5" height="10" fill="url(#pin-mega)"/><text x="108.5" y="28" text-anchor="middle" fill="#fff" font-size="5" font-weight="bold" font-family="Arial">D11</text><rect x="115.5" y="9" width="5" height="10" fill="url(#pin-mega)"/><text x="118" y="28" text-anchor="middle" fill="#fff" font-size="5" font-weight="bold" font-family="Arial">D10</text><rect x="125" y="9" width="5" height="10" fill="url(#pin-mega)"/><text x="127.5" y="28" text-anchor="middle" fill="#fff" font-size="5" font-weight="bold" font-family="Arial">D9</text><rect x="134.5" y="9" width="5" height="10" fill="url(#pin-mega)"/><text x="137" y="28" text-anchor="middle" fill="#fff" font-size="5" font-weight="bold" font-family="Arial">D8</text><rect x="144" y="9" width="5" height="10" fill="url(#pin-mega)"/><text x="146.5" y="28" text-anchor="middle" fill="#fff" font-size="5" font-weight="bold" font-family="Arial">D7</text><rect x="153.5" y="9" width="5" height="10" fill="url(#pin-mega)"/><text x="156" y="28" text-anchor="middle" fill="#fff" font-size="5" font-weight="bold" font-family="Arial">D6</text><rect x="163" y="9" width="5" height="10" fill="url(#pin-mega)"/><text x="165.5" y="28" text-anchor="middle" fill="#fff" font-size="5" font-weight="bold" font-family="Arial">D5</text><rect x="172.5" y="9" width="5" height="10" fill="url(#pin-mega)"/><text x="175" y="28" text-anchor="middle" fill="#fff" font-size="5" font-weight="bold" font-family="Arial">D4</text><rect x="182" y="9" width="5" height="10" fill="url(#pin-mega)"/><text x="184.5" y="28" text-anchor="middle" fill="#fff" font-size="5" font-weight="bold" font-family="Arial">D3</text><rect x="191.5" y="9" width="5" height="10" fill="url(#pin-mega)"/><text x="194" y="28" text-anchor="middle" fill="#fff" font-size="5" font-weight="bold" font-family="Arial">D2</text><rect x="201" y="9" width="5" height="10" fill="url(#pin-mega)"/><text x="203.5" y="28" text-anchor="middle" fill="#fff" font-size="5" font-weight="bold" font-family="Arial">D1</text><rect x="210.5" y="9" width="5" height="10" fill="url(#pin-mega)"/><text x="213" y="28" text-anchor="middle" fill="#fff" font-size="5" font-weight="bold" font-family="Arial">D0</text><rect x="220" y="9" width="5" height="10" fill="url(#pin-mega)"/><text x="222.5" y="28" text-anchor="middle" fill="#fff" font-size="5" font-weight="bold" font-family="Arial">TX1</text><rect x="229.5" y="9" width="5" height="10" fill="url(#pin-mega)"/><text x="232" y="28" text-anchor="middle" fill="#fff" font-size="5" font-weight="bold" font-family="Arial">RX1</text><rect x="239" y="9" width="5" height="10" fill="url(#pin-mega)"/><text x="241.5" y="28" text-anchor="middle" fill="#fff" font-size="5" font-weight="bold" font-family="Arial">TX2</text><rect x="248.5" y="9" width="5" height="10" fill="url(#pin-mega)"/><text x="251" y="28" text-anchor="middle" fill="#fff" font-size="5" font-weight="bold" font-family="Arial">RX2</text><rect x="258" y="9" width="5" height="10" fill="url(#pin-mega)"/><text x="260.5" y="28" text-anchor="middle" fill="#fff" font-size="5" font-weight="bold" font-family="Arial">TX3</text><rect x="267.5" y="9" width="5" height="10" fill="url(#pin-mega)"/><text x="270" y="28" text-anchor="middle" fill="#fff" font-size="5" font-weight="bold" font-family="Arial">RX3</text><rect x="277" y="9" width="5" height="10" fill="url(#pin-mega)"/><text x="279.5" y="28" text-anchor="middle" fill="#fff" font-size="5" font-weight="bold" font-family="Arial">SDA</text><rect x="286.5" y="9" width="5" height="10" fill="url(#pin-mega)"/><text x="289" y="28" text-anchor="middle" fill="#fff" font-size="5" font-weight="bold" font-family="Arial">SCL</text><rect x="296" y="9" width="5" height="10" fill="url(#pin-mega)"/><text x="298.5" y="28" text-anchor="middle" fill="#fff" font-size="5" font-weight="bold" font-family="Arial">GND</text><rect x="305.5" y="9" width="5" height="10" fill="url(#pin-mega)"/><text x="308" y="28" text-anchor="middle" fill="#fff" font-size="5" font-weight="bold" font-family="Arial">5V</text><rect x="315" y="9" width="5" height="10" fill="url(#pin-mega)"/><text x="317.5" y="28" text-anchor="middle" fill="#fff" font-size="5" font-weight="bold" font-family="Arial">3V3</text><rect x="324.5" y="9" width="5" height="10" fill="url(#pin-mega)"/><text x="327" y="28" text-anchor="middle" fill="#fff" font-size="5" font-weight="bold" font-family="Arial">VIN</text><rect x="68" y="201" width="5" height="10" fill="url(#pin-mega)"/><text x="70.5" y="196" text-anchor="middle" fill="#fff" font-size="6" font-weight="bold" font-family="Arial">A0</text><rect x="77.5" y="201" width="5" height="10" fill="url(#pin-mega)"/><text x="80" y="196" text-anchor="middle" fill="#fff" font-size="6" font-weight="bold" font-family="Arial">A1</text><rect x="87" y="201" width="5" height="10" fill="url(#pin-mega)"/><text x="89.5" y="196" text-anchor="middle" fill="#fff" font-size="6" font-weight="bold" font-family="Arial">A2</text><rect x="96.5" y="201" width="5" height="10" fill="url(#pin-mega)"/><text x="99" y="196" text-anchor="middle" fill="#fff" font-size="6" font-weight="bold" font-family="Arial">A3</text><rect x="106" y="201" width="5" height="10" fill="url(#pin-mega)"/><text x="108.5" y="196" text-anchor="middle" fill="#fff" font-size="6" font-weight="bold" font-family="Arial">A4</text><rect x="115.5" y="201" width="5" height="10" fill="url(#pin-mega)"/><text x="118" y="196" text-anchor="middle" fill="#fff" font-size="6" font-weight="bold" font-family="Arial">A5</text><rect x="125" y="201" width="5" height="10" fill="url(#pin-mega)"/><text x="127.5" y="196" text-anchor="middle" fill="#fff" font-size="6" font-weight="bold" font-family="Arial">A6</text><rect x="134.5" y="201" width="5" height="10" fill="url(#pin-mega)"/><text x="137" y="196" text-anchor="middle" fill="#fff" font-size="6" font-weight="bold" font-family="Arial">A7</text><rect x="144" y="201" width="5" height="10" fill="url(#pin-mega)"/><text x="146.5" y="196" text-anchor="middle" fill="#fff" font-size="6" font-weight="bold" font-family="Arial">A8</text><rect x="153.5" y="201" width="5" height="10" fill="url(#pin-mega)"/><text x="156" y="196" text-anchor="middle" fill="#fff" font-size="6" font-weight="bold" font-family="Arial">A9</text><rect x="163" y="201" width="5" height="10" fill="url(#pin-mega)"/><text x="165.5" y="196" text-anchor="middle" fill="#fff" font-size="6" font-weight="bold" font-family="Arial">A10</text><rect x="172.5" y="201" width="5" height="10" fill="url(#pin-mega)"/><text x="175" y="196" text-anchor="middle" fill="#fff" font-size="6" font-weight="bold" font-family="Arial">A11</text><rect x="182" y="201" width="5" height="10" fill="url(#pin-mega)"/><text x="184.5" y="196" text-anchor="middle" fill="#fff" font-size="6" font-weight="bold" font-family="Arial">A12</text><rect x="191.5" y="201" width="5" height="10" fill="url(#pin-mega)"/><text x="194" y="196" text-anchor="middle" fill="#fff" font-size="6" font-weight="bold" font-family="Arial">A13</text><rect x="201" y="201" width="5" height="10" fill="url(#pin-mega)"/><text x="203.5" y="196" text-anchor="middle" fill="#fff" font-size="6" font-weight="bold" font-family="Arial">A14</text><rect x="210.5" y="201" width="5" height="10" fill="url(#pin-mega)"/><text x="213" y="196" text-anchor="middle" fill="#fff" font-size="6" font-weight="bold" font-family="Arial">A15</text><rect x="0" y="28" width="48" height="40" fill="url(#metal-mega)" rx="2"/></svg>
