<svg xmlns="http://www.w3.org/2000/svg" viewBox="0 0 200 80" width="200" height="80">
  <defs>
    <linearGradient id="pcb-nano" x1="0" y1="0" x2="0" y2="1"><stop offset="0%" stop-color="#1E88E5"/><stop offset="100%" stop-color="#0D47A1"/></linearGradient>
    <linearGradient id="pcbTeal-nano" x1="0" y1="0" x2="0" y2="1"><stop offset="0%" stop-color="#00939d"/><stop offset="100%" stop-color="#007982"/></linearGradient>
    <linearGradient id="metal-nano" x1="0" y1="0" x2="0" y2="1"><stop offset="0%" stop-color="#eee"/><stop offset="50%" stop-color="#fff"/><stop offset="100%" stop-color="#999"/></linearGradient>
    <linearGradient id="pin-nano" x1="0" y1="0" x2="0" y2="1"><stop offset="0%" stop-color="#f5f5f5"/><stop offset="100%" stop-color="#bdbdbd"/></linearGradient>
    <filter id="sh-nano" x="-8%" y="-8%" width="116%" height="116%"><feDropShadow dx="1" dy="2" stdDeviation="2.5" flood-opacity="0.28"/></filter>
    <filter id="glow-nano"><feGaussianBlur stdDeviation="1.5" result="b"/><feMerge><feMergeNode in="b"/><feMergeNode in="SourceGraphic"/></feMerge></filter>
  </defs><rect x="6" y="2" width="188" height="76" rx="4" fill="url(#pcbTeal-nano)" stroke="#00a8b0" filter="url(#sh-nano)"/><rect x="0" y="28" width="10" height="24" fill="url(#metal-nano)" rx="1"/><rect x="190" y="28" width="10" height="24" fill="url(#metal-nano)" rx="1"/><rect x="14" y="6" width="172" height="8" fill="#111"/><rect x="14" y="66" width="172" height="8" fill="#111"/><rect x="18" y="7" width="5" height="6" fill="url(#pin-nano)"/><text x="20.5" y="22" text-anchor="middle" fill="#fff" font-size="5" font-weight="bold" font-family="Arial">TX1</text><rect x="18" y="67" width="5" height="6" fill="url(#pin-nano)"/><text x="20.5" y="61" text-anchor="middle" fill="#fff" font-size="5" font-weight="bold" font-family="Arial">VIN</text><rect x="29" y="7" width="5" height="6" fill="url(#pin-nano)"/><text x="31.5" y="22" text-anchor="middle" fill="#fff" font-size="5" font-weight="bold" font-family="Arial">RX0</text><rect x="29" y="67" width="5" height="6" fill="url(#pin-nano)"/><text x="31.5" y="61" text-anchor="middle" fill="#fff" font-size="5" font-weight="bold" font-family="Arial">GND</text><rect x="40" y="7" width="5" height="6" fill="url(#pin-nano)"/><text x="42.5" y="22" text-anchor="middle" fill="#fff" font-size="5" font-weight="bold" font-family="Arial">RST</text><rect x="40" y="67" width="5" height="6" fill="url(#pin-nano)"/><text x="42.5" y="61" text-anchor="middle" fill="#fff" font-size="5" font-weight="bold" font-family="Arial">RST</text><rect x="51" y="7" width="5" height="6" fill="url(#pin-nano)"/><text x="53.5" y="22" text-anchor="middle" fill="#fff" font-size="5" font-weight="bold" font-family="Arial">GND</text><rect x="51" y="67" width="5" height="6" fill="url(#pin-nano)"/><text x="53.5" y="61" text-anchor="middle" fill="#fff" font-size="5" font-weight="bold" font-family="Arial">5V</text><rect x="62" y="7" width="5" height="6" fill="url(#pin-nano)"/><text x="64.5" y="22" text-anchor="middle" fill="#fff" font-size="5" font-weight="bold" font-family="Arial">D2</text><rect x="62" y="67" width="5" height="6" fill="url(#pin-nano)"/><text x="64.5" y="61" text-anchor="middle" fill="#fff" font-size="5" font-weight="bold" font-family="Arial">A7</text><rect x="73" y="7" width="5" height="6" fill="url(#pin-nano)"/><text x="75.5" y="22" text-anchor="middle" fill="#fff" font-size="5" font-weight="bold" font-family="Arial">D3</text><rect x="73" y="67" width="5" height="6" fill="url(#pin-nano)"/><text x="75.5" y="61" text-anchor="middle" fill="#fff" font-size="5" font-weight="bold" font-family="Arial">A6</text><rect x="84" y="7" width="5" height="6" fill="url(#pin-nano)"/><text x="86.5" y="22" text-anchor="middle" fill="#fff" font-size="5" font-weight="bold" font-family="Arial">D4</text><rect x="84" y="67" width="5" height="6" fill="url(#pin-nano)"/><text x="86.5" y="61" text-anchor="middle" fill="#fff" font-size="5" font-weight="bold" font-family="Arial">A5</text><rect x="95" y="7" width="5" height="6" fill="url(#pin-nano)"/><text x="97.5" y="22" text-anchor="middle" fill="#fff" font-size="5" font-weight="bold" font-family="Arial">D5</text><rect x="95" y="67" width="5" height="6" fill="url(#pin-nano)"/><text x="97.5" y="61" text-anchor="middle" fill="#fff" font-size="5" font-weight="bold" font-family="Arial">A4</text><rect x="106" y="7" width="5" height="6" fill="url(#pin-nano)"/><text x="108.5" y="22" text-anchor="middle" fill="#fff" font-size="5" font-weight="bold" font-family="Arial">D6</text><rect x="106" y="67" width="5" height="6" fill="url(#pin-nano)"/><text x="108.5" y="61" text-anchor="middle" fill="#fff" font-size="5" font-weight="bold" font-family="Arial">A3</text><rect x="117" y="7" width="5" height="6" fill="url(#pin-nano)"/><text x="119.5" y="22" text-anchor="middle" fill="#fff" font-size="5" font-weight="bold" font-family="Arial">D7</text><rect x="117" y="67" width="5" height="6" fill="url(#pin-nano)"/><text x="119.5" y="61" text-anchor="middle" fill="#fff" font-size="5" font-weight="bold" font-family="Arial">A2</text><rect x="128" y="7" width="5" height="6" fill="url(#pin-nano)"/><text x="130.5" y="22" text-anchor="middle" fill="#fff" font-size="5" font-weight="bold" font-family="Arial">D8</text><rect x="128" y="67" width="5" height="6" fill="url(#pin-nano)"/><text x="130.5" y="61" text-anchor="middle" fill="#fff" font-size="5" font-weight="bold" font-family="Arial">A1</text><rect x="139" y="7" width="5" height="6" fill="url(#pin-nano)"/><text x="141.5" y="22" text-anchor="middle" fill="#fff" font-size="5" font-weight="bold" font-family="Arial">D9</text><rect x="139" y="67" width="5" height="6" fill="url(#pin-nano)"/><text x="141.5" y="61" text-anchor="middle" fill="#fff" font-size="5" font-weight="bold" font-family="Arial">A0</text><rect x="150" y="7" width="5" height="6" fill="url(#pin-nano)"/><text x="152.5" y="22" text-anchor="middle" fill="#fff" font-size="5" font-weight="bold" font-family="Arial">D10</text><rect x="150" y="67" width="5" height="6" fill="url(#pin-nano)"/><text x="152.5" y="61" text-anchor="middle" fill="#fff" font-size="5" font-weight="bold" font-family="Arial">REF</text><rect x="161" y="7" width="5" height="6" fill="url(#pin-nano)"/><text x="163.5" y="22" text-anchor="middle" fill="#fff" font-size="5" font-weight="bold" font-family="Arial">D11</text><rect x="161" y="67" width="5" height="6" fill="url(#pin-nano)"/><text x="163.5" y="61" text-anchor="middle" fill="#fff" font-size="5" font-weight="bold" font-family="Arial">3V3</text><rect x="172" y="7" width="5" height="6" fill="url(#pin-nano)"/><text x="174.5" y="22" text-anchor="middle" fill="#fff" font-size="5" font-weight="bold" font-family="Arial">D12</text><rect x="172" y="67" width="5" height="6" fill="url(#pin-nano)"/><text x="174.5" y="61" text-anchor="middle" fill="#fff" font-size="5" font-weight="bold" font-family="Arial">D13</text><rect x="72" y="28" width="56" height="24" rx="2" fill="#111"/><text x="100" y="44" text-anchor="middle" fill="#fff" font-size="9" font-weight="bold">ATmega328</text><text x="100" y="56" text-anchor="middle" fill="#fff" font-size="8">NANO</text><circle cx="175" cy="20" r="3" fill="#F44336"/></svg>
