<svg xmlns="http://www.w3.org/2000/svg" viewBox="0 0 200 140" width="200" height="140">
  <defs>
    <linearGradient id="pcb-bb" x1="0" y1="0" x2="0" y2="1"><stop offset="0%" stop-color="#1E88E5"/><stop offset="100%" stop-color="#0D47A1"/></linearGradient>
    <linearGradient id="pcbTeal-bb" x1="0" y1="0" x2="0" y2="1"><stop offset="0%" stop-color="#00939d"/><stop offset="100%" stop-color="#007982"/></linearGradient>
    <linearGradient id="metal-bb" x1="0" y1="0" x2="0" y2="1"><stop offset="0%" stop-color="#eee"/><stop offset="50%" stop-color="#fff"/><stop offset="100%" stop-color="#999"/></linearGradient>
    <linearGradient id="pin-bb" x1="0" y1="0" x2="0" y2="1"><stop offset="0%" stop-color="#f5f5f5"/><stop offset="100%" stop-color="#bdbdbd"/></linearGradient>
    <filter id="sh-bb" x="-8%" y="-8%" width="116%" height="116%"><feDropShadow dx="1" dy="2" stdDeviation="2.5" flood-opacity="0.28"/></filter>
    <filter id="glow-bb"><feGaussianBlur stdDeviation="1.5" result="b"/><feMerge><feMergeNode in="b"/><feMergeNode in="SourceGraphic"/></feMerge></filter>
  </defs><rect x="4" y="4" width="192" height="132" rx="6" fill="#fafafa" stroke="#e0e0e0" stroke-width="2" filter="url(#sh-bb)"/><rect x="8" y="8" width="184" height="14" fill="#FFCDD2" opacity="0.55"/><rect x="8" y="118" width="184" height="14" fill="#BBDEFB" opacity="0.55"/><rect x="8" y="62" width="184" height="8" fill="#E0E0E0"/><circle cx="14" cy="26" r="1.1" fill="#bdbdbd"/><circle cx="23" cy="26" r="1.1" fill="#bdbdbd"/><circle cx="32" cy="26" r="1.1" fill="#bdbdbd"/><circle cx="41" cy="26" r="1.1" fill="#bdbdbd"/><circle cx="50" cy="26" r="1.1" fill="#bdbdbd"/><circle cx="59" cy="26" r="1.1" fill="#bdbdbd"/><circle cx="68" cy="26" r="1.1" fill="#bdbdbd"/><circle cx="77" cy="26" r="1.1" fill="#bdbdbd"/><circle cx="86" cy="26" r="1.1" fill="#bdbdbd"/><circle cx="95" cy="26" r="1.1" fill="#bdbdbd"/><circle cx="104" cy="26" r="1.1" fill="#bdbdbd"/><circle cx="113" cy="26" r="1.1" fill="#bdbdbd"/><circle cx="122" cy="26" r="1.1" fill="#bdbdbd"/><circle cx="131" cy="26" r="1.1" fill="#bdbdbd"/><circle cx="140" cy="26" r="1.1" fill="#bdbdbd"/><circle cx="149" cy="26" r="1.1" fill="#bdbdbd"/><circle cx="158" cy="26" r="1.1" fill="#bdbdbd"/><circle cx="167" cy="26" r="1.1" fill="#bdbdbd"/><circle cx="176" cy="26" r="1.1" fill="#bdbdbd"/><circle cx="185" cy="26" r="1.1" fill="#bdbdbd"/><circle cx="14" cy="29.2" r="1.1" fill="#bdbdbd"/><circle cx="23" cy="29.2" r="1.1" fill="#bdbdbd"/><circle cx="32" cy="29.2" r="1.1" fill="#bdbdbd"/><circle cx="41" cy="29.2" r="1.1" fill="#bdbdbd"/><circle cx="50" cy="29.2" r="1.1" fill="#bdbdbd"/><circle cx="59" cy="29.2" r="1.1" fill="#bdbdbd"/><circle cx="68" cy="29.2" r="1.1" fill="#bdbdbd"/><circle cx="77" cy="29.2" r="1.1" fill="#bdbdbd"/><circle cx="86" cy="29.2" r="1.1" fill="#bdbdbd"/><circle cx="95" cy="29.2" r="1.1" fill="#bdbdbd"/><circle cx="104" cy="29.2" r="1.1" fill="#bdbdbd"/><circle cx="113" cy="29.2" r="1.1" fill="#bdbdbd"/><circle cx="122" cy="29.2" r="1.1" fill="#bdbdbd"/><circle cx="131" cy="29.2" r="1.1" fill="#bdbdbd"/><circle cx="140" cy="29.2" r="1.1" fill="#bdbdbd"/><circle cx="149" cy="29.2" r="1.1" fill="#bdbdbd"/><circle cx="158" cy="29.2" r="1.1" fill="#bdbdbd"/><circle cx="167" cy="29.2" r="1.1" fill="#bdbdbd"/><circle cx="176" cy="29.2" r="1.1" fill="#bdbdbd"/><circle cx="185" cy="29.2" r="1.1" fill="#bdbdbd"/><circle cx="14" cy="32.4" r="1.1" fill="#bdbdbd"/><circle cx="23" cy="32.4" r="1.1" fill="#bdbdbd"/><circle cx="32" cy="32.4" r="1.1" fill="#bdbdbd"/><circle cx="41" cy="32.4" r="1.1" fill="#bdbdbd"/><circle cx="50" cy="32.4" r="1.1" fill="#bdbdbd"/><circle cx="59" cy="32.4" r="1.1" fill="#bdbdbd"/><circle cx="68" cy="32.4" r="1.1" fill="#bdbdbd"/><circle cx="77" cy="32.4" r="1.1" fill="#bdbdbd"/><circle cx="86" cy="32.4" r="1.1" fill="#bdbdbd"/><circle cx="95" cy="32.4" r="1.1" fill="#bdbdbd"/><circle cx="104" cy="32.4" r="1.1" fill="#bdbdbd"/><circle cx="113" cy="32.4" r="1.1" fill="#bdbdbd"/><circle cx="122" cy="32.4" r="1.1" fill="#bdbdbd"/><circle cx="131" cy="32.4" r="1.1" fill="#bdbdbd"/><circle cx="140" cy="32.4" r="1.1" fill="#bdbdbd"/><circle cx="149" cy="32.4" r="1.1" fill="#bdbdbd"/><circle cx="158" cy="32.4" r="1.1" fill="#bdbdbd"/><circle cx="167" cy="32.4" r="1.1" fill="#bdbdbd"/><circle cx="176" cy="32.4" r="1.1" fill="#bdbdbd"/><circle cx="185" cy="32.4" r="1.1" fill="#bdbdbd"/><circle cx="14" cy="35.6" r="1.1" fill="#bdbdbd"/><circle cx="23" cy="35.6" r="1.1" fill="#bdbdbd"/><circle cx="32" cy="35.6" r="1.1" fill="#bdbdbd"/><circle cx="41" cy="35.6" r="1.1" fill="#bdbdbd"/><circle cx="50" cy="35.6" r="1.1" fill="#bdbdbd"/><circle cx="59" cy="35.6" r="1.1" fill="#bdbdbd"/><circle cx="68" cy="35.6" r="1.1" fill="#bdbdbd"/><circle cx="77" cy="35.6" r="1.1" fill="#bdbdbd"/><circle cx="86" cy="35.6" r="1.1" fill="#bdbdbd"/><circle cx="95" cy="35.6" r="1.1" fill="#bdbdbd"/><circle cx="104" cy="35.6" r="1.1" fill="#bdbdbd"/><circle cx="113" cy="35.6" r="1.1" fill="#bdbdbd"/><circle cx="122" cy="35.6" r="1.1" fill="#bdbdbd"/><circle cx="131" cy="35.6" r="1.1" fill="#bdbdbd"/><circle cx="140" cy="35.6" r="1.1" fill="#bdbdbd"/><circle cx="149" cy="35.6" r="1.1" fill="#bdbdbd"/><circle cx="158" cy="35.6" r="1.1" fill="#bdbdbd"/><circle cx="167" cy="35.6" r="1.1" fill="#bdbdbd"/><circle cx="176" cy="35.6" r="1.1" fill="#bdbdbd"/><circle cx="185" cy="35.6" r="1.1" fill="#bdbdbd"/><circle cx="14" cy="38.8" r="1.1" fill="#bdbdbd"/><circle cx="23" cy="38.8" r="1.1" fill="#bdbdbd"/><circle cx="32" cy="38.8" r="1.1" fill="#bdbdbd"/><circle cx="41" cy="38.8" r="1.1" fill="#bdbdbd"/><circle cx="50" cy="38.8" r="1.1" fill="#bdbdbd"/><circle cx="59" cy="38.8" r="1.1" fill="#bdbdbd"/><circle cx="68" cy="38.8" r="1.1" fill="#bdbdbd"/><circle cx="77" cy="38.8" r="1.1" fill="#bdbdbd"/><circle cx="86" cy="38.8" r="1.1" fill="#bdbdbd"/><circle cx="95" cy="38.8" r="1.1" fill="#bdbdbd"/><circle cx="104" cy="38.8" r="1.1" fill="#bdbdbd"/><circle cx="113" cy="38.8" r="1.1" fill="#bdbdbd"/><circle cx="122" cy="38.8" r="1.1" fill="#bdbdbd"/><circle cx="131" cy="38.8" r="1.1" fill="#bdbdbd"/><circle cx="140" cy="38.8" r="1.1" fill="#bdbdbd"/><circle cx="149" cy="38.8" r="1.1" fill="#bdbdbd"/><circle cx="158" cy="38.8" r="1.1" fill="#bdbdbd"/><circle cx="167" cy="38.8" r="1.1" fill="#bdbdbd"/><circle cx="176" cy="38.8" r="1.1" fill="#bdbdbd"/><circle cx="185" cy="38.8" r="1.1" fill="#bdbdbd"/><circle cx="14" cy="42" r="1.1" fill="#bdbdbd"/><circle cx="23" cy="42" r="1.1" fill="#bdbdbd"/><circle cx="32" cy="42" r="1.1" fill="#bdbdbd"/><circle cx="41" cy="42" r="1.1" fill="#bdbdbd"/><circle cx="50" cy="42" r="1.1" fill="#bdbdbd"/><circle cx="59" cy="42" r="1.1" fill="#bdbdbd"/><circle cx="68" cy="42" r="1.1" fill="#bdbdbd"/><circle cx="77" cy="42" r="1.1" fill="#bdbdbd"/><circle cx="86" cy="42" r="1.1" fill="#bdbdbd"/><circle cx="95" cy="42" r="1.1" fill="#bdbdbd"/><circle cx="104" cy="42" r="1.1" fill="#bdbdbd"/><circle cx="113" cy="42" r="1.1" fill="#bdbdbd"/><circle cx="122" cy="42" r="1.1" fill="#bdbdbd"/><circle cx="131" cy="42" r="1.1" fill="#bdbdbd"/><circle cx="140" cy="42" r="1.1" fill="#bdbdbd"/><circle cx="149" cy="42" r="1.1" fill="#bdbdbd"/><circle cx="158" cy="42" r="1.1" fill="#bdbdbd"/><circle cx="167" cy="42" r="1.1" fill="#bdbdbd"/><circle cx="176" cy="42" r="1.1" fill="#bdbdbd"/><circle cx="185" cy="42" r="1.1" fill="#bdbdbd"/><circle cx="14" cy="45.2" r="1.1" fill="#bdbdbd"/><circle cx="23" cy="45.2" r="1.1" fill="#bdbdbd"/><circle cx="32" cy="45.2" r="1.1" fill="#bdbdbd"/><circle cx="41" cy="45.2" r="1.1" fill="#bdbdbd"/><circle cx="50" cy="45.2" r="1.1" fill="#bdbdbd"/><circle cx="59" cy="45.2" r="1.1" fill="#bdbdbd"/><circle cx="68" cy="45.2" r="1.1" fill="#bdbdbd"/><circle cx="77" cy="45.2" r="1.1" fill="#bdbdbd"/><circle cx="86" cy="45.2" r="1.1" fill="#bdbdbd"/><circle cx="95" cy="45.2" r="1.1" fill="#bdbdbd"/><circle cx="104" cy="45.2" r="1.1" fill="#bdbdbd"/><circle cx="113" cy="45.2" r="1.1" fill="#bdbdbd"/><circle cx="122" cy="45.2" r="1.1" fill="#bdbdbd"/><circle cx="131" cy="45.2" r="1.1" fill="#bdbdbd"/><circle cx="140" cy="45.2" r="1.1" fill="#bdbdbd"/><circle cx="149" cy="45.2" r="1.1" fill="#bdbdbd"/><circle cx="158" cy="45.2" r="1.1" fill="#bdbdbd"/><circle cx="167" cy="45.2" r="1.1" fill="#bdbdbd"/><circle cx="176" cy="45.2" r="1.1" fill="#bdbdbd"/><circle cx="185" cy="45.2" r="1.1" fill="#bdbdbd"/><circle cx="14" cy="48.400000000000006" r="1.1" fill="#bdbdbd"/><circle cx="23" cy="48.400000000000006" r="1.1" fill="#bdbdbd"/><circle cx="32" cy="48.400000000000006" r="1.1" fill="#bdbdbd"/><circle cx="41" cy="48.400000000000006" r="1.1" fill="#bdbdbd"/><circle cx="50" cy="48.400000000000006" r="1.1" fill="#bdbdbd"/><circle cx="59" cy="48.400000000000006" r="1.1" fill="#bdbdbd"/><circle cx="68" cy="48.400000000000006" r="1.1" fill="#bdbdbd"/><circle cx="77" cy="48.400000000000006" r="1.1" fill="#bdbdbd"/><circle cx="86" cy="48.400000000000006" r="1.1" fill="#bdbdbd"/><circle cx="95" cy="48.400000000000006" r="1.1" fill="#bdbdbd"/><circle cx="104" cy="48.400000000000006" r="1.1" fill="#bdbdbd"/><circle cx="113" cy="48.400000000000006" r="1.1" fill="#bdbdbd"/><circle cx="122" cy="48.400000000000006" r="1.1" fill="#bdbdbd"/><circle cx="131" cy="48.400000000000006" r="1.1" fill="#bdbdbd"/><circle cx="140" cy="48.400000000000006" r="1.1" fill="#bdbdbd"/><circle cx="149" cy="48.400000000000006" r="1.1" fill="#bdbdbd"/><circle cx="158" cy="48.400000000000006" r="1.1" fill="#bdbdbd"/><circle cx="167" cy="48.400000000000006" r="1.1" fill="#bdbdbd"/><circle cx="176" cy="48.400000000000006" r="1.1" fill="#bdbdbd"/><circle cx="185" cy="48.400000000000006" r="1.1" fill="#bdbdbd"/><circle cx="14" cy="51.6" r="1.1" fill="#bdbdbd"/><circle cx="23" cy="51.6" r="1.1" fill="#bdbdbd"/><circle cx="32" cy="51.6" r="1.1" fill="#bdbdbd"/><circle cx="41" cy="51.6" r="1.1" fill="#bdbdbd"/><circle cx="50" cy="51.6" r="1.1" fill="#bdbdbd"/><circle cx="59" cy="51.6" r="1.1" fill="#bdbdbd"/><circle cx="68" cy="51.6" r="1.1" fill="#bdbdbd"/><circle cx="77" cy="51.6" r="1.1" fill="#bdbdbd"/><circle cx="86" cy="51.6" r="1.1" fill="#bdbdbd"/><circle cx="95" cy="51.6" r="1.1" fill="#bdbdbd"/><circle cx="104" cy="51.6" r="1.1" fill="#bdbdbd"/><circle cx="113" cy="51.6" r="1.1" fill="#bdbdbd"/><circle cx="122" cy="51.6" r="1.1" fill="#bdbdbd"/><circle cx="131" cy="51.6" r="1.1" fill="#bdbdbd"/><circle cx="140" cy="51.6" r="1.1" fill="#bdbdbd"/><circle cx="149" cy="51.6" r="1.1" fill="#bdbdbd"/><circle cx="158" cy="51.6" r="1.1" fill="#bdbdbd"/><circle cx="167" cy="51.6" r="1.1" fill="#bdbdbd"/><circle cx="176" cy="51.6" r="1.1" fill="#bdbdbd"/><circle cx="185" cy="51.6" r="1.1" fill="#bdbdbd"/><circle cx="14" cy="54.8" r="1.1" fill="#bdbdbd"/><circle cx="23" cy="54.8" r="1.1" fill="#bdbdbd"/><circle cx="32" cy="54.8" r="1.1" fill="#bdbdbd"/><circle cx="41" cy="54.8" r="1.1" fill="#bdbdbd"/><circle cx="50" cy="54.8" r="1.1" fill="#bdbdbd"/><circle cx="59" cy="54.8" r="1.1" fill="#bdbdbd"/><circle cx="68" cy="54.8" r="1.1" fill="#bdbdbd"/><circle cx="77" cy="54.8" r="1.1" fill="#bdbdbd"/><circle cx="86" cy="54.8" r="1.1" fill="#bdbdbd"/><circle cx="95" cy="54.8" r="1.1" fill="#bdbdbd"/><circle cx="104" cy="54.8" r="1.1" fill="#bdbdbd"/><circle cx="113" cy="54.8" r="1.1" fill="#bdbdbd"/><circle cx="122" cy="54.8" r="1.1" fill="#bdbdbd"/><circle cx="131" cy="54.8" r="1.1" fill="#bdbdbd"/><circle cx="140" cy="54.8" r="1.1" fill="#bdbdbd"/><circle cx="149" cy="54.8" r="1.1" fill="#bdbdbd"/><circle cx="158" cy="54.8" r="1.1" fill="#bdbdbd"/><circle cx="167" cy="54.8" r="1.1" fill="#bdbdbd"/><circle cx="176" cy="54.8" r="1.1" fill="#bdbdbd"/><circle cx="185" cy="54.8" r="1.1" fill="#bdbdbd"/><circle cx="14" cy="58" r="1.1" fill="#bdbdbd"/><circle cx="23" cy="58" r="1.1" fill="#bdbdbd"/><circle cx="32" cy="58" r="1.1" fill="#bdbdbd"/><circle cx="41" cy="58" r="1.1" fill="#bdbdbd"/><circle cx="50" cy="58" r="1.1" fill="#bdbdbd"/><circle cx="59" cy="58" r="1.1" fill="#bdbdbd"/><circle cx="68" cy="58" r="1.1" fill="#bdbdbd"/><circle cx="77" cy="58" r="1.1" fill="#bdbdbd"/><circle cx="86" cy="58" r="1.1" fill="#bdbdbd"/><circle cx="95" cy="58" r="1.1" fill="#bdbdbd"/><circle cx="104" cy="58" r="1.1" fill="#bdbdbd"/><circle cx="113" cy="58" r="1.1" fill="#bdbdbd"/><circle cx="122" cy="58" r="1.1" fill="#bdbdbd"/><circle cx="131" cy="58" r="1.1" fill="#bdbdbd"/><circle cx="140" cy="58" r="1.1" fill="#bdbdbd"/><circle cx="149" cy="58" r="1.1" fill="#bdbdbd"/><circle cx="158" cy="58" r="1.1" fill="#bdbdbd"/><circle cx="167" cy="58" r="1.1" fill="#bdbdbd"/><circle cx="176" cy="58" r="1.1" fill="#bdbdbd"/><circle cx="185" cy="58" r="1.1" fill="#bdbdbd"/><circle cx="14" cy="61.2" r="1.1" fill="#bdbdbd"/><circle cx="23" cy="61.2" r="1.1" fill="#bdbdbd"/><circle cx="32" cy="61.2" r="1.1" fill="#bdbdbd"/><circle cx="41" cy="61.2" r="1.1" fill="#bdbdbd"/><circle cx="50" cy="61.2" r="1.1" fill="#bdbdbd"/><circle cx="59" cy="61.2" r="1.1" fill="#bdbdbd"/><circle cx="68" cy="61.2" r="1.1" fill="#bdbdbd"/><circle cx="77" cy="61.2" r="1.1" fill="#bdbdbd"/><circle cx="86" cy="61.2" r="1.1" fill="#bdbdbd"/><circle cx="95" cy="61.2" r="1.1" fill="#bdbdbd"/><circle cx="104" cy="61.2" r="1.1" fill="#bdbdbd"/><circle cx="113" cy="61.2" r="1.1" fill="#bdbdbd"/><circle cx="122" cy="61.2" r="1.1" fill="#bdbdbd"/><circle cx="131" cy="61.2" r="1.1" fill="#bdbdbd"/><circle cx="140" cy="61.2" r="1.1" fill="#bdbdbd"/><circle cx="149" cy="61.2" r="1.1" fill="#bdbdbd"/><circle cx="158" cy="61.2" r="1.1" fill="#bdbdbd"/><circle cx="167" cy="61.2" r="1.1" fill="#bdbdbd"/><circle cx="176" cy="61.2" r="1.1" fill="#bdbdbd"/><circle cx="185" cy="61.2" r="1.1" fill="#bdbdbd"/><circle cx="14" cy="64.4" r="1.1" fill="#bdbdbd"/><circle cx="23" cy="64.4" r="1.1" fill="#bdbdbd"/><circle cx="32" cy="64.4" r="1.1" fill="#bdbdbd"/><circle cx="41" cy="64.4" r="1.1" fill="#bdbdbd"/><circle cx="50" cy="64.4" r="1.1" fill="#bdbdbd"/><circle cx="59" cy="64.4" r="1.1" fill="#bdbdbd"/><circle cx="68" cy="64.4" r="1.1" fill="#bdbdbd"/><circle cx="77" cy="64.4" r="1.1" fill="#bdbdbd"/><circle cx="86" cy="64.4" r="1.1" fill="#bdbdbd"/><circle cx="95" cy="64.4" r="1.1" fill="#bdbdbd"/><circle cx="104" cy="64.4" r="1.1" fill="#bdbdbd"/><circle cx="113" cy="64.4" r="1.1" fill="#bdbdbd"/><circle cx="122" cy="64.4" r="1.1" fill="#bdbdbd"/><circle cx="131" cy="64.4" r="1.1" fill="#bdbdbd"/><circle cx="140" cy="64.4" r="1.1" fill="#bdbdbd"/><circle cx="149" cy="64.4" r="1.1" fill="#bdbdbd"/><circle cx="158" cy="64.4" r="1.1" fill="#bdbdbd"/><circle cx="167" cy="64.4" r="1.1" fill="#bdbdbd"/><circle cx="176" cy="64.4" r="1.1" fill="#bdbdbd"/><circle cx="185" cy="64.4" r="1.1" fill="#bdbdbd"/><circle cx="14" cy="67.6" r="1.1" fill="#bdbdbd"/><circle cx="23" cy="67.6" r="1.1" fill="#bdbdbd"/><circle cx="32" cy="67.6" r="1.1" fill="#bdbdbd"/><circle cx="41" cy="67.6" r="1.1" fill="#bdbdbd"/><circle cx="50" cy="67.6" r="1.1" fill="#bdbdbd"/><circle cx="59" cy="67.6" r="1.1" fill="#bdbdbd"/><circle cx="68" cy="67.6" r="1.1" fill="#bdbdbd"/><circle cx="77" cy="67.6" r="1.1" fill="#bdbdbd"/><circle cx="86" cy="67.6" r="1.1" fill="#bdbdbd"/><circle cx="95" cy="67.6" r="1.1" fill="#bdbdbd"/><circle cx="104" cy="67.6" r="1.1" fill="#bdbdbd"/><circle cx="113" cy="67.6" r="1.1" fill="#bdbdbd"/><circle cx="122" cy="67.6" r="1.1" fill="#bdbdbd"/><circle cx="131" cy="67.6" r="1.1" fill="#bdbdbd"/><circle cx="140" cy="67.6" r="1.1" fill="#bdbdbd"/><circle cx="149" cy="67.6" r="1.1" fill="#bdbdbd"/><circle cx="158" cy="67.6" r="1.1" fill="#bdbdbd"/><circle cx="167" cy="67.6" r="1.1" fill="#bdbdbd"/><circle cx="176" cy="67.6" r="1.1" fill="#bdbdbd"/><circle cx="185" cy="67.6" r="1.1" fill="#bdbdbd"/><circle cx="14" cy="77.2" r="1.1" fill="#bdbdbd"/><circle cx="23" cy="77.2" r="1.1" fill="#bdbdbd"/><circle cx="32" cy="77.2" r="1.1" fill="#bdbdbd"/><circle cx="41" cy="77.2" r="1.1" fill="#bdbdbd"/><circle cx="50" cy="77.2" r="1.1" fill="#bdbdbd"/><circle cx="59" cy="77.2" r="1.1" fill="#bdbdbd"/><circle cx="68" cy="77.2" r="1.1" fill="#bdbdbd"/><circle cx="77" cy="77.2" r="1.1" fill="#bdbdbd"/><circle cx="86" cy="77.2" r="1.1" fill="#bdbdbd"/><circle cx="95" cy="77.2" r="1.1" fill="#bdbdbd"/><circle cx="104" cy="77.2" r="1.1" fill="#bdbdbd"/><circle cx="113" cy="77.2" r="1.1" fill="#bdbdbd"/><circle cx="122" cy="77.2" r="1.1" fill="#bdbdbd"/><circle cx="131" cy="77.2" r="1.1" fill="#bdbdbd"/><circle cx="140" cy="77.2" r="1.1" fill="#bdbdbd"/><circle cx="149" cy="77.2" r="1.1" fill="#bdbdbd"/><circle cx="158" cy="77.2" r="1.1" fill="#bdbdbd"/><circle cx="167" cy="77.2" r="1.1" fill="#bdbdbd"/><circle cx="176" cy="77.2" r="1.1" fill="#bdbdbd"/><circle cx="185" cy="77.2" r="1.1" fill="#bdbdbd"/><circle cx="14" cy="80.4" r="1.1" fill="#bdbdbd"/><circle cx="23" cy="80.4" r="1.1" fill="#bdbdbd"/><circle cx="32" cy="80.4" r="1.1" fill="#bdbdbd"/><circle cx="41" cy="80.4" r="1.1" fill="#bdbdbd"/><circle cx="50" cy="80.4" r="1.1" fill="#bdbdbd"/><circle cx="59" cy="80.4" r="1.1" fill="#bdbdbd"/><circle cx="68" cy="80.4" r="1.1" fill="#bdbdbd"/><circle cx="77" cy="80.4" r="1.1" fill="#bdbdbd"/><circle cx="86" cy="80.4" r="1.1" fill="#bdbdbd"/><circle cx="95" cy="80.4" r="1.1" fill="#bdbdbd"/><circle cx="104" cy="80.4" r="1.1" fill="#bdbdbd"/><circle cx="113" cy="80.4" r="1.1" fill="#bdbdbd"/><circle cx="122" cy="80.4" r="1.1" fill="#bdbdbd"/><circle cx="131" cy="80.4" r="1.1" fill="#bdbdbd"/><circle cx="140" cy="80.4" r="1.1" fill="#bdbdbd"/><circle cx="149" cy="80.4" r="1.1" fill="#bdbdbd"/><circle cx="158" cy="80.4" r="1.1" fill="#bdbdbd"/><circle cx="167" cy="80.4" r="1.1" fill="#bdbdbd"/><circle cx="176" cy="80.4" r="1.1" fill="#bdbdbd"/><circle cx="185" cy="80.4" r="1.1" fill="#bdbdbd"/><circle cx="14" cy="83.6" r="1.1" fill="#bdbdbd"/><circle cx="23" cy="83.6" r="1.1" fill="#bdbdbd"/><circle cx="32" cy="83.6" r="1.1" fill="#bdbdbd"/><circle cx="41" cy="83.6" r="1.1" fill="#bdbdbd"/><circle cx="50" cy="83.6" r="1.1" fill="#bdbdbd"/><circle cx="59" cy="83.6" r="1.1" fill="#bdbdbd"/><circle cx="68" cy="83.6" r="1.1" fill="#bdbdbd"/><circle cx="77" cy="83.6" r="1.1" fill="#bdbdbd"/><circle cx="86" cy="83.6" r="1.1" fill="#bdbdbd"/><circle cx="95" cy="83.6" r="1.1" fill="#bdbdbd"/><circle cx="104" cy="83.6" r="1.1" fill="#bdbdbd"/><circle cx="113" cy="83.6" r="1.1" fill="#bdbdbd"/><circle cx="122" cy="83.6" r="1.1" fill="#bdbdbd"/><circle cx="131" cy="83.6" r="1.1" fill="#bdbdbd"/><circle cx="140" cy="83.6" r="1.1" fill="#bdbdbd"/><circle cx="149" cy="83.6" r="1.1" fill="#bdbdbd"/><circle cx="158" cy="83.6" r="1.1" fill="#bdbdbd"/><circle cx="167" cy="83.6" r="1.1" fill="#bdbdbd"/><circle cx="176" cy="83.6" r="1.1" fill="#bdbdbd"/><circle cx="185" cy="83.6" r="1.1" fill="#bdbdbd"/><circle cx="14" cy="86.80000000000001" r="1.1" fill="#bdbdbd"/><circle cx="23" cy="86.80000000000001" r="1.1" fill="#bdbdbd"/><circle cx="32" cy="86.80000000000001" r="1.1" fill="#bdbdbd"/><circle cx="41" cy="86.80000000000001" r="1.1" fill="#bdbdbd"/><circle cx="50" cy="86.80000000000001" r="1.1" fill="#bdbdbd"/><circle cx="59" cy="86.80000000000001" r="1.1" fill="#bdbdbd"/><circle cx="68" cy="86.80000000000001" r="1.1" fill="#bdbdbd"/><circle cx="77" cy="86.80000000000001" r="1.1" fill="#bdbdbd"/><circle cx="86" cy="86.80000000000001" r="1.1" fill="#bdbdbd"/><circle cx="95" cy="86.80000000000001" r="1.1" fill="#bdbdbd"/><circle cx="104" cy="86.80000000000001" r="1.1" fill="#bdbdbd"/><circle cx="113" cy="86.80000000000001" r="1.1" fill="#bdbdbd"/><circle cx="122" cy="86.80000000000001" r="1.1" fill="#bdbdbd"/><circle cx="131" cy="86.80000000000001" r="1.1" fill="#bdbdbd"/><circle cx="140" cy="86.80000000000001" r="1.1" fill="#bdbdbd"/><circle cx="149" cy="86.80000000000001" r="1.1" fill="#bdbdbd"/><circle cx="158" cy="86.80000000000001" r="1.1" fill="#bdbdbd"/><circle cx="167" cy="86.80000000000001" r="1.1" fill="#bdbdbd"/><circle cx="176" cy="86.80000000000001" r="1.1" fill="#bdbdbd"/><circle cx="185" cy="86.80000000000001" r="1.1" fill="#bdbdbd"/><circle cx="14" cy="90" r="1.1" fill="#bdbdbd"/><circle cx="23" cy="90" r="1.1" fill="#bdbdbd"/><circle cx="32" cy="90" r="1.1" fill="#bdbdbd"/><circle cx="41" cy="90" r="1.1" fill="#bdbdbd"/><circle cx="50" cy="90" r="1.1" fill="#bdbdbd"/><circle cx="59" cy="90" r="1.1" fill="#bdbdbd"/><circle cx="68" cy="90" r="1.1" fill="#bdbdbd"/><circle cx="77" cy="90" r="1.1" fill="#bdbdbd"/><circle cx="86" cy="90" r="1.1" fill="#bdbdbd"/><circle cx="95" cy="90" r="1.1" fill="#bdbdbd"/><circle cx="104" cy="90" r="1.1" fill="#bdbdbd"/><circle cx="113" cy="90" r="1.1" fill="#bdbdbd"/><circle cx="122" cy="90" r="1.1" fill="#bdbdbd"/><circle cx="131" cy="90" r="1.1" fill="#bdbdbd"/><circle cx="140" cy="90" r="1.1" fill="#bdbdbd"/><circle cx="149" cy="90" r="1.1" fill="#bdbdbd"/><circle cx="158" cy="90" r="1.1" fill="#bdbdbd"/><circle cx="167" cy="90" r="1.1" fill="#bdbdbd"/><circle cx="176" cy="90" r="1.1" fill="#bdbdbd"/><circle cx="185" cy="90" r="1.1" fill="#bdbdbd"/><circle cx="14" cy="93.2" r="1.1" fill="#bdbdbd"/><circle cx="23" cy="93.2" r="1.1" fill="#bdbdbd"/><circle cx="32" cy="93.2" r="1.1" fill="#bdbdbd"/><circle cx="41" cy="93.2" r="1.1" fill="#bdbdbd"/><circle cx="50" cy="93.2" r="1.1" fill="#bdbdbd"/><circle cx="59" cy="93.2" r="1.1" fill="#bdbdbd"/><circle cx="68" cy="93.2" r="1.1" fill="#bdbdbd"/><circle cx="77" cy="93.2" r="1.1" fill="#bdbdbd"/><circle cx="86" cy="93.2" r="1.1" fill="#bdbdbd"/><circle cx="95" cy="93.2" r="1.1" fill="#bdbdbd"/><circle cx="104" cy="93.2" r="1.1" fill="#bdbdbd"/><circle cx="113" cy="93.2" r="1.1" fill="#bdbdbd"/><circle cx="122" cy="93.2" r="1.1" fill="#bdbdbd"/><circle cx="131" cy="93.2" r="1.1" fill="#bdbdbd"/><circle cx="140" cy="93.2" r="1.1" fill="#bdbdbd"/><circle cx="149" cy="93.2" r="1.1" fill="#bdbdbd"/><circle cx="158" cy="93.2" r="1.1" fill="#bdbdbd"/><circle cx="167" cy="93.2" r="1.1" fill="#bdbdbd"/><circle cx="176" cy="93.2" r="1.1" fill="#bdbdbd"/><circle cx="185" cy="93.2" r="1.1" fill="#bdbdbd"/><circle cx="14" cy="96.4" r="1.1" fill="#bdbdbd"/><circle cx="23" cy="96.4" r="1.1" fill="#bdbdbd"/><circle cx="32" cy="96.4" r="1.1" fill="#bdbdbd"/><circle cx="41" cy="96.4" r="1.1" fill="#bdbdbd"/><circle cx="50" cy="96.4" r="1.1" fill="#bdbdbd"/><circle cx="59" cy="96.4" r="1.1" fill="#bdbdbd"/><circle cx="68" cy="96.4" r="1.1" fill="#bdbdbd"/><circle cx="77" cy="96.4" r="1.1" fill="#bdbdbd"/><circle cx="86" cy="96.4" r="1.1" fill="#bdbdbd"/><circle cx="95" cy="96.4" r="1.1" fill="#bdbdbd"/><circle cx="104" cy="96.4" r="1.1" fill="#bdbdbd"/><circle cx="113" cy="96.4" r="1.1" fill="#bdbdbd"/><circle cx="122" cy="96.4" r="1.1" fill="#bdbdbd"/><circle cx="131" cy="96.4" r="1.1" fill="#bdbdbd"/><circle cx="140" cy="96.4" r="1.1" fill="#bdbdbd"/><circle cx="149" cy="96.4" r="1.1" fill="#bdbdbd"/><circle cx="158" cy="96.4" r="1.1" fill="#bdbdbd"/><circle cx="167" cy="96.4" r="1.1" fill="#bdbdbd"/><circle cx="176" cy="96.4" r="1.1" fill="#bdbdbd"/><circle cx="185" cy="96.4" r="1.1" fill="#bdbdbd"/><circle cx="14" cy="99.60000000000001" r="1.1" fill="#bdbdbd"/><circle cx="23" cy="99.60000000000001" r="1.1" fill="#bdbdbd"/><circle cx="32" cy="99.60000000000001" r="1.1" fill="#bdbdbd"/><circle cx="41" cy="99.60000000000001" r="1.1" fill="#bdbdbd"/><circle cx="50" cy="99.60000000000001" r="1.1" fill="#bdbdbd"/><circle cx="59" cy="99.60000000000001" r="1.1" fill="#bdbdbd"/><circle cx="68" cy="99.60000000000001" r="1.1" fill="#bdbdbd"/><circle cx="77" cy="99.60000000000001" r="1.1" fill="#bdbdbd"/><circle cx="86" cy="99.60000000000001" r="1.1" fill="#bdbdbd"/><circle cx="95" cy="99.60000000000001" r="1.1" fill="#bdbdbd"/><circle cx="104" cy="99.60000000000001" r="1.1" fill="#bdbdbd"/><circle cx="113" cy="99.60000000000001" r="1.1" fill="#bdbdbd"/><circle cx="122" cy="99.60000000000001" r="1.1" fill="#bdbdbd"/><circle cx="131" cy="99.60000000000001" r="1.1" fill="#bdbdbd"/><circle cx="140" cy="99.60000000000001" r="1.1" fill="#bdbdbd"/><circle cx="149" cy="99.60000000000001" r="1.1" fill="#bdbdbd"/><circle cx="158" cy="99.60000000000001" r="1.1" fill="#bdbdbd"/><circle cx="167" cy="99.60000000000001" r="1.1" fill="#bdbdbd"/><circle cx="176" cy="99.60000000000001" r="1.1" fill="#bdbdbd"/><circle cx="185" cy="99.60000000000001" r="1.1" fill="#bdbdbd"/><circle cx="14" cy="102.80000000000001" r="1.1" fill="#bdbdbd"/><circle cx="23" cy="102.80000000000001" r="1.1" fill="#bdbdbd"/><circle cx="32" cy="102.80000000000001" r="1.1" fill="#bdbdbd"/><circle cx="41" cy="102.80000000000001" r="1.1" fill="#bdbdbd"/><circle cx="50" cy="102.80000000000001" r="1.1" fill="#bdbdbd"/><circle cx="59" cy="102.80000000000001" r="1.1" fill="#bdbdbd"/><circle cx="68" cy="102.80000000000001" r="1.1" fill="#bdbdbd"/><circle cx="77" cy="102.80000000000001" r="1.1" fill="#bdbdbd"/><circle cx="86" cy="102.80000000000001" r="1.1" fill="#bdbdbd"/><circle cx="95" cy="102.80000000000001" r="1.1" fill="#bdbdbd"/><circle cx="104" cy="102.80000000000001" r="1.1" fill="#bdbdbd"/><circle cx="113" cy="102.80000000000001" r="1.1" fill="#bdbdbd"/><circle cx="122" cy="102.80000000000001" r="1.1" fill="#bdbdbd"/><circle cx="131" cy="102.80000000000001" r="1.1" fill="#bdbdbd"/><circle cx="140" cy="102.80000000000001" r="1.1" fill="#bdbdbd"/><circle cx="149" cy="102.80000000000001" r="1.1" fill="#bdbdbd"/><circle cx="158" cy="102.80000000000001" r="1.1" fill="#bdbdbd"/><circle cx="167" cy="102.80000000000001" r="1.1" fill="#bdbdbd"/><circle cx="176" cy="102.80000000000001" r="1.1" fill="#bdbdbd"/><circle cx="185" cy="102.80000000000001" r="1.1" fill="#bdbdbd"/><circle cx="14" cy="106" r="1.1" fill="#bdbdbd"/><circle cx="23" cy="106" r="1.1" fill="#bdbdbd"/><circle cx="32" cy="106" r="1.1" fill="#bdbdbd"/><circle cx="41" cy="106" r="1.1" fill="#bdbdbd"/><circle cx="50" cy="106" r="1.1" fill="#bdbdbd"/><circle cx="59" cy="106" r="1.1" fill="#bdbdbd"/><circle cx="68" cy="106" r="1.1" fill="#bdbdbd"/><circle cx="77" cy="106" r="1.1" fill="#bdbdbd"/><circle cx="86" cy="106" r="1.1" fill="#bdbdbd"/><circle cx="95" cy="106" r="1.1" fill="#bdbdbd"/><circle cx="104" cy="106" r="1.1" fill="#bdbdbd"/><circle cx="113" cy="106" r="1.1" fill="#bdbdbd"/><circle cx="122" cy="106" r="1.1" fill="#bdbdbd"/><circle cx="131" cy="106" r="1.1" fill="#bdbdbd"/><circle cx="140" cy="106" r="1.1" fill="#bdbdbd"/><circle cx="149" cy="106" r="1.1" fill="#bdbdbd"/><circle cx="158" cy="106" r="1.1" fill="#bdbdbd"/><circle cx="167" cy="106" r="1.1" fill="#bdbdbd"/><circle cx="176" cy="106" r="1.1" fill="#bdbdbd"/><circle cx="185" cy="106" r="1.1" fill="#bdbdbd"/><circle cx="14" cy="109.2" r="1.1" fill="#bdbdbd"/><circle cx="23" cy="109.2" r="1.1" fill="#bdbdbd"/><circle cx="32" cy="109.2" r="1.1" fill="#bdbdbd"/><circle cx="41" cy="109.2" r="1.1" fill="#bdbdbd"/><circle cx="50" cy="109.2" r="1.1" fill="#bdbdbd"/><circle cx="59" cy="109.2" r="1.1" fill="#bdbdbd"/><circle cx="68" cy="109.2" r="1.1" fill="#bdbdbd"/><circle cx="77" cy="109.2" r="1.1" fill="#bdbdbd"/><circle cx="86" cy="109.2" r="1.1" fill="#bdbdbd"/><circle cx="95" cy="109.2" r="1.1" fill="#bdbdbd"/><circle cx="104" cy="109.2" r="1.1" fill="#bdbdbd"/><circle cx="113" cy="109.2" r="1.1" fill="#bdbdbd"/><circle cx="122" cy="109.2" r="1.1" fill="#bdbdbd"/><circle cx="131" cy="109.2" r="1.1" fill="#bdbdbd"/><circle cx="140" cy="109.2" r="1.1" fill="#bdbdbd"/><circle cx="149" cy="109.2" r="1.1" fill="#bdbdbd"/><circle cx="158" cy="109.2" r="1.1" fill="#bdbdbd"/><circle cx="167" cy="109.2" r="1.1" fill="#bdbdbd"/><circle cx="176" cy="109.2" r="1.1" fill="#bdbdbd"/><circle cx="185" cy="109.2" r="1.1" fill="#bdbdbd"/><circle cx="14" cy="112.4" r="1.1" fill="#bdbdbd"/><circle cx="23" cy="112.4" r="1.1" fill="#bdbdbd"/><circle cx="32" cy="112.4" r="1.1" fill="#bdbdbd"/><circle cx="41" cy="112.4" r="1.1" fill="#bdbdbd"/><circle cx="50" cy="112.4" r="1.1" fill="#bdbdbd"/><circle cx="59" cy="112.4" r="1.1" fill="#bdbdbd"/><circle cx="68" cy="112.4" r="1.1" fill="#bdbdbd"/><circle cx="77" cy="112.4" r="1.1" fill="#bdbdbd"/><circle cx="86" cy="112.4" r="1.1" fill="#bdbdbd"/><circle cx="95" cy="112.4" r="1.1" fill="#bdbdbd"/><circle cx="104" cy="112.4" r="1.1" fill="#bdbdbd"/><circle cx="113" cy="112.4" r="1.1" fill="#bdbdbd"/><circle cx="122" cy="112.4" r="1.1" fill="#bdbdbd"/><circle cx="131" cy="112.4" r="1.1" fill="#bdbdbd"/><circle cx="140" cy="112.4" r="1.1" fill="#bdbdbd"/><circle cx="149" cy="112.4" r="1.1" fill="#bdbdbd"/><circle cx="158" cy="112.4" r="1.1" fill="#bdbdbd"/><circle cx="167" cy="112.4" r="1.1" fill="#bdbdbd"/><circle cx="176" cy="112.4" r="1.1" fill="#bdbdbd"/><circle cx="185" cy="112.4" r="1.1" fill="#bdbdbd"/><circle cx="14" cy="115.60000000000001" r="1.1" fill="#bdbdbd"/><circle cx="23" cy="115.60000000000001" r="1.1" fill="#bdbdbd"/><circle cx="32" cy="115.60000000000001" r="1.1" fill="#bdbdbd"/><circle cx="41" cy="115.60000000000001" r="1.1" fill="#bdbdbd"/><circle cx="50" cy="115.60000000000001" r="1.1" fill="#bdbdbd"/><circle cx="59" cy="115.60000000000001" r="1.1" fill="#bdbdbd"/><circle cx="68" cy="115.60000000000001" r="1.1" fill="#bdbdbd"/><circle cx="77" cy="115.60000000000001" r="1.1" fill="#bdbdbd"/><circle cx="86" cy="115.60000000000001" r="1.1" fill="#bdbdbd"/><circle cx="95" cy="115.60000000000001" r="1.1" fill="#bdbdbd"/><circle cx="104" cy="115.60000000000001" r="1.1" fill="#bdbdbd"/><circle cx="113" cy="115.60000000000001" r="1.1" fill="#bdbdbd"/><circle cx="122" cy="115.60000000000001" r="1.1" fill="#bdbdbd"/><circle cx="131" cy="115.60000000000001" r="1.1" fill="#bdbdbd"/><circle cx="140" cy="115.60000000000001" r="1.1" fill="#bdbdbd"/><circle cx="149" cy="115.60000000000001" r="1.1" fill="#bdbdbd"/><circle cx="158" cy="115.60000000000001" r="1.1" fill="#bdbdbd"/><circle cx="167" cy="115.60000000000001" r="1.1" fill="#bdbdbd"/><circle cx="176" cy="115.60000000000001" r="1.1" fill="#bdbdbd"/><circle cx="185" cy="115.60000000000001" r="1.1" fill="#bdbdbd"/><circle cx="14" cy="118.80000000000001" r="1.1" fill="#bdbdbd"/><circle cx="23" cy="118.80000000000001" r="1.1" fill="#bdbdbd"/><circle cx="32" cy="118.80000000000001" r="1.1" fill="#bdbdbd"/><circle cx="41" cy="118.80000000000001" r="1.1" fill="#bdbdbd"/><circle cx="50" cy="118.80000000000001" r="1.1" fill="#bdbdbd"/><circle cx="59" cy="118.80000000000001" r="1.1" fill="#bdbdbd"/><circle cx="68" cy="118.80000000000001" r="1.1" fill="#bdbdbd"/><circle cx="77" cy="118.80000000000001" r="1.1" fill="#bdbdbd"/><circle cx="86" cy="118.80000000000001" r="1.1" fill="#bdbdbd"/><circle cx="95" cy="118.80000000000001" r="1.1" fill="#bdbdbd"/><circle cx="104" cy="118.80000000000001" r="1.1" fill="#bdbdbd"/><circle cx="113" cy="118.80000000000001" r="1.1" fill="#bdbdbd"/><circle cx="122" cy="118.80000000000001" r="1.1" fill="#bdbdbd"/><circle cx="131" cy="118.80000000000001" r="1.1" fill="#bdbdbd"/><circle cx="140" cy="118.80000000000001" r="1.1" fill="#bdbdbd"/><circle cx="149" cy="118.80000000000001" r="1.1" fill="#bdbdbd"/><circle cx="158" cy="118.80000000000001" r="1.1" fill="#bdbdbd"/><circle cx="167" cy="118.80000000000001" r="1.1" fill="#bdbdbd"/><circle cx="176" cy="118.80000000000001" r="1.1" fill="#bdbdbd"/><circle cx="185" cy="118.80000000000001" r="1.1" fill="#bdbdbd"/></svg>
