<svg xmlns="http://www.w3.org/2000/svg" viewBox="0 0 140 78" width="140" height="78">
  <defs>
    <linearGradient id="pcb-hx" x1="0" y1="0" x2="0" y2="1"><stop offset="0%" stop-color="#1E88E5"/><stop offset="100%" stop-color="#0D47A1"/></linearGradient>
    <linearGradient id="pcbTeal-hx" x1="0" y1="0" x2="0" y2="1"><stop offset="0%" stop-color="#00939d"/><stop offset="100%" stop-color="#007982"/></linearGradient>
    <linearGradient id="metal-hx" x1="0" y1="0" x2="0" y2="1"><stop offset="0%" stop-color="#eee"/><stop offset="50%" stop-color="#fff"/><stop offset="100%" stop-color="#999"/></linearGradient>
    <linearGradient id="pin-hx" x1="0" y1="0" x2="0" y2="1"><stop offset="0%" stop-color="#f5f5f5"/><stop offset="100%" stop-color="#bdbdbd"/></linearGradient>
    <filter id="sh-hx" x="-8%" y="-8%" width="116%" height="116%"><feDropShadow dx="1" dy="2" stdDeviation="2.5" flood-opacity="0.28"/></filter>
    <filter id="glow-hx"><feGaussianBlur stdDeviation="1.5" result="b"/><feMerge><feMergeNode in="b"/><feMergeNode in="SourceGraphic"/></feMerge></filter>
  </defs><rect x="3" y="3" width="134" height="72" rx="4" fill="url(#pcb-hx)" stroke="#0a3d7a" stroke-width="1.5" filter="url(#sh-hx)"/><circle cx="15.75" cy="10" r="4" fill="url(#pin-hx)"/><circle cx="15.75" cy="10" r="2.5" fill="#111"/><text x="15.75" y="20" text-anchor="middle" fill="#fff" font-size="5" font-weight="bold" font-family="Arial,sans-serif">VCC</text><circle cx="31.25" cy="10" r="4" fill="url(#pin-hx)"/><circle cx="31.25" cy="10" r="2.5" fill="#111"/><text x="31.25" y="20" text-anchor="middle" fill="#fff" font-size="5" font-weight="bold" font-family="Arial,sans-serif">GND</text><circle cx="46.75" cy="10" r="4" fill="url(#pin-hx)"/><circle cx="46.75" cy="10" r="2.5" fill="#111"/><text x="46.75" y="20" text-anchor="middle" fill="#fff" font-size="5" font-weight="bold" font-family="Arial,sans-serif">DT</text><circle cx="62.25" cy="10" r="4" fill="url(#pin-hx)"/><circle cx="62.25" cy="10" r="2.5" fill="#111"/><text x="62.25" y="20" text-anchor="middle" fill="#fff" font-size="5" font-weight="bold" font-family="Arial,sans-serif">SCK</text><circle cx="77.75" cy="10" r="4" fill="url(#pin-hx)"/><circle cx="77.75" cy="10" r="2.5" fill="#111"/><text x="77.75" y="20" text-anchor="middle" fill="#fff" font-size="5" font-weight="bold" font-family="Arial,sans-serif">E+</text><circle cx="93.25" cy="10" r="4" fill="url(#pin-hx)"/><circle cx="93.25" cy="10" r="2.5" fill="#111"/><text x="93.25" y="20" text-anchor="middle" fill="#fff" font-size="5" font-weight="bold" font-family="Arial,sans-serif">E-</text><circle cx="108.75" cy="10" r="4" fill="url(#pin-hx)"/><circle cx="108.75" cy="10" r="2.5" fill="#111"/><text x="108.75" y="20" text-anchor="middle" fill="#fff" font-size="5" font-weight="bold" font-family="Arial,sans-serif">A+</text><circle cx="124.25" cy="10" r="4" fill="url(#pin-hx)"/><circle cx="124.25" cy="10" r="2.5" fill="#111"/><text x="124.25" y="20" text-anchor="middle" fill="#fff" font-size="5" font-weight="bold" font-family="Arial,sans-serif">A-</text><rect x="35" y="31.200000000000003" width="70" height="27.299999999999997" rx="2" fill="#111" stroke="#333"/><text x="70" y="45.239999999999995" text-anchor="middle" fill="#666" font-size="7" font-family="monospace">HX711</text><text x="70" y="74" text-anchor="middle" fill="#fff" font-size="8" font-weight="bold" font-family="Arial,sans-serif" opacity="0.9">HX711</text></svg>
