<svg xmlns="http://www.w3.org/2000/svg" viewBox="0 0 120 100" width="120" height="100">
    <rect x="4" y="4" width="112" height="92" rx="4" fill="#D32F2F" stroke="#B71C1C" stroke-width="2"/>
    <!-- L293D IC -->
    <rect x="40" y="20" width="40" height="60" fill="#212121" rx="2"/>
    <circle cx="45" cy="25" r="2" fill="#555"/>
    <text x="60" y="55" fill="#E0E0E0" font-family="monospace" font-size="10" font-weight="bold" text-anchor="middle" transform="rotate(90 60 55)">L293D</text>
    <rect x="36" y="25" width="4" height="4" fill="#9E9E9E"/><rect x="80" y="25" width="4" height="4" fill="#9E9E9E"/>
    <rect x="36" y="32" width="4" height="4" fill="#9E9E9E"/><rect x="80" y="32" width="4" height="4" fill="#9E9E9E"/>
    <rect x="36" y="39" width="4" height="4" fill="#9E9E9E"/><rect x="80" y="39" width="4" height="4" fill="#9E9E9E"/>
    <rect x="36" y="46" width="4" height="4" fill="#9E9E9E"/><rect x="80" y="46" width="4" height="4" fill="#9E9E9E"/>
    <rect x="36" y="53" width="4" height="4" fill="#9E9E9E"/><rect x="80" y="53" width="4" height="4" fill="#9E9E9E"/>
    <rect x="36" y="60" width="4" height="4" fill="#9E9E9E"/><rect x="80" y="60" width="4" height="4" fill="#9E9E9E"/>
    <rect x="36" y="67" width="4" height="4" fill="#9E9E9E"/><rect x="80" y="67" width="4" height="4" fill="#9E9E9E"/>
    <rect x="36" y="74" width="4" height="4" fill="#9E9E9E"/><rect x="80" y="74" width="4" height="4" fill="#9E9E9E"/>
    <!-- Screw Terminal Left Top (Motor A) -->
    <rect x="4" y="15" width="20" height="30" fill="#1565C0" stroke="#0D47A1"/>
    <circle cx="10" cy="22" r="3" fill="#E0E0E0"/>
    <circle cx="10" cy="38" r="3" fill="#E0E0E0"/>
    <text x="28" y="25" fill="#E0E0E0" font-family="monospace" font-size="8">M1</text>
    <!-- Screw Terminal Left Bottom (Motor B) -->
    <rect x="4" y="50" width="20" height="30" fill="#1565C0" stroke="#0D47A1"/>
    <circle cx="10" cy="57" r="3" fill="#E0E0E0"/>
    <circle cx="10" cy="73" r="3" fill="#E0E0E0"/>
    <text x="28" y="60" fill="#E0E0E0" font-family="monospace" font-size="8">M2</text>
    <!-- Screw Terminal Right (Power) -->
    <rect x="96" y="25" width="20" height="45" fill="#1565C0" stroke="#0D47A1"/>
    <circle cx="110" cy="32" r="3" fill="#E0E0E0"/>
    <circle cx="110" cy="47" r="3" fill="#E0E0E0"/>
    <circle cx="110" cy="62" r="3" fill="#E0E0E0"/>
    <text x="92" y="35" fill="#E0E0E0" font-family="monospace" font-size="7" text-anchor="end">5V</text>
    <text x="92" y="50" fill="#E0E0E0" font-family="monospace" font-size="7" text-anchor="end">GND</text>
    <text x="92" y="65" fill="#E0E0E0" font-family="monospace" font-size="7" text-anchor="end">VCC</text>
    <!-- Bottom Header Pins -->
    <rect x="32" y="86" width="56" height="8" fill="#424242"/>
    <circle cx="35" cy="90" r="2" fill="#FFC107"/>
    <circle cx="45" cy="90" r="2" fill="#FFC107"/>
    <circle cx="55" cy="90" r="2" fill="#FFC107"/>
    <circle cx="65" cy="90" r="2" fill="#FFC107"/>
    <circle cx="75" cy="90" r="2" fill="#FFC107"/>
    <circle cx="85" cy="90" r="2" fill="#FFC107"/>
    <text x="35" y="82" fill="#E0E0E0" font-family="monospace" font-size="6" text-anchor="middle" transform="rotate(-90 35 82)">EN1</text>
    <text x="45" y="82" fill="#E0E0E0" font-family="monospace" font-size="6" text-anchor="middle" transform="rotate(-90 45 82)">IN1</text>
    <text x="55" y="82" fill="#E0E0E0" font-family="monospace" font-size="6" text-anchor="middle" transform="rotate(-90 55 82)">IN2</text>
    <text x="65" y="82" fill="#E0E0E0" font-family="monospace" font-size="6" text-anchor="middle" transform="rotate(-90 65 82)">IN3</text>
    <text x="75" y="82" fill="#E0E0E0" font-family="monospace" font-size="6" text-anchor="middle" transform="rotate(-90 75 82)">IN4</text>
    <text x="85" y="82" fill="#E0E0E0" font-family="monospace" font-size="6" text-anchor="middle" transform="rotate(-90 85 82)">EN2</text>
  </svg>
