<svg xmlns="http://www.w3.org/2000/svg" viewBox="0 0 130 90" width="130" height="90">
  <defs><filter id="sh"><feDropShadow dx="1" dy="2" stdDeviation="2.5" flood-opacity="0.3"/></filter>
  <linearGradient id="bg" x1="0" y1="0" x2="0" y2="1">
    <stop offset="0%" stop-color="#b71c1c"/><stop offset="100%" stop-color="#7f0000"/>
  </linearGradient></defs>
  <rect x="3" y="18" width="124" height="68" rx="4" fill="url(#bg)" stroke="#7f0000" stroke-width="1.5" filter="url(#sh)"/>
  <!-- MAX6675 SOP-8 chip -->
  <rect x="34" y="30" width="62" height="38" rx="2" fill="#111" stroke="#333" stroke-width="1.5"/>
  <circle cx="37" cy="33" r="2" fill="#555"/>
  <text x="65" y="50" text-anchor="middle" font-size="7.5" fill="#888" font-family="monospace">MAX6675</text>
  <text x="65" y="60" text-anchor="middle" font-size="5.5" fill="#666" font-family="monospace">K-Type TC</text>
  <!-- Thermocouple screw terminals -->
  <rect x="4" y="38" width="26" height="22" rx="2" fill="#444" stroke="#333"/>
  <circle cx="12" cy="46" r="5.5" fill="#888" stroke="#666"/><line x1="8" y1="46" x2="16" y2="46" stroke="#555" stroke-width="1.5"/>
  <circle cx="24" cy="46" r="5.5" fill="#888" stroke="#666"/><line x1="20" y1="46" x2="28" y2="46" stroke="#555" stroke-width="1.5"/>
  <text x="12" y="56" text-anchor="middle" font-size="4.5" fill="#ddd" font-family="Arial">T+</text>
  <text x="24" y="56" text-anchor="middle" font-size="4.5" fill="#ddd" font-family="Arial">T-</text>
  <!-- 5-pin header: SO SCK CS GND VCC -->
  <rect x="14" y="6" width="102" height="14" rx="2" fill="#1a1a1a" stroke="#333"/>
  <rect x="18" y="8" width="10" height="10" rx="1" fill="#c8b400"/>
  <rect x="34" y="8" width="10" height="10" rx="1" fill="#c8b400"/>
  <rect x="50" y="8" width="10" height="10" rx="1" fill="#c8b400"/>
  <rect x="66" y="8" width="10" height="10" rx="1" fill="#c8b400"/>
  <rect x="82" y="8" width="10" height="10" rx="1" fill="#c8b400"/>
  <text x="23" y="3" text-anchor="middle" font-size="5" fill="#ddd" font-family="Arial" font-weight="bold">SO</text>
  <text x="39" y="3" text-anchor="middle" font-size="5" fill="#ddd" font-family="Arial" font-weight="bold">SCK</text>
  <text x="55" y="3" text-anchor="middle" font-size="5" fill="#ddd" font-family="Arial" font-weight="bold">CS</text>
  <text x="71" y="3" text-anchor="middle" font-size="5" fill="#ddd" font-family="Arial" font-weight="bold">GND</text>
  <text x="87" y="3" text-anchor="middle" font-size="5" fill="#ddd" font-family="Arial" font-weight="bold">VCC</text>
  <text x="65" y="80" text-anchor="middle" font-size="9" font-weight="bold" fill="white" font-family="Arial">MAX6675 Thermocouple</text>
</svg>