<svg xmlns="http://www.w3.org/2000/svg" viewBox="0 0 120 90" width="120" height="90">
  <defs><filter id="sh"><feDropShadow dx="1" dy="2" stdDeviation="2.5" flood-opacity="0.3"/></filter></defs>
  <!-- Servo body (blue/black metal gear) -->
  <rect x="8" y="22" width="104" height="60" rx="5" fill="#444" stroke="#222" stroke-width="2.5" filter="url(#sh)"/>
  <!-- Mounting tabs -->
  <rect x="0" y="30" width="10" height="30" rx="2" fill="#333" stroke="#222"/>
  <circle cx="5" cy="45" r="3" fill="none" stroke="#555" stroke-width="1.5"/>
  <rect x="110" y="30" width="10" height="30" rx="2" fill="#333" stroke="#222"/>
  <circle cx="115" cy="45" r="3" fill="none" stroke="#555" stroke-width="1.5"/>
  <!-- Output shaft gear hub (metal/silver) -->
  <circle cx="32" cy="22" r="14" fill="#999" stroke="#777" stroke-width="2"/>
  <!-- Gear teeth -->
  <circle cx="32" cy="22" r="10" fill="#888" stroke="#666" stroke-width="1.5"/>
  <circle cx="32" cy="22" r="5" fill="#777"/>
  <!-- Cross-shaped horn mount slots -->
  <line x1="28" y1="22" x2="36" y2="22" stroke="#555" stroke-width="2"/>
  <line x1="32" y1="18" x2="32" y2="26" stroke="#555" stroke-width="2"/>
  <!-- Motor label -->
  <text x="72" y="50" text-anchor="middle" font-size="9" font-weight="bold" fill="#aaa" font-family="Arial">MG90S</text>
  <text x="72" y="63" text-anchor="middle" font-size="7" fill="#888" font-family="Arial">Metal Gear Servo</text>
  <!-- 3-wire connector -->
  <rect x="62" y="8" width="44" height="16" rx="2" fill="#1a1a1a"/>
  <rect x="66" y="10" width="8" height="12" rx="1" fill="#f44336"/>
  <rect x="80" y="10" width="8" height="12" rx="1" fill="#c8b400"/>
  <rect x="94" y="10" width="8" height="12" rx="1" fill="#333"/>
  <text x="70" y="6" text-anchor="middle" font-size="5.5" fill="#ddd" font-family="Arial" font-weight="bold">VCC</text>
  <text x="84" y="6" text-anchor="middle" font-size="5.5" fill="#ddd" font-family="Arial" font-weight="bold">SIG</text>
  <text x="98" y="6" text-anchor="middle" font-size="5.5" fill="#ddd" font-family="Arial" font-weight="bold">GND</text>
</svg>