<svg xmlns="http://www.w3.org/2000/svg" viewBox="0 0 130 95" width="130" height="95">
  <defs>
    <linearGradient id="pcb-mq135" x1="0" y1="0" x2="0" y2="1"><stop offset="0%" stop-color="#1E88E5"/><stop offset="100%" stop-color="#0D47A1"/></linearGradient>
    <linearGradient id="pcbTeal-mq135" x1="0" y1="0" x2="0" y2="1"><stop offset="0%" stop-color="#00939d"/><stop offset="100%" stop-color="#007982"/></linearGradient>
    <linearGradient id="metal-mq135" x1="0" y1="0" x2="0" y2="1"><stop offset="0%" stop-color="#eee"/><stop offset="50%" stop-color="#fff"/><stop offset="100%" stop-color="#999"/></linearGradient>
    <linearGradient id="pin-mq135" x1="0" y1="0" x2="0" y2="1"><stop offset="0%" stop-color="#f5f5f5"/><stop offset="100%" stop-color="#bdbdbd"/></linearGradient>
    <filter id="sh-mq135" x="-8%" y="-8%" width="116%" height="116%"><feDropShadow dx="1" dy="2" stdDeviation="2.5" flood-opacity="0.28"/></filter>
    <filter id="glow-mq135"><feGaussianBlur stdDeviation="1.5" result="b"/><feMerge><feMergeNode in="b"/><feMergeNode in="SourceGraphic"/></feMerge></filter>
  </defs><rect x="3" y="3" width="124" height="89" rx="4" fill="url(#pcb-mq135)" stroke="#0a3d7a" stroke-width="1.5" filter="url(#sh-mq135)"/><circle cx="41" cy="10" r="4" fill="url(#pin-mq135)"/><circle cx="41" cy="10" r="2.5" fill="#111"/><text x="41" y="20" text-anchor="middle" fill="#fff" font-size="6" font-weight="bold" font-family="Arial,sans-serif">VCC</text><circle cx="57" cy="10" r="4" fill="url(#pin-mq135)"/><circle cx="57" cy="10" r="2.5" fill="#111"/><text x="57" y="20" text-anchor="middle" fill="#fff" font-size="6" font-weight="bold" font-family="Arial,sans-serif">GND</text><circle cx="73" cy="10" r="4" fill="url(#pin-mq135)"/><circle cx="73" cy="10" r="2.5" fill="#111"/><text x="73" y="20" text-anchor="middle" fill="#fff" font-size="6" font-weight="bold" font-family="Arial,sans-serif">AO</text><circle cx="89" cy="10" r="4" fill="url(#pin-mq135)"/><circle cx="89" cy="10" r="2.5" fill="#111"/><text x="89" y="20" text-anchor="middle" fill="#fff" font-size="6" font-weight="bold" font-family="Arial,sans-serif">DO</text><text x="65" y="91" text-anchor="middle" fill="#fff" font-size="8" font-weight="bold" font-family="Arial,sans-serif" opacity="0.9">MQ-135</text></svg>
