<svg xmlns="http://www.w3.org/2000/svg" viewBox="0 0 130 95" width="130" height="95">
  <defs>
    <linearGradient id="pcb-mq2" x1="0" y1="0" x2="0" y2="1"><stop offset="0%" stop-color="#1E88E5"/><stop offset="100%" stop-color="#0D47A1"/></linearGradient>
    <linearGradient id="pcbTeal-mq2" x1="0" y1="0" x2="0" y2="1"><stop offset="0%" stop-color="#00939d"/><stop offset="100%" stop-color="#007982"/></linearGradient>
    <linearGradient id="metal-mq2" x1="0" y1="0" x2="0" y2="1"><stop offset="0%" stop-color="#eee"/><stop offset="50%" stop-color="#fff"/><stop offset="100%" stop-color="#999"/></linearGradient>
    <linearGradient id="pin-mq2" x1="0" y1="0" x2="0" y2="1"><stop offset="0%" stop-color="#f5f5f5"/><stop offset="100%" stop-color="#bdbdbd"/></linearGradient>
    <filter id="sh-mq2" x="-8%" y="-8%" width="116%" height="116%"><feDropShadow dx="1" dy="2" stdDeviation="2.5" flood-opacity="0.28"/></filter>
    <filter id="glow-mq2"><feGaussianBlur stdDeviation="1.5" result="b"/><feMerge><feMergeNode in="b"/><feMergeNode in="SourceGraphic"/></feMerge></filter>
  </defs><rect x="25" y="45" width="80" height="45" rx="4" fill="url(#pcb-mq2)" stroke="#0a3d7a" filter="url(#sh-mq2)"/><circle cx="65" cy="38" r="28" fill="#fff" stroke="#bdbdbd" stroke-width="2"/><circle cx="65" cy="38" r="22" fill="#f5f5f5" stroke="#9e9e9e"/><line x1="73" y1="38" x2="85" y2="38" stroke="#bbb" stroke-width="1"/><line x1="71.92820323027551" y1="42" x2="82.32050807568878" y2="48" stroke="#bbb" stroke-width="1"/><line x1="69" y1="44.92820323027551" x2="75" y2="55.32050807568877" stroke="#bbb" stroke-width="1"/><line x1="65" y1="46" x2="65" y2="58" stroke="#bbb" stroke-width="1"/><line x1="61" y1="44.92820323027551" x2="55" y2="55.32050807568878" stroke="#bbb" stroke-width="1"/><line x1="58.07179676972449" y1="42" x2="47.67949192431122" y2="48" stroke="#bbb" stroke-width="1"/><line x1="57" y1="38" x2="45" y2="38" stroke="#bbb" stroke-width="1"/><line x1="58.07179676972449" y1="34" x2="47.67949192431123" y2="28" stroke="#bbb" stroke-width="1"/><line x1="61" y1="31.071796769724493" x2="54.99999999999999" y2="20.67949192431123" stroke="#bbb" stroke-width="1"/><line x1="65" y1="30" x2="65" y2="18" stroke="#bbb" stroke-width="1"/><line x1="69" y1="31.071796769724493" x2="75" y2="20.67949192431123" stroke="#bbb" stroke-width="1"/><line x1="71.9282032302755" y1="34" x2="82.32050807568876" y2="27.999999999999993" stroke="#bbb" stroke-width="1"/><circle cx="65" cy="38" r="6" fill="#e0e0e0" stroke="#999"/><circle cx="41" cy="52" r="3" fill="url(#pin-mq2)"/><circle cx="41" cy="52" r="1.5" fill="#111"/><text x="41" y="62" text-anchor="middle" fill="#fff" font-size="6" font-weight="bold">VCC</text><circle cx="59" cy="52" r="3" fill="url(#pin-mq2)"/><circle cx="59" cy="52" r="1.5" fill="#111"/><text x="59" y="62" text-anchor="middle" fill="#fff" font-size="6" font-weight="bold">GND</text><circle cx="77" cy="52" r="3" fill="url(#pin-mq2)"/><circle cx="77" cy="52" r="1.5" fill="#111"/><text x="77" y="62" text-anchor="middle" fill="#fff" font-size="6" font-weight="bold">AO</text><circle cx="95" cy="52" r="3" fill="url(#pin-mq2)"/><circle cx="95" cy="52" r="1.5" fill="#111"/><text x="95" y="62" text-anchor="middle" fill="#fff" font-size="6" font-weight="bold">DO</text><text x="65" y="84" text-anchor="middle" fill="#fff" font-size="7" font-weight="bold">MQ-2</text></svg>
