<svg xmlns="http://www.w3.org/2000/svg" viewBox="0 0 220 90" width="220" height="90">
  <defs>
    <linearGradient id="pcb-relay8" x1="0" y1="0" x2="0" y2="1"><stop offset="0%" stop-color="#1E88E5"/><stop offset="100%" stop-color="#0D47A1"/></linearGradient>
    <linearGradient id="pcbTeal-relay8" x1="0" y1="0" x2="0" y2="1"><stop offset="0%" stop-color="#00939d"/><stop offset="100%" stop-color="#007982"/></linearGradient>
    <linearGradient id="metal-relay8" x1="0" y1="0" x2="0" y2="1"><stop offset="0%" stop-color="#eee"/><stop offset="50%" stop-color="#fff"/><stop offset="100%" stop-color="#999"/></linearGradient>
    <linearGradient id="pin-relay8" x1="0" y1="0" x2="0" y2="1"><stop offset="0%" stop-color="#f5f5f5"/><stop offset="100%" stop-color="#bdbdbd"/></linearGradient>
    <filter id="sh-relay8" x="-8%" y="-8%" width="116%" height="116%"><feDropShadow dx="1" dy="2" stdDeviation="2.5" flood-opacity="0.28"/></filter>
    <filter id="glow-relay8"><feGaussianBlur stdDeviation="1.5" result="b"/><feMerge><feMergeNode in="b"/><feMergeNode in="SourceGraphic"/></feMerge></filter>
  </defs><rect x="3" y="3" width="214" height="84" rx="4" fill="url(#pcb-relay8)" stroke="#0a3d7a" stroke-width="1.5" filter="url(#sh-relay8)"/><circle cx="38" cy="10" r="4" fill="url(#pin-relay8)"/><circle cx="38" cy="10" r="2.5" fill="#111"/><text x="38" y="20" text-anchor="middle" fill="#fff" font-size="5" font-weight="bold" font-family="Arial,sans-serif">VCC</text><circle cx="54" cy="10" r="4" fill="url(#pin-relay8)"/><circle cx="54" cy="10" r="2.5" fill="#111"/><text x="54" y="20" text-anchor="middle" fill="#fff" font-size="5" font-weight="bold" font-family="Arial,sans-serif">GND</text><circle cx="70" cy="10" r="4" fill="url(#pin-relay8)"/><circle cx="70" cy="10" r="2.5" fill="#111"/><text x="70" y="20" text-anchor="middle" fill="#fff" font-size="5" font-weight="bold" font-family="Arial,sans-serif">IN1</text><circle cx="86" cy="10" r="4" fill="url(#pin-relay8)"/><circle cx="86" cy="10" r="2.5" fill="#111"/><text x="86" y="20" text-anchor="middle" fill="#fff" font-size="5" font-weight="bold" font-family="Arial,sans-serif">IN2</text><circle cx="102" cy="10" r="4" fill="url(#pin-relay8)"/><circle cx="102" cy="10" r="2.5" fill="#111"/><text x="102" y="20" text-anchor="middle" fill="#fff" font-size="5" font-weight="bold" font-family="Arial,sans-serif">IN3</text><circle cx="118" cy="10" r="4" fill="url(#pin-relay8)"/><circle cx="118" cy="10" r="2.5" fill="#111"/><text x="118" y="20" text-anchor="middle" fill="#fff" font-size="5" font-weight="bold" font-family="Arial,sans-serif">IN4</text><circle cx="134" cy="10" r="4" fill="url(#pin-relay8)"/><circle cx="134" cy="10" r="2.5" fill="#111"/><text x="134" y="20" text-anchor="middle" fill="#fff" font-size="5" font-weight="bold" font-family="Arial,sans-serif">IN5</text><circle cx="150" cy="10" r="4" fill="url(#pin-relay8)"/><circle cx="150" cy="10" r="2.5" fill="#111"/><text x="150" y="20" text-anchor="middle" fill="#fff" font-size="5" font-weight="bold" font-family="Arial,sans-serif">IN6</text><circle cx="166" cy="10" r="4" fill="url(#pin-relay8)"/><circle cx="166" cy="10" r="2.5" fill="#111"/><text x="166" y="20" text-anchor="middle" fill="#fff" font-size="5" font-weight="bold" font-family="Arial,sans-serif">IN7</text><circle cx="182" cy="10" r="4" fill="url(#pin-relay8)"/><circle cx="182" cy="10" r="2.5" fill="#111"/><text x="182" y="20" text-anchor="middle" fill="#fff" font-size="5" font-weight="bold" font-family="Arial,sans-serif">IN8</text><text x="110" y="86" text-anchor="middle" fill="#fff" font-size="8" font-weight="bold" font-family="Arial,sans-serif" opacity="0.9">8-Channel Relay</text><rect x="10" y="30" width="200" height="40" fill="#E0E0E0" stroke="#9E9E9E"/><rect x="20" y="45" width="180" height="10" fill="#F44336" opacity="0.8"/></svg>
