<svg xmlns="http://www.w3.org/2000/svg" viewBox="0 0 130 80" width="130" height="80">
  <defs>
    <linearGradient id="pcb-enc" x1="0" y1="0" x2="0" y2="1"><stop offset="0%" stop-color="#1E88E5"/><stop offset="100%" stop-color="#0D47A1"/></linearGradient>
    <linearGradient id="pcbTeal-enc" x1="0" y1="0" x2="0" y2="1"><stop offset="0%" stop-color="#00939d"/><stop offset="100%" stop-color="#007982"/></linearGradient>
    <linearGradient id="metal-enc" x1="0" y1="0" x2="0" y2="1"><stop offset="0%" stop-color="#eee"/><stop offset="50%" stop-color="#fff"/><stop offset="100%" stop-color="#999"/></linearGradient>
    <linearGradient id="pin-enc" x1="0" y1="0" x2="0" y2="1"><stop offset="0%" stop-color="#f5f5f5"/><stop offset="100%" stop-color="#bdbdbd"/></linearGradient>
    <filter id="sh-enc" x="-8%" y="-8%" width="116%" height="116%"><feDropShadow dx="1" dy="2" stdDeviation="2.5" flood-opacity="0.28"/></filter>
    <filter id="glow-enc"><feGaussianBlur stdDeviation="1.5" result="b"/><feMerge><feMergeNode in="b"/><feMergeNode in="SourceGraphic"/></feMerge></filter>
  </defs><rect x="3" y="3" width="124" height="74" rx="4" fill="url(#pcb-enc)" stroke="#0a3d7a" stroke-width="1.5" filter="url(#sh-enc)"/><circle cx="33" cy="10" r="4" fill="url(#pin-enc)"/><circle cx="33" cy="10" r="2.5" fill="#111"/><text x="33" y="20" text-anchor="middle" fill="#fff" font-size="6" font-weight="bold" font-family="Arial,sans-serif">CLK</text><circle cx="49" cy="10" r="4" fill="url(#pin-enc)"/><circle cx="49" cy="10" r="2.5" fill="#111"/><text x="49" y="20" text-anchor="middle" fill="#fff" font-size="6" font-weight="bold" font-family="Arial,sans-serif">DT</text><circle cx="65" cy="10" r="4" fill="url(#pin-enc)"/><circle cx="65" cy="10" r="2.5" fill="#111"/><text x="65" y="20" text-anchor="middle" fill="#fff" font-size="6" font-weight="bold" font-family="Arial,sans-serif">SW</text><circle cx="81" cy="10" r="4" fill="url(#pin-enc)"/><circle cx="81" cy="10" r="2.5" fill="#111"/><text x="81" y="20" text-anchor="middle" fill="#fff" font-size="6" font-weight="bold" font-family="Arial,sans-serif">VCC</text><circle cx="97" cy="10" r="4" fill="url(#pin-enc)"/><circle cx="97" cy="10" r="2.5" fill="#111"/><text x="97" y="20" text-anchor="middle" fill="#fff" font-size="6" font-weight="bold" font-family="Arial,sans-serif">GND</text><text x="65" y="76" text-anchor="middle" fill="#fff" font-size="8" font-weight="bold" font-family="Arial,sans-serif" opacity="0.9">ENCODER</text></svg>
