<svg xmlns="http://www.w3.org/2000/svg" viewBox="0 0 220 95" width="220" height="95">
<rect x="4" y="4" width="212" height="87" rx="3" fill="#059669" stroke="#047857"/>
<rect x="78" y="28" width="64" height="40" rx="2" fill="#111"/>
<text x="110" y="54" text-anchor="middle" fill="#fff" font-size="11" font-weight="bold">Raspberry Pi Pico</text>
<g fill="#D4AF37"><circle cx="14" cy="18" r="4"/><circle cx="206" cy="18" r="4"/><circle cx="14" cy="77" r="4"/><circle cx="206" cy="77" r="4"/></g>
<g fill="#ddd"><circle cx="14" cy="8" r="3"/><circle cx="14" cy="87" r="3"/><circle cx="24" cy="8" r="3"/><circle cx="24" cy="87" r="3"/><circle cx="34" cy="8" r="3"/><circle cx="34" cy="87" r="3"/><circle cx="44" cy="8" r="3"/><circle cx="44" cy="87" r="3"/><circle cx="54" cy="8" r="3"/><circle cx="54" cy="87" r="3"/><circle cx="64" cy="8" r="3"/><circle cx="64" cy="87" r="3"/><circle cx="74" cy="8" r="3"/><circle cx="74" cy="87" r="3"/><circle cx="84" cy="8" r="3"/><circle cx="84" cy="87" r="3"/><circle cx="94" cy="8" r="3"/><circle cx="94" cy="87" r="3"/><circle cx="104" cy="8" r="3"/><circle cx="104" cy="87" r="3"/><circle cx="114" cy="8" r="3"/><circle cx="114" cy="87" r="3"/><circle cx="124" cy="8" r="3"/><circle cx="124" cy="87" r="3"/><circle cx="134" cy="8" r="3"/><circle cx="134" cy="87" r="3"/><circle cx="144" cy="8" r="3"/><circle cx="144" cy="87" r="3"/><circle cx="154" cy="8" r="3"/><circle cx="154" cy="87" r="3"/><circle cx="164" cy="8" r="3"/><circle cx="164" cy="87" r="3"/><circle cx="174" cy="8" r="3"/><circle cx="174" cy="87" r="3"/><circle cx="184" cy="8" r="3"/><circle cx="184" cy="87" r="3"/><circle cx="194" cy="8" r="3"/><circle cx="194" cy="87" r="3"/><circle cx="204" cy="8" r="3"/><circle cx="204" cy="87" r="3"/>
<circle cx="120" cy="80" r="3"/><circle cx="130" cy="80" r="3"/><circle cx="140" cy="80" r="3"/></g>
<g fill="#111"><circle cx="14" cy="8" r="1.5"/><circle cx="14" cy="87" r="1.5"/><circle cx="24" cy="8" r="1.5"/><circle cx="24" cy="87" r="1.5"/><circle cx="34" cy="8" r="1.5"/><circle cx="34" cy="87" r="1.5"/><circle cx="44" cy="8" r="1.5"/><circle cx="44" cy="87" r="1.5"/><circle cx="54" cy="8" r="1.5"/><circle cx="54" cy="87" r="1.5"/><circle cx="64" cy="8" r="1.5"/><circle cx="64" cy="87" r="1.5"/><circle cx="74" cy="8" r="1.5"/><circle cx="74" cy="87" r="1.5"/><circle cx="84" cy="8" r="1.5"/><circle cx="84" cy="87" r="1.5"/><circle cx="94" cy="8" r="1.5"/><circle cx="94" cy="87" r="1.5"/><circle cx="104" cy="8" r="1.5"/><circle cx="104" cy="87" r="1.5"/><circle cx="114" cy="8" r="1.5"/><circle cx="114" cy="87" r="1.5"/><circle cx="124" cy="8" r="1.5"/><circle cx="124" cy="87" r="1.5"/><circle cx="134" cy="8" r="1.5"/><circle cx="134" cy="87" r="1.5"/><circle cx="144" cy="8" r="1.5"/><circle cx="144" cy="87" r="1.5"/><circle cx="154" cy="8" r="1.5"/><circle cx="154" cy="87" r="1.5"/><circle cx="164" cy="8" r="1.5"/><circle cx="164" cy="87" r="1.5"/><circle cx="174" cy="8" r="1.5"/><circle cx="174" cy="87" r="1.5"/><circle cx="184" cy="8" r="1.5"/><circle cx="184" cy="87" r="1.5"/><circle cx="194" cy="8" r="1.5"/><circle cx="194" cy="87" r="1.5"/><circle cx="204" cy="8" r="1.5"/><circle cx="204" cy="87" r="1.5"/>
<circle cx="120" cy="80" r="1.5"/><circle cx="130" cy="80" r="1.5"/><circle cx="140" cy="80" r="1.5"/></g>
</svg>
