<svg xmlns="http://www.w3.org/2000/svg" viewBox="0 0 180 120" width="180" height="120">
  <defs><filter id="sh"><feDropShadow dx="1" dy="2" stdDeviation="3" flood-opacity="0.3"/></filter>
  <linearGradient id="bg" x1="0" y1="0" x2="0" y2="1">
    <stop offset="0%" stop-color="#37474f"/><stop offset="100%" stop-color="#263238"/>
  </linearGradient></defs>
  <rect x="2" y="2" width="176" height="116" rx="4" fill="url(#bg)" stroke="#263238" stroke-width="2" filter="url(#sh)"/>
  <!-- SIM900A module (large metal can) -->
  <rect x="14" y="14" width="100" height="72" rx="3" fill="#555" stroke="#777" stroke-width="1.5"/>
  <rect x="18" y="18" width="92" height="64" rx="2" fill="#666" stroke="#888"/>
  <text x="64" y="46" text-anchor="middle" font-size="9" fill="#aaa" font-family="monospace">SIM900A</text>
  <text x="64" y="58" text-anchor="middle" font-size="6.5" fill="#888" font-family="monospace">GSM/GPRS</text>
  <text x="64" y="68" text-anchor="middle" font-size="6" fill="#777" font-family="monospace">900/1800MHz</text>
  <!-- SIM card slot -->
  <rect x="126" y="30" width="44" height="30" rx="2" fill="#888" stroke="#666"/>
  <rect x="130" y="34" width="36" height="22" rx="1" fill="#444"/>
  <text x="148" y="48" text-anchor="middle" font-size="5.5" fill="#aaa" font-family="Arial">SIM CARD</text>
  <!-- Status LED -->
  <circle cx="130" cy="20" r="5" fill="#4caf50"/>
  <text x="130" y="28" text-anchor="middle" font-size="4.5" fill="#aaa" font-family="Arial">NET</text>
  <!-- Antenna pad -->
  <rect x="148" y="72" width="20" height="12" rx="2" fill="#c0c0c0" stroke="#888"/>
  <text x="158" y="81" text-anchor="middle" font-size="5.5" fill="#555" font-family="Arial">ANT</text>
  <!-- Pin headers: UART + power -->
  <rect x="14" y="90" width="100" height="14" rx="1" fill="#1a1a1a"/>
  <text x="64" y="99" text-anchor="middle" font-size="5" fill="#aaa" font-family="Arial">GND VCC RXD TXD DTR CTS RTS RI</text>
  <text x="90" y="113" text-anchor="middle" font-size="8.5" font-weight="bold" fill="white" font-family="Arial">SIM900A GSM Module</text>
</svg>