<svg xmlns="http://www.w3.org/2000/svg" viewBox="0 0 120 72" width="120" height="72">
  <defs>
    <linearGradient id="pcb-snd" x1="0" y1="0" x2="0" y2="1"><stop offset="0%" stop-color="#1E88E5"/><stop offset="100%" stop-color="#0D47A1"/></linearGradient>
    <linearGradient id="pcbTeal-snd" x1="0" y1="0" x2="0" y2="1"><stop offset="0%" stop-color="#00939d"/><stop offset="100%" stop-color="#007982"/></linearGradient>
    <linearGradient id="metal-snd" x1="0" y1="0" x2="0" y2="1"><stop offset="0%" stop-color="#eee"/><stop offset="50%" stop-color="#fff"/><stop offset="100%" stop-color="#999"/></linearGradient>
    <linearGradient id="pin-snd" x1="0" y1="0" x2="0" y2="1"><stop offset="0%" stop-color="#f5f5f5"/><stop offset="100%" stop-color="#bdbdbd"/></linearGradient>
    <filter id="sh-snd" x="-8%" y="-8%" width="116%" height="116%"><feDropShadow dx="1" dy="2" stdDeviation="2.5" flood-opacity="0.28"/></filter>
    <filter id="glow-snd"><feGaussianBlur stdDeviation="1.5" result="b"/><feMerge><feMergeNode in="b"/><feMergeNode in="SourceGraphic"/></feMerge></filter>
  </defs><rect x="3" y="3" width="114" height="66" rx="4" fill="url(#pcb-snd)" stroke="#0a3d7a" stroke-width="1.5" filter="url(#sh-snd)"/><circle cx="36" cy="10" r="4" fill="url(#pin-snd)"/><circle cx="36" cy="10" r="2.5" fill="#111"/><text x="36" y="20" text-anchor="middle" fill="#fff" font-size="6" font-weight="bold" font-family="Arial,sans-serif">VCC</text><circle cx="52" cy="10" r="4" fill="url(#pin-snd)"/><circle cx="52" cy="10" r="2.5" fill="#111"/><text x="52" y="20" text-anchor="middle" fill="#fff" font-size="6" font-weight="bold" font-family="Arial,sans-serif">GND</text><circle cx="68" cy="10" r="4" fill="url(#pin-snd)"/><circle cx="68" cy="10" r="2.5" fill="#111"/><text x="68" y="20" text-anchor="middle" fill="#fff" font-size="6" font-weight="bold" font-family="Arial,sans-serif">AO</text><circle cx="84" cy="10" r="4" fill="url(#pin-snd)"/><circle cx="84" cy="10" r="2.5" fill="#111"/><text x="84" y="20" text-anchor="middle" fill="#fff" font-size="6" font-weight="bold" font-family="Arial,sans-serif">DO</text><text x="60" y="68" text-anchor="middle" fill="#fff" font-size="8" font-weight="bold" font-family="Arial,sans-serif" opacity="0.9">SOUND</text></svg>
