<svg xmlns="http://www.w3.org/2000/svg" viewBox="0 0 130 78" width="130" height="78">
  <defs>
    <linearGradient id="pcb-acs" x1="0" y1="0" x2="0" y2="1"><stop offset="0%" stop-color="#1E88E5"/><stop offset="100%" stop-color="#0D47A1"/></linearGradient>
    <linearGradient id="pcbTeal-acs" x1="0" y1="0" x2="0" y2="1"><stop offset="0%" stop-color="#00939d"/><stop offset="100%" stop-color="#007982"/></linearGradient>
    <linearGradient id="metal-acs" x1="0" y1="0" x2="0" y2="1"><stop offset="0%" stop-color="#eee"/><stop offset="50%" stop-color="#fff"/><stop offset="100%" stop-color="#999"/></linearGradient>
    <linearGradient id="pin-acs" x1="0" y1="0" x2="0" y2="1"><stop offset="0%" stop-color="#f5f5f5"/><stop offset="100%" stop-color="#bdbdbd"/></linearGradient>
    <filter id="sh-acs" x="-8%" y="-8%" width="116%" height="116%"><feDropShadow dx="1" dy="2" stdDeviation="2.5" flood-opacity="0.28"/></filter>
    <filter id="glow-acs"><feGaussianBlur stdDeviation="1.5" result="b"/><feMerge><feMergeNode in="b"/><feMergeNode in="SourceGraphic"/></feMerge></filter>
  </defs><rect x="3" y="18" width="124" height="56" rx="4" fill="url(#pcb-acs)" stroke="#0a3d7a" stroke-width="1.5" filter="url(#sh-acs)"/><rect x="27" y="4" width="76" height="16" rx="2" fill="#1a1a1a" stroke="#333"/><rect x="32" y="7" width="6" height="10" fill="url(#pin-acs)" rx="0.5"/><text x="35" y="3" text-anchor="middle" fill="#fff" font-size="6" font-weight="bold" font-family="Arial,sans-serif">VCC</text><rect x="44" y="7" width="6" height="10" fill="url(#pin-acs)" rx="0.5"/><text x="47" y="3" text-anchor="middle" fill="#fff" font-size="6" font-weight="bold" font-family="Arial,sans-serif">GND</text><rect x="56" y="7" width="6" height="10" fill="url(#pin-acs)" rx="0.5"/><text x="59" y="3" text-anchor="middle" fill="#fff" font-size="6" font-weight="bold" font-family="Arial,sans-serif">OUT</text><rect x="68" y="7" width="6" height="10" fill="url(#pin-acs)" rx="0.5"/><text x="71" y="3" text-anchor="middle" fill="#fff" font-size="6" font-weight="bold" font-family="Arial,sans-serif">IP+</text><rect x="80" y="7" width="6" height="10" fill="url(#pin-acs)" rx="0.5"/><text x="83" y="3" text-anchor="middle" fill="#fff" font-size="6" font-weight="bold" font-family="Arial,sans-serif">IP-</text><text x="65" y="74" text-anchor="middle" fill="#fff" font-size="8" font-weight="bold" font-family="Arial,sans-serif" opacity="0.9">ACS712</text></svg>
