<svg xmlns="http://www.w3.org/2000/svg" viewBox="0 0 200 80" width="200" height="80">
  <defs>
    <linearGradient id="pcb-nano" x1="0" y1="0" x2="0" y2="1"><stop offset="0%" stop-color="#1E88E5"/><stop offset="100%" stop-color="#0D47A1"/></linearGradient>
    <linearGradient id="pcbTeal-nano" x1="0" y1="0" x2="0" y2="1"><stop offset="0%" stop-color="#00939d"/><stop offset="100%" stop-color="#007982"/></linearGradient>
    <linearGradient id="metal-nano" x1="0" y1="0" x2="0" y2="1"><stop offset="0%" stop-color="#eee"/><stop offset="50%" stop-color="#fff"/><stop offset="100%" stop-color="#999"/></linearGradient>
    <linearGradient id="pin-nano" x1="0" y1="0" x2="0" y2="1"><stop offset="0%" stop-color="#f5f5f5"/><stop offset="100%" stop-color="#bdbdbd"/></linearGradient>
    <filter id="sh-nano" x="-8%" y="-8%" width="116%" height="116%"><feDropShadow dx="1" dy="2" stdDeviation="2.5" flood-opacity="0.28"/></filter>
    <filter id="glow-nano"><feGaussianBlur stdDeviation="1.5" result="b"/><feMerge><feMergeNode in="b"/><feMergeNode in="SourceGraphic"/></feMerge></filter>
  </defs><rect x="6" y="12" width="188" height="56" rx="4" fill="url(#pcbTeal-nano)" stroke="#00a8b0" filter="url(#sh-nano)"/><rect x="0" y="28" width="10" height="24" fill="url(#metal-nano)" rx="1"/><rect x="190" y="28" width="10" height="24" fill="url(#metal-nano)" rx="1"/><rect x="14" y="6" width="172" height="8" fill="#111"/><rect x="14" y="66" width="172" height="8" fill="#111"/><rect x="18" y="7" width="5" height="6" fill="url(#pin-nano)"/><rect x="18" y="67" width="5" height="6" fill="url(#pin-nano)"/><rect x="29" y="7" width="5" height="6" fill="url(#pin-nano)"/><rect x="29" y="67" width="5" height="6" fill="url(#pin-nano)"/><rect x="40" y="7" width="5" height="6" fill="url(#pin-nano)"/><rect x="40" y="67" width="5" height="6" fill="url(#pin-nano)"/><rect x="51" y="7" width="5" height="6" fill="url(#pin-nano)"/><rect x="51" y="67" width="5" height="6" fill="url(#pin-nano)"/><rect x="62" y="7" width="5" height="6" fill="url(#pin-nano)"/><rect x="62" y="67" width="5" height="6" fill="url(#pin-nano)"/><rect x="73" y="7" width="5" height="6" fill="url(#pin-nano)"/><rect x="73" y="67" width="5" height="6" fill="url(#pin-nano)"/><rect x="84" y="7" width="5" height="6" fill="url(#pin-nano)"/><rect x="84" y="67" width="5" height="6" fill="url(#pin-nano)"/><rect x="95" y="7" width="5" height="6" fill="url(#pin-nano)"/><rect x="95" y="67" width="5" height="6" fill="url(#pin-nano)"/><rect x="106" y="7" width="5" height="6" fill="url(#pin-nano)"/><rect x="106" y="67" width="5" height="6" fill="url(#pin-nano)"/><rect x="117" y="7" width="5" height="6" fill="url(#pin-nano)"/><rect x="117" y="67" width="5" height="6" fill="url(#pin-nano)"/><rect x="128" y="7" width="5" height="6" fill="url(#pin-nano)"/><rect x="128" y="67" width="5" height="6" fill="url(#pin-nano)"/><rect x="139" y="7" width="5" height="6" fill="url(#pin-nano)"/><rect x="139" y="67" width="5" height="6" fill="url(#pin-nano)"/><rect x="150" y="7" width="5" height="6" fill="url(#pin-nano)"/><rect x="150" y="67" width="5" height="6" fill="url(#pin-nano)"/><rect x="161" y="7" width="5" height="6" fill="url(#pin-nano)"/><rect x="161" y="67" width="5" height="6" fill="url(#pin-nano)"/><rect x="172" y="7" width="5" height="6" fill="url(#pin-nano)"/><rect x="172" y="67" width="5" height="6" fill="url(#pin-nano)"/><rect x="72" y="28" width="56" height="24" rx="2" fill="#111"/><text x="100" y="44" text-anchor="middle" fill="#fff" font-size="9" font-weight="bold">ATmega328</text><text x="100" y="56" text-anchor="middle" fill="#fff" font-size="8">NANO</text><circle cx="175" cy="20" r="3" fill="#F44336"/></svg>
