<svg xmlns="http://www.w3.org/2000/svg" viewBox="0 0 120 90" width="120" height="90">
  <defs><filter id="sh"><feDropShadow dx="1" dy="2" stdDeviation="2.5" flood-opacity="0.3"/></filter>
  <linearGradient id="bg" x1="0" y1="0" x2="0" y2="1">
    <stop offset="0%" stop-color="#f57f17"/><stop offset="100%" stop-color="#e65100"/>
  </linearGradient></defs>
  <rect x="3" y="18" width="114" height="68" rx="4" fill="url(#bg)" stroke="#e65100" stroke-width="1.5" filter="url(#sh)"/>
  <!-- BH1750 chip (WSOF6I tiny package) -->
  <rect x="34" y="32" width="52" height="36" rx="2" fill="#111" stroke="#333" stroke-width="1.5"/>
  <circle cx="37" cy="35" r="2" fill="#555"/>
  <!-- Light sensing window (shows through clear package) -->
  <rect x="42" y="38" width="36" height="24" rx="1" fill="#1a1a1a" stroke="#555"/>
  <circle cx="60" cy="50" r="10" fill="#222" stroke="#444"/>
  <!-- Sunlight rays (visible light spectrum) -->
  <circle cx="60" cy="50" r="5" fill="#ffeb3b" opacity="0.9"/>
  <!-- Label -->
  <text x="60" y="76" text-anchor="middle" font-size="5.5" fill="#888" font-family="monospace">BH1750FVI</text>
  <!-- 5-pin header: VCC GND SCL SDA ADDR -->
  <rect x="12" y="6" width="96" height="14" rx="2" fill="#1a1a1a" stroke="#333"/>
  <rect x="16" y="8" width="10" height="10" rx="1" fill="#c8b400"/>
  <rect x="32" y="8" width="10" height="10" rx="1" fill="#c8b400"/>
  <rect x="48" y="8" width="10" height="10" rx="1" fill="#c8b400"/>
  <rect x="64" y="8" width="10" height="10" rx="1" fill="#c8b400"/>
  <rect x="80" y="8" width="10" height="10" rx="1" fill="#c8b400"/>
  <text x="21" y="3" text-anchor="middle" font-size="5" fill="#ddd" font-family="Arial" font-weight="bold">VCC</text>
  <text x="37" y="3" text-anchor="middle" font-size="5" fill="#ddd" font-family="Arial" font-weight="bold">GND</text>
  <text x="53" y="3" text-anchor="middle" font-size="5" fill="#ddd" font-family="Arial" font-weight="bold">SCL</text>
  <text x="69" y="3" text-anchor="middle" font-size="5" fill="#ddd" font-family="Arial" font-weight="bold">SDA</text>
  <text x="85" y="3" text-anchor="middle" font-size="5" fill="#ddd" font-family="Arial" font-weight="bold">ADR</text>
  <text x="60" y="80" text-anchor="middle" font-size="9" font-weight="bold" fill="white" font-family="Arial">BH1750 Lux Sensor</text>
</svg>