<svg xmlns="http://www.w3.org/2000/svg" viewBox="0 0 80 110" width="80" height="110">
  <defs><linearGradient id="dhtPcb" x1="0" y1="0" x2="0" y2="1"><stop offset="0%" stop-color="#1E88E5"/><stop offset="100%" stop-color="#1565C0"/></linearGradient></defs>
  <rect x="10" y="2" width="60" height="40" rx="3" fill="url(#dhtPcb)" stroke="#0D47A1"/>
  <text x="18.5" y="18" font-size="5" fill="#fff" font-weight="bold" text-anchor="middle">VCC</text><text x="32.5" y="18" font-size="5" fill="#fff" font-weight="bold" text-anchor="middle">DAT</text><text x="46.5" y="18" font-size="5" fill="#fff" font-weight="bold" text-anchor="middle">NC</text><text x="60.5" y="18" font-size="5" fill="#fff" font-weight="bold" text-anchor="middle">GND</text>
  <g fill="#ddd"><circle cx="18.5" cy="10" r="3"/><circle cx="32.5" cy="10" r="3"/><circle cx="46.5" cy="10" r="3"/><circle cx="60.5" cy="10" r="3"/></g>
  <g fill="#111"><circle cx="18.5" cy="10" r="1.5"/><circle cx="32.5" cy="10" r="1.5"/><circle cx="46.5" cy="10" r="1.5"/><circle cx="60.5" cy="10" r="1.5"/></g>
  <rect x="24" y="44" width="32" height="56" rx="16" fill="#f5f5f5" stroke="#bdbdbd" stroke-width="1.5"/>
  <rect x="28" y="48" width="24" height="48" rx="12" fill="#eee"/>
  <rect x="30" y="50" width="20" height="8" rx="2" fill="#1565C0" opacity="0.3"/>
  <text x="40" y="106" text-anchor="middle" fill="#555" font-size="8" font-weight="bold">DHT22</text>
</svg>
