<svg xmlns="http://www.w3.org/2000/svg" viewBox="0 0 120 126" width="120" height="126">
  <defs>
    <linearGradient id="pcb-drv" x1="0" y1="0" x2="0" y2="1"><stop offset="0%" stop-color="#1E88E5"/><stop offset="100%" stop-color="#0D47A1"/></linearGradient>
    <linearGradient id="pcbTeal-drv" x1="0" y1="0" x2="0" y2="1"><stop offset="0%" stop-color="#00939d"/><stop offset="100%" stop-color="#007982"/></linearGradient>
    <linearGradient id="metal-drv" x1="0" y1="0" x2="0" y2="1"><stop offset="0%" stop-color="#eee"/><stop offset="50%" stop-color="#fff"/><stop offset="100%" stop-color="#999"/></linearGradient>
    <linearGradient id="pin-drv" x1="0" y1="0" x2="0" y2="1"><stop offset="0%" stop-color="#f5f5f5"/><stop offset="100%" stop-color="#bdbdbd"/></linearGradient>
    <filter id="sh-drv" x="-8%" y="-8%" width="116%" height="116%"><feDropShadow dx="1" dy="2" stdDeviation="2.5" flood-opacity="0.28"/></filter>
    <filter id="glow-drv"><feGaussianBlur stdDeviation="1.5" result="b"/><feMerge><feMergeNode in="b"/><feMergeNode in="SourceGraphic"/></feMerge></filter>
  </defs><rect x="10" y="10" width="100" height="106" rx="4" fill="#9C27B0" stroke="#333"/><rect x="30" y="30" width="60" height="66" rx="2" fill="#111" stroke="#000"/><circle cx="60" cy="106" r="6" fill="#ccc" stroke="#888"/><circle cx="60" cy="106" r="4" fill="#aaa"/><circle cx="15" cy="20" r="4" fill="#e0e0e0"/><circle cx="15" cy="20" r="2.5" fill="#111"/><circle cx="105" cy="20" r="4" fill="#e0e0e0"/><circle cx="105" cy="20" r="2.5" fill="#111"/><circle cx="15" cy="32" r="4" fill="#e0e0e0"/><circle cx="15" cy="32" r="2.5" fill="#111"/><circle cx="105" cy="32" r="4" fill="#e0e0e0"/><circle cx="105" cy="32" r="2.5" fill="#111"/><circle cx="15" cy="44" r="4" fill="#e0e0e0"/><circle cx="15" cy="44" r="2.5" fill="#111"/><circle cx="105" cy="44" r="4" fill="#e0e0e0"/><circle cx="105" cy="44" r="2.5" fill="#111"/><circle cx="15" cy="56" r="4" fill="#e0e0e0"/><circle cx="15" cy="56" r="2.5" fill="#111"/><circle cx="105" cy="56" r="4" fill="#e0e0e0"/><circle cx="105" cy="56" r="2.5" fill="#111"/><circle cx="15" cy="68" r="4" fill="#e0e0e0"/><circle cx="15" cy="68" r="2.5" fill="#111"/><circle cx="105" cy="68" r="4" fill="#e0e0e0"/><circle cx="105" cy="68" r="2.5" fill="#111"/><circle cx="15" cy="80" r="4" fill="#e0e0e0"/><circle cx="15" cy="80" r="2.5" fill="#111"/><circle cx="105" cy="80" r="4" fill="#e0e0e0"/><circle cx="105" cy="80" r="2.5" fill="#111"/><circle cx="15" cy="92" r="4" fill="#e0e0e0"/><circle cx="15" cy="92" r="2.5" fill="#111"/><circle cx="105" cy="92" r="4" fill="#e0e0e0"/><circle cx="105" cy="92" r="2.5" fill="#111"/><circle cx="15" cy="104" r="4" fill="#e0e0e0"/><circle cx="15" cy="104" r="2.5" fill="#111"/><circle cx="105" cy="104" r="4" fill="#e0e0e0"/><circle cx="105" cy="104" r="2.5" fill="#111"/><text x="60" y="63" text-anchor="middle" fill="#ccc" font-size="8" font-family="Arial,sans-serif" transform="rotate(90, 60, 63)">DRV8825</text></svg>
