<svg xmlns="http://www.w3.org/2000/svg" viewBox="0 0 280 100" width="280" height="100">
  <defs>
    <linearGradient id="pcb-esp" x1="0" y1="0" x2="0" y2="1"><stop offset="0%" stop-color="#1E88E5"/><stop offset="100%" stop-color="#0D47A1"/></linearGradient>
    <linearGradient id="pcbTeal-esp" x1="0" y1="0" x2="0" y2="1"><stop offset="0%" stop-color="#00939d"/><stop offset="100%" stop-color="#007982"/></linearGradient>
    <linearGradient id="metal-esp" x1="0" y1="0" x2="0" y2="1"><stop offset="0%" stop-color="#eee"/><stop offset="50%" stop-color="#fff"/><stop offset="100%" stop-color="#999"/></linearGradient>
    <linearGradient id="pin-esp" x1="0" y1="0" x2="0" y2="1"><stop offset="0%" stop-color="#f5f5f5"/><stop offset="100%" stop-color="#bdbdbd"/></linearGradient>
    <filter id="sh-esp" x="-8%" y="-8%" width="116%" height="116%"><feDropShadow dx="1" dy="2" stdDeviation="2.5" flood-opacity="0.28"/></filter>
    <filter id="glow-esp"><feGaussianBlur stdDeviation="1.5" result="b"/><feMerge><feMergeNode in="b"/><feMergeNode in="SourceGraphic"/></feMerge></filter>
  </defs><rect x="4" y="8" width="272" height="84" rx="4" fill="#111" stroke="#333" filter="url(#sh-esp)"/><rect x="95" y="22" width="90" height="46" rx="3" fill="#2a2a2a" stroke="#444"/><rect x="103" y="30" width="74" height="30" rx="2" fill="#8B4513" opacity="0.35" stroke="#5D4037"/><text x="140" y="50" text-anchor="middle" fill="#fff" font-size="10" font-weight="bold">ESP32</text><text x="140" y="62" text-anchor="middle" fill="#aaa" font-size="7">WROOM-32</text><rect x="8" y="4" width="264" height="8" fill="#0a0a0a"/><rect x="8" y="88" width="264" height="8" fill="#0a0a0a"/><rect x="12" y="2" width="5" height="8" fill="url(#pin-esp)"/><rect x="12" y="90" width="5" height="8" fill="url(#pin-esp)"/><rect x="25.5" y="2" width="5" height="8" fill="url(#pin-esp)"/><rect x="25.5" y="90" width="5" height="8" fill="url(#pin-esp)"/><rect x="39" y="2" width="5" height="8" fill="url(#pin-esp)"/><rect x="39" y="90" width="5" height="8" fill="url(#pin-esp)"/><rect x="52.5" y="2" width="5" height="8" fill="url(#pin-esp)"/><rect x="52.5" y="90" width="5" height="8" fill="url(#pin-esp)"/><rect x="66" y="2" width="5" height="8" fill="url(#pin-esp)"/><rect x="66" y="90" width="5" height="8" fill="url(#pin-esp)"/><rect x="79.5" y="2" width="5" height="8" fill="url(#pin-esp)"/><rect x="79.5" y="90" width="5" height="8" fill="url(#pin-esp)"/><rect x="93" y="2" width="5" height="8" fill="url(#pin-esp)"/><rect x="93" y="90" width="5" height="8" fill="url(#pin-esp)"/><rect x="106.5" y="2" width="5" height="8" fill="url(#pin-esp)"/><rect x="106.5" y="90" width="5" height="8" fill="url(#pin-esp)"/><rect x="120" y="2" width="5" height="8" fill="url(#pin-esp)"/><rect x="120" y="90" width="5" height="8" fill="url(#pin-esp)"/><rect x="133.5" y="2" width="5" height="8" fill="url(#pin-esp)"/><rect x="133.5" y="90" width="5" height="8" fill="url(#pin-esp)"/><rect x="147" y="2" width="5" height="8" fill="url(#pin-esp)"/><rect x="147" y="90" width="5" height="8" fill="url(#pin-esp)"/><rect x="160.5" y="2" width="5" height="8" fill="url(#pin-esp)"/><rect x="160.5" y="90" width="5" height="8" fill="url(#pin-esp)"/><rect x="174" y="2" width="5" height="8" fill="url(#pin-esp)"/><rect x="174" y="90" width="5" height="8" fill="url(#pin-esp)"/><rect x="187.5" y="2" width="5" height="8" fill="url(#pin-esp)"/><rect x="187.5" y="90" width="5" height="8" fill="url(#pin-esp)"/><rect x="201" y="2" width="5" height="8" fill="url(#pin-esp)"/><rect x="201" y="90" width="5" height="8" fill="url(#pin-esp)"/><rect x="214.5" y="2" width="5" height="8" fill="url(#pin-esp)"/><rect x="214.5" y="90" width="5" height="8" fill="url(#pin-esp)"/><rect x="228" y="2" width="5" height="8" fill="url(#pin-esp)"/><rect x="228" y="90" width="5" height="8" fill="url(#pin-esp)"/><rect x="241.5" y="2" width="5" height="8" fill="url(#pin-esp)"/><rect x="241.5" y="90" width="5" height="8" fill="url(#pin-esp)"/><rect x="255" y="2" width="5" height="8" fill="url(#pin-esp)"/><rect x="255" y="90" width="5" height="8" fill="url(#pin-esp)"/><rect x="6" y="38" width="14" height="24" fill="url(#metal-esp)" rx="1"/><circle cx="258" cy="50" r="5" fill="#333" stroke="#4CAF50" stroke-width="2"/><circle cx="258" cy="50" r="2" fill="#4CAF50"/></svg>
