<svg xmlns="http://www.w3.org/2000/svg" viewBox="0 0 130 95" width="130" height="95">
  <defs>
    <filter id="sh-flame-sensor" x="-8%" y="-8%" width="116%" height="116%"><feDropShadow dx="1" dy="2" stdDeviation="2.5" flood-opacity="0.28"/></filter>
  </defs>
  <rect x="5" y="15" width="120" height="75" rx="4" fill="#4caf50" stroke="#1b5e20" stroke-width="1.5" filter="url(#sh-flame-sensor)"/>
  
  <!-- PIN HEADER BLACK BASE -->
  <rect x="33.0" y="6" width="60" height="14" rx="2" fill="#1a1a1a" stroke="#333"/>
  
        <rect x="37.0" y="7" width="8" height="10" fill="#bdbdbd" rx="1"/>
        <text x="41.0" y="5" text-anchor="middle" fill="#fff" font-size="5" font-weight="bold" font-family="Arial,sans-serif">VCC</text>
        
        <rect x="51.0" y="7" width="8" height="10" fill="#bdbdbd" rx="1"/>
        <text x="55.0" y="5" text-anchor="middle" fill="#fff" font-size="5" font-weight="bold" font-family="Arial,sans-serif">GND</text>
        
        <rect x="65.0" y="7" width="8" height="10" fill="#bdbdbd" rx="1"/>
        <text x="69.0" y="5" text-anchor="middle" fill="#fff" font-size="5" font-weight="bold" font-family="Arial,sans-serif">DO</text>
        
        <rect x="79.0" y="7" width="8" height="10" fill="#bdbdbd" rx="1"/>
        <text x="83.0" y="5" text-anchor="middle" fill="#fff" font-size="5" font-weight="bold" font-family="Arial,sans-serif">AO</text>
        
  
  <!-- CUSTOM GRAPHICS -->
  <rect x="30" y="40" width="15" height="15" fill="#111"/><circle cx="15" cy="50" r="8" fill="#212121"/><path d="M15,42 Q25,50 15,58" stroke="#fff" stroke-width="1" fill="none"/><rect x="60" y="45" width="8" height="8" fill="#333"/><circle cx="64" cy="49" r="3" fill="#00bcd4"/>
  
  <!-- COMPONENT NAME -->
  <text x="65" y="85" text-anchor="middle" fill="#fff" font-size="8" font-weight="bold" font-family="Arial,sans-serif" opacity="0.9">FLAME</text>
</svg>