<svg xmlns="http://www.w3.org/2000/svg" viewBox="0 0 100 90" width="100" height="90">
  <defs>
    <linearGradient id="pcb-ldr" x1="0" y1="0" x2="0" y2="1"><stop offset="0%" stop-color="#1E88E5"/><stop offset="100%" stop-color="#0D47A1"/></linearGradient>
    <linearGradient id="pcbTeal-ldr" x1="0" y1="0" x2="0" y2="1"><stop offset="0%" stop-color="#00939d"/><stop offset="100%" stop-color="#007982"/></linearGradient>
    <linearGradient id="metal-ldr" x1="0" y1="0" x2="0" y2="1"><stop offset="0%" stop-color="#eee"/><stop offset="50%" stop-color="#fff"/><stop offset="100%" stop-color="#999"/></linearGradient>
    <linearGradient id="pin-ldr" x1="0" y1="0" x2="0" y2="1"><stop offset="0%" stop-color="#f5f5f5"/><stop offset="100%" stop-color="#bdbdbd"/></linearGradient>
    <filter id="sh-ldr" x="-8%" y="-8%" width="116%" height="116%"><feDropShadow dx="1" dy="2" stdDeviation="2.5" flood-opacity="0.28"/></filter>
    <filter id="glow-ldr"><feGaussianBlur stdDeviation="1.5" result="b"/><feMerge><feMergeNode in="b"/><feMergeNode in="SourceGraphic"/></feMerge></filter>
  </defs><rect x="15" y="50" width="70" height="32" rx="3" fill="url(#pcb-ldr)" stroke="#0a3d7a"/><circle cx="50" cy="32" r="22" fill="#fff" stroke="#bdbdbd" stroke-width="2"/><path d="M50 14 L58 28 L72 30 L62 40 L64 54 L50 46 L36 54 L38 40 L28 30 L42 28 Z" fill="#FFD54F" stroke="#FFA000" stroke-width="1"/><rect x="28" y="52" width="6" height="8" fill="url(#pin-ldr)"/><text x="31" y="50" text-anchor="middle" fill="#fff" font-size="6" font-weight="bold">VCC</text><rect x="50" y="52" width="6" height="8" fill="url(#pin-ldr)"/><text x="53" y="50" text-anchor="middle" fill="#fff" font-size="6" font-weight="bold">GND</text><rect x="72" y="52" width="6" height="8" fill="url(#pin-ldr)"/><text x="75" y="50" text-anchor="middle" fill="#fff" font-size="6" font-weight="bold">OUT</text></svg>
