<svg xmlns="http://www.w3.org/2000/svg" viewBox="0 0 130 95" width="130" height="95">
  <defs>
    <filter id="sh-max30102" x="-8%" y="-8%" width="116%" height="116%"><feDropShadow dx="1" dy="2" stdDeviation="2.5" flood-opacity="0.28"/></filter>
  </defs>
  <rect x="5" y="15" width="120" height="75" rx="4" fill="#7b1fa2" stroke="#4a148c" stroke-width="1.5" filter="url(#sh-max30102)"/>
  
  <!-- PIN HEADER BLACK BASE -->
  <rect x="12.0" y="6" width="102" height="14" rx="2" fill="#1a1a1a" stroke="#333"/>
  
        <rect x="16.0" y="7" width="8" height="10" fill="#bdbdbd" rx="1"/>
        <text x="20.0" y="5" text-anchor="middle" fill="#fff" font-size="5" font-weight="bold" font-family="Arial,sans-serif">VIN</text>
        
        <rect x="30.0" y="7" width="8" height="10" fill="#bdbdbd" rx="1"/>
        <text x="34.0" y="5" text-anchor="middle" fill="#fff" font-size="5" font-weight="bold" font-family="Arial,sans-serif">SCL</text>
        
        <rect x="44.0" y="7" width="8" height="10" fill="#bdbdbd" rx="1"/>
        <text x="48.0" y="5" text-anchor="middle" fill="#fff" font-size="5" font-weight="bold" font-family="Arial,sans-serif">SDA</text>
        
        <rect x="58.0" y="7" width="8" height="10" fill="#bdbdbd" rx="1"/>
        <text x="62.0" y="5" text-anchor="middle" fill="#fff" font-size="5" font-weight="bold" font-family="Arial,sans-serif">INT</text>
        
        <rect x="72.0" y="7" width="8" height="10" fill="#bdbdbd" rx="1"/>
        <text x="76.0" y="5" text-anchor="middle" fill="#fff" font-size="5" font-weight="bold" font-family="Arial,sans-serif">IRD</text>
        
        <rect x="86.0" y="7" width="8" height="10" fill="#bdbdbd" rx="1"/>
        <text x="90.0" y="5" text-anchor="middle" fill="#fff" font-size="5" font-weight="bold" font-family="Arial,sans-serif">RD</text>
        
        <rect x="100.0" y="7" width="8" height="10" fill="#bdbdbd" rx="1"/>
        <text x="104.0" y="5" text-anchor="middle" fill="#fff" font-size="5" font-weight="bold" font-family="Arial,sans-serif">GND</text>
        
  
  <!-- CUSTOM GRAPHICS -->
  <rect x="55" y="35" width="20" height="20" fill="silver" stroke="#333"/><circle cx="65" cy="45" r="6" fill="#000"/><circle cx="65" cy="45" r="3" fill="#e53935" opacity="0.8"/>
  
  <!-- COMPONENT NAME -->
  <text x="65" y="85" text-anchor="middle" fill="#fff" font-size="8" font-weight="bold" font-family="Arial,sans-serif" opacity="0.9">MAX30102</text>
</svg>