<svg xmlns="http://www.w3.org/2000/svg" viewBox="0 0 130 78" width="130" height="78">
  <defs>
    <linearGradient id="pcb-mpu" x1="0" y1="0" x2="0" y2="1"><stop offset="0%" stop-color="#1E88E5"/><stop offset="100%" stop-color="#0D47A1"/></linearGradient>
    <linearGradient id="pcbTeal-mpu" x1="0" y1="0" x2="0" y2="1"><stop offset="0%" stop-color="#00939d"/><stop offset="100%" stop-color="#007982"/></linearGradient>
    <linearGradient id="metal-mpu" x1="0" y1="0" x2="0" y2="1"><stop offset="0%" stop-color="#eee"/><stop offset="50%" stop-color="#fff"/><stop offset="100%" stop-color="#999"/></linearGradient>
    <linearGradient id="pin-mpu" x1="0" y1="0" x2="0" y2="1"><stop offset="0%" stop-color="#f5f5f5"/><stop offset="100%" stop-color="#bdbdbd"/></linearGradient>
    <filter id="sh-mpu" x="-8%" y="-8%" width="116%" height="116%"><feDropShadow dx="1" dy="2" stdDeviation="2.5" flood-opacity="0.28"/></filter>
    <filter id="glow-mpu"><feGaussianBlur stdDeviation="1.5" result="b"/><feMerge><feMergeNode in="b"/><feMergeNode in="SourceGraphic"/></feMerge></filter>
  </defs><rect x="3" y="18" width="124" height="56" rx="4" fill="url(#pcb-mpu)" stroke="#0a3d7a" stroke-width="1.5" filter="url(#sh-mpu)"/><rect x="9" y="4" width="112" height="16" rx="2" fill="#1a1a1a" stroke="#333"/><rect x="14" y="7" width="6" height="10" fill="url(#pin-mpu)" rx="0.5"/><text x="17" y="3" text-anchor="middle" fill="#fff" font-size="6" font-weight="bold" font-family="Arial,sans-serif">VCC</text><rect x="26" y="7" width="6" height="10" fill="url(#pin-mpu)" rx="0.5"/><text x="29" y="3" text-anchor="middle" fill="#fff" font-size="6" font-weight="bold" font-family="Arial,sans-serif">GND</text><rect x="38" y="7" width="6" height="10" fill="url(#pin-mpu)" rx="0.5"/><text x="41" y="3" text-anchor="middle" fill="#fff" font-size="6" font-weight="bold" font-family="Arial,sans-serif">SCL</text><rect x="50" y="7" width="6" height="10" fill="url(#pin-mpu)" rx="0.5"/><text x="53" y="3" text-anchor="middle" fill="#fff" font-size="6" font-weight="bold" font-family="Arial,sans-serif">SDA</text><rect x="62" y="7" width="6" height="10" fill="url(#pin-mpu)" rx="0.5"/><text x="65" y="3" text-anchor="middle" fill="#fff" font-size="6" font-weight="bold" font-family="Arial,sans-serif">XDA</text><rect x="74" y="7" width="6" height="10" fill="url(#pin-mpu)" rx="0.5"/><text x="77" y="3" text-anchor="middle" fill="#fff" font-size="6" font-weight="bold" font-family="Arial,sans-serif">XCL</text><rect x="86" y="7" width="6" height="10" fill="url(#pin-mpu)" rx="0.5"/><text x="89" y="3" text-anchor="middle" fill="#fff" font-size="6" font-weight="bold" font-family="Arial,sans-serif">AD0</text><rect x="98" y="7" width="6" height="10" fill="url(#pin-mpu)" rx="0.5"/><text x="101" y="3" text-anchor="middle" fill="#fff" font-size="6" font-weight="bold" font-family="Arial,sans-serif">INT</text><rect x="32.5" y="31.200000000000003" width="65" height="27.299999999999997" rx="2" fill="#111" stroke="#333"/><text x="65" y="45.239999999999995" text-anchor="middle" fill="#666" font-size="7" font-family="monospace">MPU6050</text><text x="65" y="74" text-anchor="middle" fill="#fff" font-size="8" font-weight="bold" font-family="Arial,sans-serif" opacity="0.9">MPU-6050</text></svg>
