<svg xmlns="http://www.w3.org/2000/svg" viewBox="0 0 130 95" width="130" height="95">
  <defs>
    <linearGradient id="pcb-mq135" x1="0" y1="0" x2="0" y2="1"><stop offset="0%" stop-color="#1E88E5"/><stop offset="100%" stop-color="#0D47A1"/></linearGradient>
    <linearGradient id="pcbTeal-mq135" x1="0" y1="0" x2="0" y2="1"><stop offset="0%" stop-color="#00939d"/><stop offset="100%" stop-color="#007982"/></linearGradient>
    <linearGradient id="metal-mq135" x1="0" y1="0" x2="0" y2="1"><stop offset="0%" stop-color="#eee"/><stop offset="50%" stop-color="#fff"/><stop offset="100%" stop-color="#999"/></linearGradient>
    <linearGradient id="pin-mq135" x1="0" y1="0" x2="0" y2="1"><stop offset="0%" stop-color="#f5f5f5"/><stop offset="100%" stop-color="#bdbdbd"/></linearGradient>
    <filter id="sh-mq135" x="-8%" y="-8%" width="116%" height="116%"><feDropShadow dx="1" dy="2" stdDeviation="2.5" flood-opacity="0.28"/></filter>
    <filter id="glow-mq135"><feGaussianBlur stdDeviation="1.5" result="b"/><feMerge><feMergeNode in="b"/><feMergeNode in="SourceGraphic"/></feMerge></filter>
  </defs><rect x="3" y="18" width="124" height="73" rx="4" fill="url(#pcb-mq135)" stroke="#0a3d7a" stroke-width="1.5" filter="url(#sh-mq135)"/><rect x="33" y="4" width="64" height="16" rx="2" fill="#1a1a1a" stroke="#333"/><rect x="38" y="7" width="6" height="10" fill="url(#pin-mq135)" rx="0.5"/><text x="41" y="3" text-anchor="middle" fill="#fff" font-size="6" font-weight="bold" font-family="Arial,sans-serif">VCC</text><rect x="50" y="7" width="6" height="10" fill="url(#pin-mq135)" rx="0.5"/><text x="53" y="3" text-anchor="middle" fill="#fff" font-size="6" font-weight="bold" font-family="Arial,sans-serif">GND</text><rect x="62" y="7" width="6" height="10" fill="url(#pin-mq135)" rx="0.5"/><text x="65" y="3" text-anchor="middle" fill="#fff" font-size="6" font-weight="bold" font-family="Arial,sans-serif">AO</text><rect x="74" y="7" width="6" height="10" fill="url(#pin-mq135)" rx="0.5"/><text x="77" y="3" text-anchor="middle" fill="#fff" font-size="6" font-weight="bold" font-family="Arial,sans-serif">DO</text><text x="65" y="91" text-anchor="middle" fill="#fff" font-size="8" font-weight="bold" font-family="Arial,sans-serif" opacity="0.9">MQ-135</text></svg>
