<svg xmlns="http://www.w3.org/2000/svg" viewBox="0 0 130 90" width="130" height="90">
  <defs><filter id="sh"><feDropShadow dx="1" dy="2" stdDeviation="2.5" flood-opacity="0.3"/></filter>
  <linearGradient id="bg" x1="0" y1="0" x2="0" y2="1">
    <stop offset="0%" stop-color="#212121"/><stop offset="100%" stop-color="#111111"/>
  </linearGradient></defs>
  <rect x="2" y="2" width="126" height="86" rx="4" fill="url(#bg)" stroke="#111" stroke-width="2" filter="url(#sh)"/>
  <!-- MT3608 SOT-23-6 chip (tiny) -->
  <rect x="38" y="22" width="30" height="24" rx="1" fill="#111" stroke="#333"/>
  <text x="53" y="36" text-anchor="middle" font-size="5.5" fill="#888" font-family="monospace">MT3608</text>
  <!-- Schottky diode -->
  <rect x="80" y="28" width="22" height="12" rx="2" fill="#1a1a1a" stroke="#333"/>
  <text x="91" y="37" text-anchor="middle" font-size="4.5" fill="#888" font-family="monospace">SS34</text>
  <!-- Inductor -->
  <rect x="10" y="28" width="22" height="12" rx="2" fill="#888" stroke="#666"/>
  <path d="M13,34 a3,3 0 0,1 6,0 a3,3 0 0,1 6,0 a3,3 0 0,1 6,0" stroke="#c8a800" stroke-width="2" fill="none"/>
  <!-- Feedback resistors -->
  <rect x="80" y="50" width="22" height="8" rx="3" fill="#c8a800" stroke="#a07800"/>
  <rect x="80" y="62" width="22" height="8" rx="3" fill="#c8a800" stroke="#a07800"/>
  <!-- Multi-turn trim pot -->
  <circle cx="110" cy="54" r="10" fill="#e0e0e0" stroke="#aaa" stroke-width="1.5"/>
  <circle cx="110" cy="54" r="6" fill="#ccc"/>
  <line x1="110" y1="44" x2="110" y2="50" stroke="#555" stroke-width="2"/>
  <!-- Screw input / output terminals -->
  <rect x="4" y="58" width="28" height="24" rx="2" fill="#333" stroke="#555"/>
  <circle cx="12" cy="66" r="4.5" fill="#888" stroke="#666"/>
  <circle cx="24" cy="66" r="4.5" fill="#888" stroke="#666"/>
  <text x="12" y="76" text-anchor="middle" font-size="5" fill="#aaa" font-family="Arial">IN+</text>
  <text x="24" y="76" text-anchor="middle" font-size="5" fill="#aaa" font-family="Arial">IN-</text>
  <text x="65" y="85" text-anchor="middle" font-size="8.5" font-weight="bold" fill="white" font-family="Arial">MT3608 Boost 2A</text>
</svg>