<svg xmlns="http://www.w3.org/2000/svg" viewBox="0 0 200 130" width="200" height="130">
  <defs><filter id="sh"><feDropShadow dx="1" dy="2" stdDeviation="3" flood-opacity="0.3"/></filter></defs>
  <!-- Display bezel -->
  <rect x="2" y="2" width="196" height="126" rx="8" fill="#333" stroke="#111" stroke-width="3" filter="url(#sh)"/>
  <!-- TFT screen -->
  <rect x="10" y="10" width="180" height="98" rx="4" fill="#001933" stroke="#1565C0" stroke-width="2"/>
  <!-- Screen UI mockup (Nextion style touch buttons) -->
  <rect x="16" y="16" width="78" height="40" rx="4" fill="#1565C0" stroke="#2196f3" stroke-width="1.5"/>
  <text x="55" y="40" text-anchor="middle" font-size="9" fill="white" font-family="Arial" font-weight="bold">ON / OFF</text>
  <rect x="100" y="16" width="84" height="40" rx="4" fill="#e53935" stroke="#ef5350" stroke-width="1.5"/>
  <text x="142" y="40" text-anchor="middle" font-size="9" fill="white" font-family="Arial" font-weight="bold">MENU</text>
  <rect x="16" y="64" width="168" height="38" rx="4" fill="#1a1a1a" stroke="#333"/>
  <text x="100" y="87" text-anchor="middle" font-size="11" fill="#4caf50" font-family="Courier New" font-weight="bold">Nextion HMI 2.4"</text>
  <!-- 4-pin UART connector: VCC GND TX RX -->
  <rect x="60" y="112" width="80" height="14" rx="2" fill="#1a1a1a"/>
  <rect x="64" y="114" width="10" height="10" rx="1" fill="#c8b400"/>
  <rect x="80" y="114" width="10" height="10" rx="1" fill="#c8b400"/>
  <rect x="96" y="114" width="10" height="10" rx="1" fill="#c8b400"/>
  <rect x="112" y="114" width="10" height="10" rx="1" fill="#c8b400"/>
  <text x="69" y="111" text-anchor="middle" font-size="5.5" fill="#ddd" font-family="Arial" font-weight="bold">VCC</text>
  <text x="85" y="111" text-anchor="middle" font-size="5.5" fill="#ddd" font-family="Arial" font-weight="bold">GND</text>
  <text x="101" y="111" text-anchor="middle" font-size="5.5" fill="#ddd" font-family="Arial" font-weight="bold">TX</text>
  <text x="117" y="111" text-anchor="middle" font-size="5.5" fill="#ddd" font-family="Arial" font-weight="bold">RX</text>
</svg>