<svg xmlns="http://www.w3.org/2000/svg" viewBox="0 0 120 100" width="120" height="100">
  <defs>
    <linearGradient id="pcb-pir" x1="0" y1="0" x2="0" y2="1"><stop offset="0%" stop-color="#1E88E5"/><stop offset="100%" stop-color="#0D47A1"/></linearGradient>
    <linearGradient id="pcbTeal-pir" x1="0" y1="0" x2="0" y2="1"><stop offset="0%" stop-color="#00939d"/><stop offset="100%" stop-color="#007982"/></linearGradient>
    <linearGradient id="metal-pir" x1="0" y1="0" x2="0" y2="1"><stop offset="0%" stop-color="#eee"/><stop offset="50%" stop-color="#fff"/><stop offset="100%" stop-color="#999"/></linearGradient>
    <linearGradient id="pin-pir" x1="0" y1="0" x2="0" y2="1"><stop offset="0%" stop-color="#f5f5f5"/><stop offset="100%" stop-color="#bdbdbd"/></linearGradient>
    <filter id="sh-pir" x="-8%" y="-8%" width="116%" height="116%"><feDropShadow dx="1" dy="2" stdDeviation="2.5" flood-opacity="0.28"/></filter>
    <filter id="glow-pir"><feGaussianBlur stdDeviation="1.5" result="b"/><feMerge><feMergeNode in="b"/><feMergeNode in="SourceGraphic"/></feMerge></filter>
  </defs><rect x="20" y="55" width="80" height="38" rx="4" fill="url(#pcb-pir)" stroke="#0a3d7a" filter="url(#sh-pir)"/><ellipse cx="60" cy="42" rx="32" ry="30" fill="#fff" stroke="#e0e0e0" stroke-width="2"/><ellipse cx="60" cy="42" rx="24" ry="22" fill="#f5f5f5" stroke="#bdbdbd"/><circle cx="60" cy="42" r="14" fill="#fff" stroke="#9e9e9e" stroke-width="1.5"/><rect x="35" y="48" width="50" height="10" rx="2" fill="#333" opacity="0.15"/><rect x="38" y="52" width="6" height="8" fill="url(#pin-pir)"/><text x="41" y="50" text-anchor="middle" fill="#fff" font-size="6" font-weight="bold">VCC</text><rect x="60" y="52" width="6" height="8" fill="url(#pin-pir)"/><text x="63" y="50" text-anchor="middle" fill="#fff" font-size="6" font-weight="bold">OUT</text><rect x="82" y="52" width="6" height="8" fill="url(#pin-pir)"/><text x="85" y="50" text-anchor="middle" fill="#fff" font-size="6" font-weight="bold">GND</text><text x="60" y="88" text-anchor="middle" fill="#fff" font-size="7" font-weight="bold">PIR HC-SR501</text></svg>
