<svg xmlns="http://www.w3.org/2000/svg" viewBox="0 0 160 110" width="160" height="110">
  <defs><filter id="sh"><feDropShadow dx="1" dy="2" stdDeviation="2.5" flood-opacity="0.3"/></filter>
  <linearGradient id="bg" x1="0" y1="0" x2="0" y2="1">
    <stop offset="0%" stop-color="#bf360c"/><stop offset="100%" stop-color="#7f0000"/>
  </linearGradient></defs>
  <rect x="2" y="2" width="156" height="106" rx="4" fill="url(#bg)" stroke="#7f0000" stroke-width="2" filter="url(#sh)"/>
  <!-- PZEM chip -->
  <rect x="24" y="14" width="70" height="54" rx="2" fill="#111" stroke="#333"/>
  <text x="59" y="40" text-anchor="middle" font-size="7.5" fill="#888" font-family="monospace">PZEM-004T</text>
  <text x="59" y="52" text-anchor="middle" font-size="5.5" fill="#666" font-family="monospace">AC V+A+W+kWh</text>
  <!-- Current transformer (donut shape) -->
  <circle cx="118" cy="42" r="24" fill="#555" stroke="#777" stroke-width="2"/>
  <circle cx="118" cy="42" r="14" fill="#333" stroke="#555"/>
  <circle cx="118" cy="42" r="7" fill="#222"/>
  <!-- AC screw terminals -->
  <rect x="4" y="74" width="148" height="30" rx="2" fill="#333" stroke="#555"/>
  <circle cx="16" cy="86" r="6" fill="#888" stroke="#666"/><line x1="11" y1="86" x2="21" y2="86" stroke="#555" stroke-width="1.5"/>
  <circle cx="36" cy="86" r="6" fill="#888" stroke="#666"/>
  <circle cx="56" cy="86" r="6" fill="#888" stroke="#666"/>
  <circle cx="76" cy="86" r="6" fill="#888" stroke="#666"/>
  <text x="16" y="96" text-anchor="middle" font-size="5" fill="#aaa" font-family="Arial">L</text>
  <text x="36" y="96" text-anchor="middle" font-size="5" fill="#aaa" font-family="Arial">N</text>
  <text x="56" y="96" text-anchor="middle" font-size="5" fill="#aaa" font-family="Arial">Out-L</text>
  <text x="76" y="96" text-anchor="middle" font-size="5" fill="#aaa" font-family="Arial">Out-N</text>
  <!-- UART pins: VCC GND TX RX -->
  <rect x="94" y="74" width="58" height="30" rx="2" fill="#1a1a1a"/>
  <text x="123" y="86" text-anchor="middle" font-size="5" fill="#aaa" font-family="Arial">VCC GND TX RX</text>
  <text x="80" y="108" text-anchor="middle" font-size="8.5" font-weight="bold" fill="white" font-family="Arial">PZEM-004T AC Meter</text>
</svg>