<svg xmlns="http://www.w3.org/2000/svg" viewBox="0 0 120 85" width="120" height="85">
  <defs>
    <linearGradient id="pcb-relay" x1="0" y1="0" x2="0" y2="1"><stop offset="0%" stop-color="#1E88E5"/><stop offset="100%" stop-color="#0D47A1"/></linearGradient>
    <linearGradient id="pcbTeal-relay" x1="0" y1="0" x2="0" y2="1"><stop offset="0%" stop-color="#00939d"/><stop offset="100%" stop-color="#007982"/></linearGradient>
    <linearGradient id="metal-relay" x1="0" y1="0" x2="0" y2="1"><stop offset="0%" stop-color="#eee"/><stop offset="50%" stop-color="#fff"/><stop offset="100%" stop-color="#999"/></linearGradient>
    <linearGradient id="pin-relay" x1="0" y1="0" x2="0" y2="1"><stop offset="0%" stop-color="#f5f5f5"/><stop offset="100%" stop-color="#bdbdbd"/></linearGradient>
    <filter id="sh-relay" x="-8%" y="-8%" width="116%" height="116%"><feDropShadow dx="1" dy="2" stdDeviation="2.5" flood-opacity="0.28"/></filter>
    <filter id="glow-relay"><feGaussianBlur stdDeviation="1.5" result="b"/><feMerge><feMergeNode in="b"/><feMergeNode in="SourceGraphic"/></feMerge></filter>
  </defs><rect x="3" y="3" width="114" height="79" rx="4" fill="url(#pcb-relay)" stroke="#0a3d7a" stroke-width="1.5" filter="url(#sh-relay)"/><circle cx="20" cy="10" r="4" fill="url(#pin-relay)"/><circle cx="20" cy="10" r="2.5" fill="#111"/><text x="20" y="20" text-anchor="middle" fill="#fff" font-size="5" font-weight="bold" font-family="Arial,sans-serif">VCC</text><circle cx="36" cy="10" r="4" fill="url(#pin-relay)"/><circle cx="36" cy="10" r="2.5" fill="#111"/><text x="36" y="20" text-anchor="middle" fill="#fff" font-size="5" font-weight="bold" font-family="Arial,sans-serif">GND</text><circle cx="52" cy="10" r="4" fill="url(#pin-relay)"/><circle cx="52" cy="10" r="2.5" fill="#111"/><text x="52" y="20" text-anchor="middle" fill="#fff" font-size="5" font-weight="bold" font-family="Arial,sans-serif">IN</text><circle cx="68" cy="10" r="4" fill="url(#pin-relay)"/><circle cx="68" cy="10" r="2.5" fill="#111"/><text x="68" y="20" text-anchor="middle" fill="#fff" font-size="5" font-weight="bold" font-family="Arial,sans-serif">COM</text><circle cx="84" cy="10" r="4" fill="url(#pin-relay)"/><circle cx="84" cy="10" r="2.5" fill="#111"/><text x="84" y="20" text-anchor="middle" fill="#fff" font-size="5" font-weight="bold" font-family="Arial,sans-serif">NO</text><circle cx="100" cy="10" r="4" fill="url(#pin-relay)"/><circle cx="100" cy="10" r="2.5" fill="#111"/><text x="100" y="20" text-anchor="middle" fill="#fff" font-size="5" font-weight="bold" font-family="Arial,sans-serif">NC</text><text x="60" y="81" text-anchor="middle" fill="#fff" font-size="8" font-weight="bold" font-family="Arial,sans-serif" opacity="0.9">Relay Module</text><rect x="12" y="30" width="40" height="30" rx="2" fill="#111"/>
    <rect x="68" y="30" width="40" height="44" fill="#E0E0E0" stroke="#9E9E9E"/>
    <circle cx="88" cy="45" r="8" fill="#F44336" opacity="0.8"/>
    </svg>
