<svg xmlns="http://www.w3.org/2000/svg" viewBox="0 0 220 95" width="220" height="95">
<rect x="4" y="10" width="212" height="75" rx="3" fill="#059669" stroke="#047857"/>
<rect x="78" y="28" width="64" height="40" rx="2" fill="#111"/>
<text x="110" y="54" text-anchor="middle" fill="#fff" font-size="11" font-weight="bold">Raspberry Pi Pico</text>
<g fill="#D4AF37"><circle cx="14" cy="18" r="4"/><circle cx="206" cy="18" r="4"/><circle cx="14" cy="77" r="4"/><circle cx="206" cy="77" r="4"/></g>
<rect x="10" y="4" width="200" height="6" fill="#111"/><rect x="10" y="85" width="200" height="6" fill="#111"/>
<g fill="#ddd"><rect x="12" y="3" width="4" height="6"/><rect x="12" y="86" width="4" height="6"/><rect x="22" y="3" width="4" height="6"/><rect x="22" y="86" width="4" height="6"/><rect x="32" y="3" width="4" height="6"/><rect x="32" y="86" width="4" height="6"/><rect x="42" y="3" width="4" height="6"/><rect x="42" y="86" width="4" height="6"/><rect x="52" y="3" width="4" height="6"/><rect x="52" y="86" width="4" height="6"/><rect x="62" y="3" width="4" height="6"/><rect x="62" y="86" width="4" height="6"/><rect x="72" y="3" width="4" height="6"/><rect x="72" y="86" width="4" height="6"/><rect x="82" y="3" width="4" height="6"/><rect x="82" y="86" width="4" height="6"/><rect x="92" y="3" width="4" height="6"/><rect x="92" y="86" width="4" height="6"/><rect x="102" y="3" width="4" height="6"/><rect x="102" y="86" width="4" height="6"/><rect x="112" y="3" width="4" height="6"/><rect x="112" y="86" width="4" height="6"/><rect x="122" y="3" width="4" height="6"/><rect x="122" y="86" width="4" height="6"/><rect x="132" y="3" width="4" height="6"/><rect x="132" y="86" width="4" height="6"/><rect x="142" y="3" width="4" height="6"/><rect x="142" y="86" width="4" height="6"/><rect x="152" y="3" width="4" height="6"/><rect x="152" y="86" width="4" height="6"/><rect x="162" y="3" width="4" height="6"/><rect x="162" y="86" width="4" height="6"/><rect x="172" y="3" width="4" height="6"/><rect x="172" y="86" width="4" height="6"/><rect x="182" y="3" width="4" height="6"/><rect x="182" y="86" width="4" height="6"/><rect x="192" y="3" width="4" height="6"/><rect x="192" y="86" width="4" height="6"/><rect x="202" y="3" width="4" height="6"/><rect x="202" y="86" width="4" height="6"/></g>
</svg>
