<svg xmlns="http://www.w3.org/2000/svg" viewBox="0 0 190 80" width="190" height="80">
  <defs><filter id="sh"><feDropShadow dx="1" dy="2" stdDeviation="2.5" flood-opacity="0.3"/></filter>
  <linearGradient id="bg" x1="0" y1="0" x2="0" y2="1">
    <stop offset="0%" stop-color="#2d3748"/><stop offset="100%" stop-color="#1a2233"/>
  </linearGradient></defs>
  <rect x="2" y="2" width="186" height="76" rx="4" fill="url(#bg)" stroke="#111" stroke-width="2" filter="url(#sh)"/>
  <!-- K210 AI chip module with metal shield -->
  <rect x="50" y="8" width="90" height="52" rx="3" fill="#555" stroke="#777" stroke-width="1.5"/>
  <rect x="54" y="12" width="82" height="44" rx="2" fill="#666" stroke="#888"/>
  <text x="95" y="30" text-anchor="middle" font-size="8" fill="#aaa" font-family="monospace">Sipeed Maix</text>
  <text x="95" y="42" text-anchor="middle" font-size="6" fill="#888" font-family="monospace">K210 RISC-V AI</text>
  <!-- Camera connector + speaker -->
  <rect x="148" y="14" width="24" height="14" rx="2" fill="#888" stroke="#666"/>
  <text x="160" y="23" text-anchor="middle" font-size="5" fill="#444" font-family="Arial">CAM</text>
  <!-- USB -->
  <rect x="84" y="64" width="24" height="10" rx="3" fill="#888" stroke="#666"/>
  <rect x="87" y="66" width="18" height="6" rx="1" fill="#444"/>
  <!-- Left pins -->
  <rect x="0" y="6" width="14" height="68" rx="1" fill="#1a1a1a"/>
  <text x="7" y="14" text-anchor="middle" font-size="3.5" fill="#aaa" font-family="Arial">IO32</text>
  <text x="7" y="22" text-anchor="middle" font-size="3.5" fill="#aaa" font-family="Arial">IO31</text>
  <text x="7" y="30" text-anchor="middle" font-size="3.5" fill="#aaa" font-family="Arial">IO30</text>
  <text x="7" y="38" text-anchor="middle" font-size="3.5" fill="#aaa" font-family="Arial">GND</text>
  <text x="7" y="46" text-anchor="middle" font-size="3.5" fill="#aaa" font-family="Arial">3V3</text>
  <!-- Right pins -->
  <rect x="176" y="6" width="14" height="68" rx="1" fill="#1a1a1a"/>
  <text x="183" y="14" text-anchor="middle" font-size="3.5" fill="#aaa" font-family="Arial">IO0</text>
  <text x="183" y="22" text-anchor="middle" font-size="3.5" fill="#aaa" font-family="Arial">IO1</text>
  <text x="183" y="30" text-anchor="middle" font-size="3.5" fill="#aaa" font-family="Arial">IO2</text>
  <text x="183" y="38" text-anchor="middle" font-size="3.5" fill="#aaa" font-family="Arial">GND</text>
  <text x="183" y="46" text-anchor="middle" font-size="3.5" fill="#aaa" font-family="Arial">3V3</text>
  <text x="95" y="75" text-anchor="middle" font-size="8" font-weight="bold" fill="white" font-family="Arial">Sipeed Maix Duino</text>
</svg>