<svg xmlns="http://www.w3.org/2000/svg" viewBox="0 0 90 120" width="90" height="120">
  <defs>
    <linearGradient id="pcb-soil" x1="0" y1="0" x2="0" y2="1"><stop offset="0%" stop-color="#1E88E5"/><stop offset="100%" stop-color="#0D47A1"/></linearGradient>
    <linearGradient id="pcbTeal-soil" x1="0" y1="0" x2="0" y2="1"><stop offset="0%" stop-color="#00939d"/><stop offset="100%" stop-color="#007982"/></linearGradient>
    <linearGradient id="metal-soil" x1="0" y1="0" x2="0" y2="1"><stop offset="0%" stop-color="#eee"/><stop offset="50%" stop-color="#fff"/><stop offset="100%" stop-color="#999"/></linearGradient>
    <linearGradient id="pin-soil" x1="0" y1="0" x2="0" y2="1"><stop offset="0%" stop-color="#f5f5f5"/><stop offset="100%" stop-color="#bdbdbd"/></linearGradient>
    <filter id="sh-soil" x="-8%" y="-8%" width="116%" height="116%"><feDropShadow dx="1" dy="2" stdDeviation="2.5" flood-opacity="0.28"/></filter>
    <filter id="glow-soil"><feGaussianBlur stdDeviation="1.5" result="b"/><feMerge><feMergeNode in="b"/><feMergeNode in="SourceGraphic"/></feMerge></filter>
  </defs><rect x="20" y="8" width="50" height="28" rx="3" fill="url(#pcb-soil)" stroke="#0a3d7a"/><rect x="28" y="10" width="5" height="8" fill="#ddd"/><text x="30" y="8" text-anchor="middle" fill="#fff" font-size="5" font-weight="bold">VCC</text><rect x="44" y="10" width="5" height="8" fill="#ddd"/><text x="46" y="8" text-anchor="middle" fill="#fff" font-size="5" font-weight="bold">GND</text><rect x="60" y="10" width="5" height="8" fill="#ddd"/><text x="62" y="8" text-anchor="middle" fill="#fff" font-size="5" font-weight="bold">SIG</text><rect x="28" y="38" width="4" height="75" fill="#888"/><rect x="58" y="38" width="4" height="75" fill="#888"/><path d="M30 112 L26 95 L32 80 L28 65 L30 50" fill="none" stroke="#A1887F" stroke-width="3"/><path d="M60 112 L64 95 L58 80 L62 65 L60 50" fill="none" stroke="#A1887F" stroke-width="3"/></svg>
