<svg xmlns="http://www.w3.org/2000/svg" viewBox="0 0 150 55" width="150" height="55">
<rect x="3" y="2" width="144" height="50" rx="2" fill="#1565C0" stroke="#0D47A1"/>
<rect x="55" y="14" width="40" height="26" fill="#111"/>
<text x="75" y="31" text-anchor="middle" fill="#fff" font-size="8">STM32F103</text>
<g fill="#ddd"><circle cx="9.5" cy="6" r="2.5"/><circle cx="9.5" cy="48" r="2.5"/><circle cx="16.5" cy="6" r="2.5"/><circle cx="16.5" cy="48" r="2.5"/><circle cx="23.5" cy="6" r="2.5"/><circle cx="23.5" cy="48" r="2.5"/><circle cx="30.5" cy="6" r="2.5"/><circle cx="30.5" cy="48" r="2.5"/><circle cx="37.5" cy="6" r="2.5"/><circle cx="37.5" cy="48" r="2.5"/><circle cx="44.5" cy="6" r="2.5"/><circle cx="44.5" cy="48" r="2.5"/><circle cx="51.5" cy="6" r="2.5"/><circle cx="51.5" cy="48" r="2.5"/><circle cx="58.5" cy="6" r="2.5"/><circle cx="58.5" cy="48" r="2.5"/><circle cx="65.5" cy="6" r="2.5"/><circle cx="65.5" cy="48" r="2.5"/><circle cx="72.5" cy="6" r="2.5"/><circle cx="72.5" cy="48" r="2.5"/><circle cx="79.5" cy="6" r="2.5"/><circle cx="79.5" cy="48" r="2.5"/><circle cx="86.5" cy="6" r="2.5"/><circle cx="86.5" cy="48" r="2.5"/><circle cx="93.5" cy="6" r="2.5"/><circle cx="93.5" cy="48" r="2.5"/><circle cx="100.5" cy="6" r="2.5"/><circle cx="100.5" cy="48" r="2.5"/><circle cx="107.5" cy="6" r="2.5"/><circle cx="107.5" cy="48" r="2.5"/><circle cx="114.5" cy="6" r="2.5"/><circle cx="114.5" cy="48" r="2.5"/><circle cx="121.5" cy="6" r="2.5"/><circle cx="121.5" cy="48" r="2.5"/><circle cx="128.5" cy="6" r="2.5"/><circle cx="128.5" cy="48" r="2.5"/><circle cx="135.5" cy="6" r="2.5"/><circle cx="135.5" cy="48" r="2.5"/><circle cx="142.5" cy="6" r="2.5"/><circle cx="142.5" cy="48" r="2.5"/></g>
<g fill="#111"><circle cx="9.5" cy="6" r="1.5"/><circle cx="9.5" cy="48" r="1.5"/><circle cx="16.5" cy="6" r="1.5"/><circle cx="16.5" cy="48" r="1.5"/><circle cx="23.5" cy="6" r="1.5"/><circle cx="23.5" cy="48" r="1.5"/><circle cx="30.5" cy="6" r="1.5"/><circle cx="30.5" cy="48" r="1.5"/><circle cx="37.5" cy="6" r="1.5"/><circle cx="37.5" cy="48" r="1.5"/><circle cx="44.5" cy="6" r="1.5"/><circle cx="44.5" cy="48" r="1.5"/><circle cx="51.5" cy="6" r="1.5"/><circle cx="51.5" cy="48" r="1.5"/><circle cx="58.5" cy="6" r="1.5"/><circle cx="58.5" cy="48" r="1.5"/><circle cx="65.5" cy="6" r="1.5"/><circle cx="65.5" cy="48" r="1.5"/><circle cx="72.5" cy="6" r="1.5"/><circle cx="72.5" cy="48" r="1.5"/><circle cx="79.5" cy="6" r="1.5"/><circle cx="79.5" cy="48" r="1.5"/><circle cx="86.5" cy="6" r="1.5"/><circle cx="86.5" cy="48" r="1.5"/><circle cx="93.5" cy="6" r="1.5"/><circle cx="93.5" cy="48" r="1.5"/><circle cx="100.5" cy="6" r="1.5"/><circle cx="100.5" cy="48" r="1.5"/><circle cx="107.5" cy="6" r="1.5"/><circle cx="107.5" cy="48" r="1.5"/><circle cx="114.5" cy="6" r="1.5"/><circle cx="114.5" cy="48" r="1.5"/><circle cx="121.5" cy="6" r="1.5"/><circle cx="121.5" cy="48" r="1.5"/><circle cx="128.5" cy="6" r="1.5"/><circle cx="128.5" cy="48" r="1.5"/><circle cx="135.5" cy="6" r="1.5"/><circle cx="135.5" cy="48" r="1.5"/><circle cx="142.5" cy="6" r="1.5"/><circle cx="142.5" cy="48" r="1.5"/></g>
</svg>
