<svg xmlns="http://www.w3.org/2000/svg" viewBox="0 0 120 90" width="120" height="90">
  <defs><filter id="sh"><feDropShadow dx="1" dy="2" stdDeviation="2.5" flood-opacity="0.3"/></filter>
  <linearGradient id="bg" x1="0" y1="0" x2="0" y2="1">
    <stop offset="0%" stop-color="#f57f17"/><stop offset="100%" stop-color="#e65100"/>
  </linearGradient></defs>
  <rect x="3" y="18" width="114" height="68" rx="4" fill="url(#bg)" stroke="#e65100" stroke-width="1.5" filter="url(#sh)"/>
  <!-- TSL2561 chip with clear lid (photodiode array) -->
  <rect x="28" y="30" width="64" height="40" rx="2" fill="#111" stroke="#333" stroke-width="1.5"/>
  <rect x="36" y="36" width="48" height="28" rx="1" fill="#1a1a1a" stroke="#555"/>
  <!-- Light sensor array inside (visible die) -->
  <circle cx="60" cy="50" r="14" fill="#222" stroke="#444"/>
  <circle cx="60" cy="50" r="8" fill="#333" stroke="#555"/>
  <!-- Sun icon (ambient light) -->
  <circle cx="60" cy="50" r="5" fill="#ffeb3b" opacity="0.8"/>
  <text x="60" y="80" text-anchor="middle" font-size="5.5" fill="#666" font-family="monospace">TSL2561</text>
  <!-- 4-pin header: VDD GND SCL SDA -->
  <rect x="18" y="6" width="84" height="14" rx="2" fill="#1a1a1a" stroke="#333"/>
  <rect x="22" y="8" width="10" height="10" rx="1" fill="#c8b400"/>
  <rect x="38" y="8" width="10" height="10" rx="1" fill="#c8b400"/>
  <rect x="54" y="8" width="10" height="10" rx="1" fill="#c8b400"/>
  <rect x="70" y="8" width="10" height="10" rx="1" fill="#c8b400"/>
  <text x="27" y="3" text-anchor="middle" font-size="5.5" fill="#ddd" font-family="Arial" font-weight="bold">VDD</text>
  <text x="43" y="3" text-anchor="middle" font-size="5.5" fill="#ddd" font-family="Arial" font-weight="bold">GND</text>
  <text x="59" y="3" text-anchor="middle" font-size="5.5" fill="#ddd" font-family="Arial" font-weight="bold">SCL</text>
  <text x="75" y="3" text-anchor="middle" font-size="5.5" fill="#ddd" font-family="Arial" font-weight="bold">SDA</text>
  <text x="60" y="82" text-anchor="middle" font-size="9" font-weight="bold" fill="white" font-family="Arial">TSL2561 Light</text>
</svg>