<svg xmlns="http://www.w3.org/2000/svg" viewBox="0 0 140 85" width="140" height="85">
  <defs>
    <linearGradient id="pcb-uln" x1="0" y1="0" x2="0" y2="1"><stop offset="0%" stop-color="#1E88E5"/><stop offset="100%" stop-color="#0D47A1"/></linearGradient>
    <linearGradient id="pcbTeal-uln" x1="0" y1="0" x2="0" y2="1"><stop offset="0%" stop-color="#00939d"/><stop offset="100%" stop-color="#007982"/></linearGradient>
    <linearGradient id="metal-uln" x1="0" y1="0" x2="0" y2="1"><stop offset="0%" stop-color="#eee"/><stop offset="50%" stop-color="#fff"/><stop offset="100%" stop-color="#999"/></linearGradient>
    <linearGradient id="pin-uln" x1="0" y1="0" x2="0" y2="1"><stop offset="0%" stop-color="#f5f5f5"/><stop offset="100%" stop-color="#bdbdbd"/></linearGradient>
    <filter id="sh-uln" x="-8%" y="-8%" width="116%" height="116%"><feDropShadow dx="1" dy="2" stdDeviation="2.5" flood-opacity="0.28"/></filter>
    <filter id="glow-uln"><feGaussianBlur stdDeviation="1.5" result="b"/><feMerge><feMergeNode in="b"/><feMergeNode in="SourceGraphic"/></feMerge></filter>
  </defs><rect x="3" y="3" width="134" height="79" rx="4" fill="url(#pcb-uln)" stroke="#0a3d7a" stroke-width="1.5" filter="url(#sh-uln)"/><circle cx="30" cy="10" r="4" fill="url(#pin-uln)"/><circle cx="30" cy="10" r="2.5" fill="#111"/><text x="30" y="20" text-anchor="middle" fill="#fff" font-size="5" font-weight="bold" font-family="Arial,sans-serif">IN1</text><circle cx="46" cy="10" r="4" fill="url(#pin-uln)"/><circle cx="46" cy="10" r="2.5" fill="#111"/><text x="46" y="20" text-anchor="middle" fill="#fff" font-size="5" font-weight="bold" font-family="Arial,sans-serif">IN2</text><circle cx="62" cy="10" r="4" fill="url(#pin-uln)"/><circle cx="62" cy="10" r="2.5" fill="#111"/><text x="62" y="20" text-anchor="middle" fill="#fff" font-size="5" font-weight="bold" font-family="Arial,sans-serif">IN3</text><circle cx="78" cy="10" r="4" fill="url(#pin-uln)"/><circle cx="78" cy="10" r="2.5" fill="#111"/><text x="78" y="20" text-anchor="middle" fill="#fff" font-size="5" font-weight="bold" font-family="Arial,sans-serif">IN4</text><circle cx="94" cy="10" r="4" fill="url(#pin-uln)"/><circle cx="94" cy="10" r="2.5" fill="#111"/><text x="94" y="20" text-anchor="middle" fill="#fff" font-size="5" font-weight="bold" font-family="Arial,sans-serif">VCC</text><circle cx="110" cy="10" r="4" fill="url(#pin-uln)"/><circle cx="110" cy="10" r="2.5" fill="#111"/><text x="110" y="20" text-anchor="middle" fill="#fff" font-size="5" font-weight="bold" font-family="Arial,sans-serif">GND</text><text x="70" y="81" text-anchor="middle" fill="#fff" font-size="8" font-weight="bold" font-family="Arial,sans-serif" opacity="0.9">ULN2003</text></svg>
