<svg xmlns="http://www.w3.org/2000/svg" viewBox="0 0 200 150" width="200" height="150">
  <!-- PCB -->
  <path d="M5 5 h 180 a 10 10 0 0 1 10 10 v 120 a 10 10 0 0 1 -10 10 h -170 a 15 15 0 0 1 -15 -15 v -115 z" fill="#006468" />
  <!-- USB Port -->
  <rect x="5" y="10" width="30" height="30" fill="#E0E0E0" rx="2" />
  <rect x="10" y="15" width="20" height="20" fill="#9E9E9E" />
  <!-- Power Jack -->
  <rect x="5" y="100" width="30" height="25" fill="#212121" rx="2" />
  <circle cx="20" cy="112.5" r="8" fill="#424242" />
  <!-- Microcontroller IC -->
  <rect x="80" y="70" width="60" height="20" fill="#212121" rx="2" />
  <circle cx="85" cy="80" r="2" fill="#757575" />
  <!-- Top Headers -->
  <rect x="50" y="5" width="130" height="12" fill="#212121" />
  <!-- Bottom Headers -->
  <rect x="60" y="133" width="110" height="12" fill="#212121" />
  <!-- Logo text -->
  <text x="80" y="45" font-family="sans-serif" font-size="16" font-weight="bold" fill="#ffffff" opacity="0.8">ARDUINO</text>
  <text x="80" y="60" font-family="sans-serif" font-size="10" font-weight="bold" fill="#ffffff" opacity="0.8">UNO</text>
</svg>
